G04 Layer_Physical_Order=3*
G04 Layer_Color=16440176*
%FSLAX25Y25*%
%MOIN*%
G70*
G01*
G75*
%ADD36C,0.00500*%
%ADD40C,0.01500*%
%ADD49C,0.02000*%
%ADD50C,0.06000*%
%ADD55C,0.02200*%
D36*
X103150Y21150D02*
X118000Y36000D01*
X94234Y21150D02*
X103150D01*
X94192Y21192D02*
X94234Y21150D01*
X94192Y21192D02*
X94192D01*
X78000Y5000D02*
X94192Y21192D01*
X201400Y44100D02*
X205100Y47800D01*
X88000Y5000D02*
Y10900D01*
X92500Y15400D01*
X100400D01*
X117000Y32000D01*
X124000D02*
X124500D01*
X117000D02*
X124000D01*
X18000Y72300D02*
Y75000D01*
Y5000D02*
Y9000D01*
X74600Y43300D02*
Y47200D01*
X76200Y48800D01*
X82500D01*
X184000Y46884D02*
Y47000D01*
Y46884D02*
X186784Y44100D01*
X201400D01*
X78600Y13400D02*
X97500Y32300D01*
X78550Y25450D02*
X92000Y38900D01*
X68034Y25450D02*
X78550D01*
X68014Y25469D02*
X68034Y25450D01*
X51269Y25469D02*
X68014D01*
X38000Y12200D02*
X51269Y25469D01*
X65400Y19200D02*
X80600D01*
X102000Y38000D02*
X125200D01*
X126650Y36550D01*
Y28350D02*
Y36550D01*
Y28350D02*
X127000Y28000D01*
X128000Y72500D02*
Y75000D01*
X123500Y68000D02*
X128000Y72500D01*
X123500Y63200D02*
Y68000D01*
X129500Y56500D02*
X132000Y54000D01*
X159500Y44000D02*
X167500D01*
X148000Y64043D02*
Y75000D01*
X164500Y55200D02*
Y59500D01*
X158000Y66000D02*
X164500Y59500D01*
X158700Y33500D02*
X164700Y39500D01*
X167500D01*
X158000Y66000D02*
Y75000D01*
X99000Y41000D02*
X102000Y38000D01*
X103000Y40000D02*
X105000Y42000D01*
X118000Y36000D02*
X124000D01*
X105000Y42000D02*
X111000D01*
X158700Y5700D02*
Y33500D01*
X158000Y5000D02*
X158700Y5700D01*
X28000Y5000D02*
Y9900D01*
X38000Y5000D02*
Y12200D01*
X92000Y38900D02*
X96900D01*
X99000Y41000D01*
X48000Y5000D02*
X56400Y13400D01*
X78600D01*
X97500Y32300D02*
X99900D01*
X98000Y62100D02*
Y75000D01*
X95000Y59100D02*
X98000Y62100D01*
X95000Y44500D02*
Y59100D01*
X28000Y9900D02*
X60100Y42000D01*
X118000Y5000D02*
X118616D01*
X123516Y9900D01*
X127300D01*
X149500Y54000D02*
X159500Y44000D01*
X132000Y54000D02*
X149500D01*
X127300Y9900D02*
X144750Y27350D01*
Y38750D01*
X150000Y44000D01*
X168000Y75000D02*
X173700Y69300D01*
X173650Y58266D02*
X173700Y58316D01*
Y69300D01*
X173650Y49850D02*
Y58266D01*
Y49850D02*
X174500Y49000D01*
X160643Y51400D02*
X170700D01*
X148000Y64043D02*
X160643Y51400D01*
X33150Y57150D02*
X74050D01*
X75700Y55500D01*
X18000Y9000D02*
X59700Y50700D01*
X77384D01*
X81984Y55300D01*
X58100Y28800D02*
X60100D01*
X74600Y43300D01*
X111000Y42000D02*
X138000Y69000D01*
X60100Y42000D02*
X61200D01*
X18000Y72300D02*
X33150Y57150D01*
X80600Y19200D02*
X85000Y23600D01*
X82500Y48800D02*
X87000Y53300D01*
Y63000D01*
D40*
X196600Y64600D02*
Y71600D01*
X194200Y62200D02*
X196600Y64600D01*
X194200Y55100D02*
Y62200D01*
D49*
X129500Y56500D02*
D03*
D50*
X18000Y5000D02*
D03*
X28000D02*
D03*
X38000D02*
D03*
X48000D02*
D03*
X78000D02*
D03*
X88000D02*
D03*
X118000D02*
D03*
X158000D02*
D03*
X18000Y75000D02*
D03*
X98000D02*
D03*
X128000D02*
D03*
X168000D02*
D03*
X158000D02*
D03*
X148000D02*
D03*
D55*
X75700Y55500D02*
D03*
X81984Y55300D02*
D03*
X196600Y71600D02*
D03*
X200000Y33500D02*
D03*
X196063D02*
D03*
X198031D02*
D03*
X196063Y30500D02*
D03*
X198031D02*
D03*
X164500Y55200D02*
D03*
X99900Y32300D02*
D03*
X184000Y47000D02*
D03*
X99000Y41000D02*
D03*
X124000Y36000D02*
D03*
X127000Y28000D02*
D03*
X103000Y40000D02*
D03*
X58100Y28800D02*
D03*
X95000Y44300D02*
D03*
X87000Y63000D02*
D03*
X123500Y63200D02*
D03*
X194200Y55100D02*
D03*
X205100Y47300D02*
D03*
X200000Y30500D02*
D03*
X201969D02*
D03*
Y33500D02*
D03*
X174500Y49000D02*
D03*
X170700Y51400D02*
D03*
X150000Y44000D02*
D03*
X167500Y39500D02*
D03*
Y44000D02*
D03*
X124000Y32000D02*
D03*
X65400Y19200D02*
D03*
X138000Y69000D02*
D03*
X61200Y42000D02*
D03*
X85000Y23600D02*
D03*
M02*
