G04 Layer_Color=16711935*
%FSLAX25Y25*%
%MOIN*%
G70*
G01*
G75*
%ADD59C,0.02800*%
%ADD60C,0.04400*%
%ADD79R,0.13386X0.13386*%
%ADD147R,0.03359X0.04147*%
%ADD148R,0.02828X0.03162*%
%ADD149R,0.03162X0.02828*%
%ADD150R,0.04400X0.04500*%
%ADD151R,0.04500X0.04400*%
%ADD153O,0.07099X0.04343*%
%ADD154C,0.00800*%
%ADD155C,0.06800*%
%ADD156R,0.06800X0.06800*%
%ADD157C,0.02768*%
G04:AMPARAMS|DCode=159|XSize=14.11mil|YSize=10.58mil|CornerRadius=0mil|HoleSize=0mil|Usage=FLASHONLY|Rotation=315.000|XOffset=0mil|YOffset=0mil|HoleType=Round|Shape=Rectangle|*
%AMROTATEDRECTD159*
4,1,4,-0.00873,0.00125,-0.00125,0.00873,0.00873,-0.00125,0.00125,-0.00873,-0.00873,0.00125,0.0*
%
%ADD159ROTATEDRECTD159*%

G04:AMPARAMS|DCode=160|XSize=14.11mil|YSize=10.58mil|CornerRadius=0mil|HoleSize=0mil|Usage=FLASHONLY|Rotation=45.000|XOffset=0mil|YOffset=0mil|HoleType=Round|Shape=Rectangle|*
%AMROTATEDRECTD160*
4,1,4,-0.00125,-0.00873,-0.00873,-0.00125,0.00125,0.00873,0.00873,0.00125,-0.00125,-0.00873,0.0*
%
%ADD160ROTATEDRECTD160*%

%ADD161P,0.03461X4X270.0*%
%ADD162R,0.02959X0.01187*%
%ADD163R,0.01187X0.02959*%
%ADD164R,0.01187X0.03353*%
G04:AMPARAMS|DCode=165|XSize=39.5mil|YSize=39.5mil|CornerRadius=19.75mil|HoleSize=0mil|Usage=FLASHONLY|Rotation=90.000|XOffset=0mil|YOffset=0mil|HoleType=Round|Shape=RoundedRectangle|*
%AMROUNDEDRECTD165*
21,1,0.03950,0.00000,0,0,90.0*
21,1,0.00000,0.03950,0,0,90.0*
1,1,0.03950,0.00000,0.00000*
1,1,0.03950,0.00000,0.00000*
1,1,0.03950,0.00000,0.00000*
1,1,0.03950,0.00000,0.00000*
%
%ADD165ROUNDEDRECTD165*%
%ADD166R,0.07290X0.06817*%
%ADD167R,0.03156X0.01581*%
%ADD168R,0.12611X0.04737*%
%ADD169R,0.05131X0.04737*%
%ADD170R,0.01968X0.03937*%
%ADD171R,0.03950X0.01784*%
%ADD172R,0.01784X0.03950*%
%ADD173R,0.03274X0.01581*%
%ADD174R,0.01581X0.03274*%
%ADD175R,0.10243X0.10243*%
%ADD176R,0.03556X0.01194*%
G04:AMPARAMS|DCode=177|XSize=13.51mil|YSize=27.68mil|CornerRadius=6.76mil|HoleSize=0mil|Usage=FLASHONLY|Rotation=180.000|XOffset=0mil|YOffset=0mil|HoleType=Round|Shape=RoundedRectangle|*
%AMROUNDEDRECTD177*
21,1,0.01351,0.01417,0,0,180.0*
21,1,0.00000,0.02768,0,0,180.0*
1,1,0.01351,0.00000,0.00709*
1,1,0.01351,0.00000,0.00709*
1,1,0.01351,0.00000,-0.00709*
1,1,0.01351,0.00000,-0.00709*
%
%ADD177ROUNDEDRECTD177*%
%ADD178R,0.12020X0.07021*%
G04:AMPARAMS|DCode=179|XSize=16.54mil|YSize=60.63mil|CornerRadius=0mil|HoleSize=0mil|Usage=FLASHONLY|Rotation=135.000|XOffset=0mil|YOffset=0mil|HoleType=Round|Shape=Round|*
%AMOVALD179*
21,1,0.04409,0.01654,0.00000,0.00000,225.0*
1,1,0.01654,0.01559,0.01559*
1,1,0.01654,-0.01559,-0.01559*
%
%ADD179OVALD179*%

G04:AMPARAMS|DCode=180|XSize=16.54mil|YSize=60.63mil|CornerRadius=0mil|HoleSize=0mil|Usage=FLASHONLY|Rotation=45.000|XOffset=0mil|YOffset=0mil|HoleType=Round|Shape=Round|*
%AMOVALD180*
21,1,0.04409,0.01654,0.00000,0.00000,135.0*
1,1,0.01654,0.01559,-0.01559*
1,1,0.01654,-0.01559,0.01559*
%
%ADD180OVALD180*%

G04:AMPARAMS|DCode=181|XSize=16.54mil|YSize=60.63mil|CornerRadius=8.27mil|HoleSize=0mil|Usage=FLASHONLY|Rotation=135.000|XOffset=0mil|YOffset=0mil|HoleType=Round|Shape=RoundedRectangle|*
%AMROUNDEDRECTD181*
21,1,0.01654,0.04409,0,0,135.0*
21,1,0.00000,0.06063,0,0,135.0*
1,1,0.01654,0.01559,0.01559*
1,1,0.01654,0.01559,0.01559*
1,1,0.01654,-0.01559,-0.01559*
1,1,0.01654,-0.01559,-0.01559*
%
%ADD181ROUNDEDRECTD181*%
%ADD182R,0.02768X0.03556*%
%ADD183R,0.03950X0.04343*%
%ADD184R,0.04737X0.02768*%
%ADD185R,0.14186X0.04658*%
%ADD186R,0.11800X0.07100*%
%ADD187R,0.05524X0.05524*%
%ADD188R,0.02768X0.04737*%
%ADD189C,0.10100*%
G36*
X159505Y62409D02*
X159543Y62397D01*
X159578Y62379D01*
X159608Y62354D01*
X159633Y62323D01*
X159652Y62289D01*
X159663Y62251D01*
X159667Y62212D01*
Y61188D01*
X159663Y61149D01*
X159652Y61111D01*
X159633Y61076D01*
X159608Y61046D01*
X159578Y61021D01*
X159543Y61002D01*
X159505Y60991D01*
X159466Y60987D01*
X157931D01*
X157891Y60991D01*
X157854Y61002D01*
X157819Y61021D01*
X157789Y61046D01*
X157764Y61076D01*
X157745Y61111D01*
X157734Y61149D01*
X157730Y61188D01*
Y61621D01*
X157734Y61660D01*
X157745Y61698D01*
X157764Y61733D01*
X157789Y61763D01*
X157789Y61763D01*
X158379Y62354D01*
X158410Y62379D01*
X158444Y62397D01*
X158482Y62409D01*
X158521Y62413D01*
X159466D01*
X159505Y62409D01*
D02*
G37*
G36*
X155726D02*
X155763Y62397D01*
X155798Y62379D01*
X155829Y62354D01*
X156419Y61763D01*
X156419Y61763D01*
X156444Y61733D01*
X156463Y61698D01*
X156474Y61660D01*
X156478Y61621D01*
Y61188D01*
X156474Y61149D01*
X156463Y61111D01*
X156444Y61076D01*
X156419Y61046D01*
X156389Y61021D01*
X156354Y61002D01*
X156316Y60991D01*
X156277Y60987D01*
X154742D01*
X154702Y60991D01*
X154665Y61002D01*
X154630Y61021D01*
X154600Y61046D01*
X154575Y61076D01*
X154556Y61111D01*
X154545Y61149D01*
X154541Y61188D01*
Y62212D01*
X154545Y62251D01*
X154556Y62289D01*
X154575Y62323D01*
X154600Y62354D01*
X154630Y62379D01*
X154665Y62397D01*
X154702Y62409D01*
X154742Y62413D01*
X155687D01*
X155726Y62409D01*
D02*
G37*
G36*
X159505Y64968D02*
X159543Y64956D01*
X159578Y64938D01*
X159608Y64913D01*
X159633Y64882D01*
X159652Y64848D01*
X159663Y64810D01*
X159667Y64771D01*
Y63747D01*
X159663Y63708D01*
X159652Y63670D01*
X159633Y63636D01*
X159608Y63605D01*
X159578Y63580D01*
X159543Y63562D01*
X159505Y63550D01*
X159466Y63546D01*
X158521D01*
X158482Y63550D01*
X158444Y63562D01*
X158410Y63580D01*
X158379Y63605D01*
X157789Y64196D01*
X157789Y64196D01*
X157764Y64226D01*
X157745Y64261D01*
X157734Y64299D01*
X157730Y64338D01*
Y64771D01*
X157734Y64810D01*
X157745Y64848D01*
X157764Y64882D01*
X157789Y64913D01*
X157819Y64938D01*
X157854Y64956D01*
X157891Y64968D01*
X157931Y64972D01*
X159466D01*
X159505Y64968D01*
D02*
G37*
G36*
X156316D02*
X156354Y64956D01*
X156389Y64938D01*
X156419Y64913D01*
X156444Y64882D01*
X156463Y64848D01*
X156474Y64810D01*
X156478Y64771D01*
Y64338D01*
X156474Y64299D01*
X156463Y64261D01*
X156444Y64226D01*
X156419Y64196D01*
X156419Y64196D01*
X155829Y63605D01*
X155798Y63580D01*
X155763Y63562D01*
X155726Y63550D01*
X155687Y63546D01*
X154742D01*
X154702Y63550D01*
X154665Y63562D01*
X154630Y63580D01*
X154600Y63605D01*
X154575Y63636D01*
X154556Y63670D01*
X154545Y63708D01*
X154541Y63747D01*
Y64771D01*
X154545Y64810D01*
X154556Y64848D01*
X154575Y64882D01*
X154600Y64913D01*
X154630Y64938D01*
X154665Y64956D01*
X154702Y64968D01*
X154742Y64972D01*
X156277D01*
X156316Y64968D01*
D02*
G37*
D59*
X202298Y66834D02*
D03*
X206629D02*
D03*
Y63000D02*
D03*
X202298D02*
D03*
X75700Y55500D02*
D03*
X81984Y55300D02*
D03*
X133500Y60700D02*
D03*
X133000Y57000D02*
D03*
X196600Y71600D02*
D03*
X95800Y27700D02*
D03*
X98000Y24500D02*
D03*
X95000Y23000D02*
D03*
X92300Y31700D02*
D03*
X98900Y28400D02*
D03*
X74100Y16900D02*
D03*
X68700Y28400D02*
D03*
X62900Y61000D02*
D03*
X201500Y49800D02*
D03*
X200000Y33500D02*
D03*
X196063D02*
D03*
X198031D02*
D03*
X196063Y30500D02*
D03*
X198031D02*
D03*
X2500Y40500D02*
D03*
X54600Y40800D02*
D03*
X54400Y51000D02*
D03*
X62500Y21100D02*
D03*
X14500Y71500D02*
D03*
X51500Y61000D02*
D03*
X102500Y8000D02*
D03*
X93000Y7500D02*
D03*
X193100Y10800D02*
D03*
X196500Y3500D02*
D03*
X141500Y48000D02*
D03*
X141000Y52000D02*
D03*
X162000Y56800D02*
D03*
X164500Y55200D02*
D03*
X67016Y42984D02*
D03*
Y39047D02*
D03*
X99900Y32300D02*
D03*
X95000Y37000D02*
D03*
X184000Y47000D02*
D03*
X99000Y45000D02*
D03*
Y41000D02*
D03*
X138000Y60000D02*
D03*
X142000Y57000D02*
D03*
X129000Y40000D02*
D03*
X128000Y44000D02*
D03*
X125000Y41000D02*
D03*
X129500Y48000D02*
D03*
X133500D02*
D03*
X129500Y52000D02*
D03*
X124000Y36000D02*
D03*
X141900Y59800D02*
D03*
X137500Y48000D02*
D03*
X146000Y52000D02*
D03*
X127000Y28000D02*
D03*
X129500Y36000D02*
D03*
X128500Y32000D02*
D03*
X132500Y28000D02*
D03*
Y24000D02*
D03*
Y20000D02*
D03*
X128500Y24000D02*
D03*
X103000Y40000D02*
D03*
X133500Y52000D02*
D03*
X33000Y7000D02*
D03*
X78000Y59000D02*
D03*
Y63000D02*
D03*
X58100Y28800D02*
D03*
X129500Y56500D02*
D03*
X175700Y69900D02*
D03*
X202200Y76900D02*
D03*
X11800Y31200D02*
D03*
X92000Y63000D02*
D03*
X95000Y44300D02*
D03*
X176000Y64000D02*
D03*
X168700Y64100D02*
D03*
X70000Y52600D02*
D03*
X87000Y63000D02*
D03*
X83000Y72000D02*
D03*
X123500Y63200D02*
D03*
X67100Y59300D02*
D03*
X194200Y55100D02*
D03*
X179500Y48600D02*
D03*
X169500Y69800D02*
D03*
X210300Y39500D02*
D03*
X205100Y47300D02*
D03*
X211800Y75500D02*
D03*
X210800Y55100D02*
D03*
X154000Y40000D02*
D03*
X154500Y44000D02*
D03*
X148000Y32000D02*
D03*
X158660Y57500D02*
D03*
X106900Y19100D02*
D03*
X14000Y12000D02*
D03*
X3400Y16500D02*
D03*
X17100Y21700D02*
D03*
X12700Y25500D02*
D03*
X11400Y42200D02*
D03*
X3000Y49500D02*
D03*
X4000Y58500D02*
D03*
X133600Y9700D02*
D03*
X187500Y46000D02*
D03*
Y48500D02*
D03*
X200000Y30500D02*
D03*
X201969D02*
D03*
Y33500D02*
D03*
X183000Y70500D02*
D03*
X171500Y21000D02*
D03*
X175500Y57700D02*
D03*
X163500Y72500D02*
D03*
X148000Y28000D02*
D03*
X152000Y30000D02*
D03*
X141500Y19800D02*
D03*
X152000Y15870D02*
D03*
X106500Y28000D02*
D03*
Y44500D02*
D03*
X174500Y49000D02*
D03*
X165000Y64000D02*
D03*
X170700Y51400D02*
D03*
X150000Y44000D02*
D03*
X123000Y71500D02*
D03*
X145500Y48000D02*
D03*
X152500Y71000D02*
D03*
X153500Y34000D02*
D03*
X167500Y39500D02*
D03*
X122500Y11500D02*
D03*
X99500Y19100D02*
D03*
X88800Y19300D02*
D03*
X167500Y44000D02*
D03*
X161800Y22300D02*
D03*
X113500Y60500D02*
D03*
X124000Y32000D02*
D03*
X177000Y54100D02*
D03*
X78000Y17000D02*
D03*
X65400Y19200D02*
D03*
X53500Y19000D02*
D03*
X48400Y17200D02*
D03*
X56900Y32100D02*
D03*
X72000Y59000D02*
D03*
X89000D02*
D03*
X40300Y60700D02*
D03*
X182500Y22500D02*
D03*
X182000Y19000D02*
D03*
X142400Y9500D02*
D03*
X167700Y35400D02*
D03*
X43000Y7000D02*
D03*
X205200Y76900D02*
D03*
X208900D02*
D03*
X89700Y55200D02*
D03*
X98000Y55335D02*
D03*
X36600Y31700D02*
D03*
X36800Y47800D02*
D03*
X121600Y16400D02*
D03*
X138000Y56000D02*
D03*
X62200Y39000D02*
D03*
X182600Y26000D02*
D03*
X196400Y7000D02*
D03*
X214500Y3500D02*
D03*
X212000D02*
D03*
X137000Y64400D02*
D03*
X95000Y40800D02*
D03*
X138000Y69000D02*
D03*
X63300Y44700D02*
D03*
X61200Y42000D02*
D03*
X84700Y56600D02*
D03*
X85000Y23600D02*
D03*
X81700Y23300D02*
D03*
D60*
X18900Y67362D02*
D03*
D79*
X81000Y42000D02*
D03*
D147*
X96300Y62238D02*
D03*
Y66962D02*
D03*
D148*
X82482Y15700D02*
D03*
X86518D02*
D03*
X70018Y56000D02*
D03*
X65982D02*
D03*
X158018Y67500D02*
D03*
X153982D02*
D03*
X202081Y22863D02*
D03*
X198045D02*
D03*
X205545D02*
D03*
X209581D02*
D03*
X74018Y63000D02*
D03*
X69982D02*
D03*
X78982Y67000D02*
D03*
X83018D02*
D03*
X108518Y24500D02*
D03*
X104482D02*
D03*
X167789Y24000D02*
D03*
X163754D02*
D03*
X158982Y13000D02*
D03*
X163018D02*
D03*
X61218Y16000D02*
D03*
X57182D02*
D03*
X87982Y23000D02*
D03*
X92018D02*
D03*
X167982Y57300D02*
D03*
X172018D02*
D03*
X101482Y15700D02*
D03*
X105518D02*
D03*
X86982Y67000D02*
D03*
X91018D02*
D03*
X208482Y48100D02*
D03*
X212518D02*
D03*
X208482Y51600D02*
D03*
X212518D02*
D03*
X98018Y15700D02*
D03*
X93982D02*
D03*
X166518Y68000D02*
D03*
X162482D02*
D03*
X169018Y60800D02*
D03*
X164982D02*
D03*
X86482Y15700D02*
D03*
X90518D02*
D03*
D149*
X201700Y42482D02*
D03*
Y46518D02*
D03*
X161800Y64018D02*
D03*
Y59982D02*
D03*
X93000Y59018D02*
D03*
Y54982D02*
D03*
X64300Y47982D02*
D03*
Y52018D02*
D03*
X188500Y63982D02*
D03*
Y68018D02*
D03*
X155500Y16018D02*
D03*
Y11982D02*
D03*
X188500Y60618D02*
D03*
Y56582D02*
D03*
X192600Y64065D02*
D03*
Y68100D02*
D03*
D150*
X59200Y55650D02*
D03*
Y49550D02*
D03*
D151*
X51650Y65700D02*
D03*
X45550D02*
D03*
X208150Y13400D02*
D03*
X202050D02*
D03*
X212050Y43500D02*
D03*
X205950D02*
D03*
X167150Y17900D02*
D03*
X161050D02*
D03*
X191450Y48000D02*
D03*
X197550D02*
D03*
X191450Y42500D02*
D03*
X197550D02*
D03*
X208150Y4500D02*
D03*
X202050D02*
D03*
X208150Y18400D02*
D03*
X202050D02*
D03*
D153*
X212300Y9008D02*
D03*
Y34992D02*
D03*
D154*
X46677Y54233D02*
D03*
X14000Y18800D02*
D03*
D155*
X18000Y5000D02*
D03*
X28000D02*
D03*
X38000D02*
D03*
X48000D02*
D03*
X58000D02*
D03*
X68000D02*
D03*
X78000D02*
D03*
X88000D02*
D03*
X98000D02*
D03*
X108000D02*
D03*
X118000D02*
D03*
X128000D02*
D03*
X178000D02*
D03*
X168000D02*
D03*
X158000D02*
D03*
X148000D02*
D03*
X138000D02*
D03*
X18000Y75000D02*
D03*
X28000D02*
D03*
X38000D02*
D03*
X48000D02*
D03*
X58000D02*
D03*
X68000D02*
D03*
X78000D02*
D03*
X88000D02*
D03*
X98000D02*
D03*
X108000D02*
D03*
X118000D02*
D03*
X128000D02*
D03*
X178000D02*
D03*
X168000D02*
D03*
X158000D02*
D03*
X148000D02*
D03*
X138000D02*
D03*
D156*
X188000Y5000D02*
D03*
Y75000D02*
D03*
D157*
X76669Y37669D02*
D03*
X81000D02*
D03*
X85331D02*
D03*
X76669Y42000D02*
D03*
X81000D02*
D03*
X85331D02*
D03*
X76669Y46331D02*
D03*
X81000D02*
D03*
X85331D02*
D03*
D159*
X157635Y62514D02*
D03*
X156573Y63445D02*
D03*
D160*
X157635Y63445D02*
D03*
X156573Y62514D02*
D03*
D161*
X157104Y62980D02*
D03*
D162*
X69374Y25762D02*
D03*
Y24187D02*
D03*
Y22613D02*
D03*
Y21038D02*
D03*
X78626D02*
D03*
Y22613D02*
D03*
Y24187D02*
D03*
Y25762D02*
D03*
D163*
X73213Y20349D02*
D03*
X71638D02*
D03*
X74787D02*
D03*
X76362D02*
D03*
Y26451D02*
D03*
X74787D02*
D03*
X73213D02*
D03*
D164*
X71638Y26254D02*
D03*
D165*
X103000Y40000D02*
D03*
X192000Y19500D02*
D03*
X175000Y25500D02*
D03*
X211400Y56200D02*
D03*
X73800Y55900D02*
D03*
X62500Y21100D02*
D03*
X85000Y59700D02*
D03*
X56800Y60900D02*
D03*
X17200Y62200D02*
D03*
X78600Y13300D02*
D03*
X103115Y29601D02*
D03*
D166*
X178000Y64500D02*
D03*
D167*
X172291Y67453D02*
D03*
Y65484D02*
D03*
Y63516D02*
D03*
Y61547D02*
D03*
X183709D02*
D03*
Y63516D02*
D03*
Y65484D02*
D03*
Y67453D02*
D03*
D168*
X30339Y56989D02*
D03*
Y15257D02*
D03*
D169*
X53567Y46123D02*
D03*
Y36123D02*
D03*
Y26123D02*
D03*
X7110Y46123D02*
D03*
Y36123D02*
D03*
Y26123D02*
D03*
D170*
X65959Y25469D02*
D03*
X63400D02*
D03*
X60841D02*
D03*
Y34131D02*
D03*
X65959D02*
D03*
D171*
X71453Y35110D02*
D03*
Y37079D02*
D03*
Y39047D02*
D03*
Y41016D02*
D03*
Y42984D02*
D03*
Y44953D02*
D03*
Y46921D02*
D03*
Y48890D02*
D03*
X90547D02*
D03*
Y46921D02*
D03*
Y44953D02*
D03*
Y42984D02*
D03*
Y41016D02*
D03*
Y39047D02*
D03*
Y37079D02*
D03*
Y35110D02*
D03*
D172*
X74110Y51547D02*
D03*
X76079D02*
D03*
X78047D02*
D03*
X80016D02*
D03*
X81984D02*
D03*
X83953D02*
D03*
X85921D02*
D03*
X87890D02*
D03*
Y32453D02*
D03*
X85921D02*
D03*
X83953D02*
D03*
X81984D02*
D03*
X80016D02*
D03*
X78047D02*
D03*
X76079D02*
D03*
X74110D02*
D03*
D173*
X196728Y60732D02*
D03*
Y62700D02*
D03*
Y64669D02*
D03*
Y66637D02*
D03*
Y68606D02*
D03*
X212200D02*
D03*
Y66637D02*
D03*
Y64669D02*
D03*
Y62700D02*
D03*
Y60732D02*
D03*
D174*
X200527Y72405D02*
D03*
X202495D02*
D03*
X204464D02*
D03*
X206432D02*
D03*
X208401D02*
D03*
Y56932D02*
D03*
X206432D02*
D03*
X204464D02*
D03*
X202495D02*
D03*
X200527D02*
D03*
D175*
X204464Y64669D02*
D03*
D176*
X206150Y31457D02*
D03*
X191976D02*
D03*
Y33268D02*
D03*
X206150D02*
D03*
X191976Y35080D02*
D03*
X206150D02*
D03*
X191976Y29647D02*
D03*
X206150D02*
D03*
D177*
X204969Y26851D02*
D03*
X203000D02*
D03*
X201032D02*
D03*
X199063D02*
D03*
X197094D02*
D03*
X195126D02*
D03*
X193157D02*
D03*
Y37875D02*
D03*
X195126D02*
D03*
X197094D02*
D03*
X199063D02*
D03*
X201032D02*
D03*
X203000D02*
D03*
X204969D02*
D03*
D178*
X199063Y32363D02*
D03*
D179*
X163908Y44829D02*
D03*
X162516Y46220D02*
D03*
X161124Y47613D02*
D03*
X159732Y49004D02*
D03*
X158340Y50396D02*
D03*
X156948Y51788D02*
D03*
X155556Y53180D02*
D03*
X154164Y54572D02*
D03*
X152772Y55964D02*
D03*
X151380Y57356D02*
D03*
X149988Y58748D02*
D03*
X148596Y60140D02*
D03*
X147204Y61532D02*
D03*
X145812Y62924D02*
D03*
X144421Y64316D02*
D03*
X143029Y65708D02*
D03*
X111292Y33971D02*
D03*
X112684Y32579D02*
D03*
X114076Y31187D02*
D03*
X115468Y29796D02*
D03*
X116860Y28404D02*
D03*
X118252Y27012D02*
D03*
X119644Y25620D02*
D03*
X121036Y24228D02*
D03*
X122428Y22836D02*
D03*
X123820Y21444D02*
D03*
X125212Y20052D02*
D03*
X126604Y18660D02*
D03*
X127996Y17268D02*
D03*
X129387Y15876D02*
D03*
X132171Y13092D02*
D03*
D180*
Y65708D02*
D03*
X130780Y64316D02*
D03*
X129387Y62924D02*
D03*
X127996Y61532D02*
D03*
X126604Y60140D02*
D03*
X125212Y58748D02*
D03*
X123820Y57356D02*
D03*
X122428Y55964D02*
D03*
X121036Y54572D02*
D03*
X119644Y53180D02*
D03*
X118252Y51788D02*
D03*
X116860Y50396D02*
D03*
X115468Y49004D02*
D03*
X114076Y47613D02*
D03*
X112684Y46220D02*
D03*
X111292Y44829D02*
D03*
X143029Y13092D02*
D03*
X144421Y14484D02*
D03*
X145812Y15876D02*
D03*
X147204Y17268D02*
D03*
X148596Y18660D02*
D03*
X149988Y20052D02*
D03*
X151380Y21444D02*
D03*
X152772Y22836D02*
D03*
X154164Y24228D02*
D03*
X155556Y25620D02*
D03*
X156948Y27012D02*
D03*
X158340Y28404D02*
D03*
X159732Y29796D02*
D03*
X161124Y31187D02*
D03*
X162516Y32579D02*
D03*
X163908Y33971D02*
D03*
D181*
X130780Y14484D02*
D03*
D182*
X195824Y76800D02*
D03*
X198776D02*
D03*
D183*
X101835Y49665D02*
D03*
X106165D02*
D03*
X101835Y55335D02*
D03*
X106165D02*
D03*
D184*
X96000Y47335D02*
D03*
Y51665D02*
D03*
D185*
X177000Y42165D02*
D03*
Y32835D02*
D03*
D186*
X6500Y63900D02*
D03*
Y74900D02*
D03*
D187*
X175551Y17039D02*
D03*
X186512Y17000D02*
D03*
D188*
X117465Y16400D02*
D03*
X113135D02*
D03*
D189*
X6000Y6000D02*
D03*
M02*
