G04 Layer_Color=32896*
%FSLAX25Y25*%
%MOIN*%
G70*
G01*
G75*
%ADD36C,0.00500*%
%ADD38C,0.00800*%
%ADD42C,0.00600*%
%ADD115C,0.00394*%
%ADD118C,0.00400*%
%ADD194C,0.00984*%
%ADD195C,0.02362*%
%ADD196C,0.00787*%
%ADD197C,0.00300*%
D36*
X70303Y27991D02*
G03*
X70303Y27991I-142J0D01*
G01*
X208189Y26198D02*
G03*
X208189Y26198I-1000J0D01*
G01*
X99096Y46831D02*
G03*
X99096Y46831I-112J0D01*
G01*
X99484D02*
G03*
X99484Y46831I-500J0D01*
G01*
X155529Y60905D02*
X158679D01*
X155529Y65054D02*
X158679D01*
X68882Y27337D02*
X70457D01*
X68882Y26943D02*
Y27337D01*
X77543D02*
X79118D01*
Y26943D02*
Y27337D01*
Y19463D02*
Y19857D01*
X77543Y19463D02*
X79118D01*
X68882D02*
X70457D01*
X68882D02*
Y19857D01*
X183709Y68634D02*
X183906D01*
X37622Y26674D02*
X41559Y30611D01*
Y42422D01*
X21874D02*
X41559D01*
X21874Y26674D02*
Y42422D01*
Y26674D02*
X37622D01*
X49433Y22737D02*
X53370D01*
Y14863D02*
Y22737D01*
X37622Y14863D02*
X53370D01*
X6126D02*
X21874D01*
X6126D02*
Y22737D01*
X10063D01*
Y50296D01*
X6126D02*
X10063D01*
X6126D02*
Y58170D01*
X21874D01*
X37622D02*
X53370D01*
Y50296D02*
Y58170D01*
X49433Y50296D02*
X53370D01*
X49433Y22737D02*
Y50296D01*
X206150Y38564D02*
X207232D01*
Y36300D02*
Y38564D01*
X206150Y26162D02*
X207232D01*
Y28426D01*
X190894Y36300D02*
Y38564D01*
Y26162D02*
Y28426D01*
Y38564D02*
X191976D01*
X190894Y26162D02*
X191976D01*
X195040Y78800D02*
X199702D01*
X193898Y77540D02*
X195040Y78800D01*
X193898Y76060D02*
X195040Y74800D01*
X193875D02*
Y78800D01*
X195040Y74800D02*
X199702D01*
X98650Y45689D02*
Y53248D01*
X93457D02*
X98650D01*
X93457Y45689D02*
Y53248D01*
Y45689D02*
X98650D01*
X169126Y45374D02*
X184874D01*
Y29626D02*
Y45374D01*
X169126Y29626D02*
Y45374D01*
Y29626D02*
X184874D01*
X752Y58967D02*
Y60699D01*
X-35Y59833D02*
X1618D01*
X94261Y61017D02*
Y66529D01*
X98261Y61017D02*
Y66568D01*
X190055Y13850D02*
Y20150D01*
X177374Y13406D02*
X184646D01*
X177370Y20595D02*
X184642D01*
X189268Y13850D02*
Y20150D01*
X111552Y19050D02*
X119111D01*
X111552Y13857D02*
Y19050D01*
Y13857D02*
X119111D01*
Y19050D01*
X29700Y65200D02*
X30700Y64200D01*
X29700Y63200D02*
X30700Y64200D01*
X26700D02*
X30700D01*
X23700Y60200D02*
Y68200D01*
Y60200D02*
X32700D01*
X34700Y62200D01*
Y68200D01*
X23700D02*
X34700D01*
D38*
X183906Y68634D02*
G03*
X183709Y68634I-99J788D01*
G01*
X67534Y24878D02*
G03*
X67534Y24977I397J50D01*
G01*
X172094Y60366D02*
X183906D01*
X172094Y68634D02*
X183709D01*
X59364Y25567D02*
X59365Y33835D01*
X67435D02*
X67435Y25567D01*
D42*
X82500Y17300D02*
X86500D01*
X82500Y14100D02*
X86500D01*
X203400Y42500D02*
Y46500D01*
X200000Y42500D02*
Y46500D01*
X13000Y2500D02*
Y7500D01*
X35500Y10000D02*
X40500D01*
X33000Y7500D02*
X35500Y10000D01*
X33000Y2500D02*
X35500Y0D01*
X30500Y10000D02*
X33000Y7500D01*
X25500Y10000D02*
X30500D01*
X23000Y7500D02*
X25500Y10000D01*
X23000Y2500D02*
X25500Y0D01*
X30500D01*
X33000Y2500D01*
X50500Y10000D02*
X53000Y7500D01*
X45500Y10000D02*
X50500D01*
X43000Y7500D02*
X45500Y10000D01*
X43000Y2500D02*
X45500Y0D01*
X50500D01*
X53000Y2500D01*
X40500Y10000D02*
X43000Y7500D01*
X40500Y0D02*
X43000Y2500D01*
X35500Y0D02*
X40500D01*
X15500Y10000D02*
X20500D01*
X13000Y7500D02*
X15500Y10000D01*
X13000Y2500D02*
X15500Y0D01*
X20500Y10000D02*
X23000Y7500D01*
X20500Y0D02*
X23000Y2500D01*
X15500Y0D02*
X20500D01*
X75500Y10000D02*
X80500D01*
X73000Y7500D02*
X75500Y10000D01*
X73000Y2500D02*
X75500Y0D01*
X70500Y10000D02*
X73000Y7500D01*
X65500Y10000D02*
X70500D01*
X63000Y7500D02*
X65500Y10000D01*
X63000Y2500D02*
X65500Y0D01*
X70500D01*
X73000Y2500D01*
X90500Y10000D02*
X93000Y7500D01*
X85500Y10000D02*
X90500D01*
X83000Y7500D02*
X85500Y10000D01*
X83000Y2500D02*
X85500Y0D01*
X90500D01*
X93000Y2500D01*
X80500Y10000D02*
X83000Y7500D01*
X80500Y0D02*
X83000Y2500D01*
X75500Y0D02*
X80500D01*
X55500Y10000D02*
X60500D01*
X53000Y7500D02*
X55500Y10000D01*
X53000Y2500D02*
X55500Y0D01*
X60500Y10000D02*
X63000Y7500D01*
X60500Y0D02*
X63000Y2500D01*
X55500Y0D02*
X60500D01*
X115500Y10000D02*
X120500D01*
X113000Y7500D02*
X115500Y10000D01*
X113000Y2500D02*
X115500Y0D01*
X110500Y10000D02*
X113000Y7500D01*
X105500Y10000D02*
X110500D01*
X103000Y7500D02*
X105500Y10000D01*
X103000Y2500D02*
X105500Y0D01*
X110500D01*
X113000Y2500D01*
X130500Y10000D02*
X133000Y7500D01*
X125500Y10000D02*
X130500D01*
X123000Y7500D02*
X125500Y10000D01*
X123000Y2500D02*
X125500Y0D01*
X130500D01*
X133000Y2500D01*
X120500Y10000D02*
X123000Y7500D01*
X120500Y0D02*
X123000Y2500D01*
X115500Y0D02*
X120500D01*
X95500Y10000D02*
X100500D01*
X93000Y7500D02*
X95500Y10000D01*
X93000Y2500D02*
X95500Y0D01*
X100500Y10000D02*
X103000Y7500D01*
X100500Y0D02*
X103000Y2500D01*
X95500Y0D02*
X100500D01*
X135500D02*
X140500D01*
X143000Y2500D01*
X140500Y10000D02*
X143000Y7500D01*
X133000Y2500D02*
X135500Y0D01*
X133000Y7500D02*
X135500Y10000D01*
X140500D01*
X185500Y0D02*
X190500D01*
X193000Y2500D01*
X190500Y10000D02*
X193000Y7500D01*
Y2500D02*
Y7500D01*
X180500Y0D02*
X183000Y2500D01*
X175500Y0D02*
X180500D01*
X173000Y2500D02*
X175500Y0D01*
X173000Y7500D02*
X175500Y10000D01*
X180500D01*
X183000Y7500D01*
Y2500D02*
X185500Y0D01*
X183000Y7500D02*
X185500Y10000D01*
X190500D01*
X155500Y0D02*
X160500D01*
X163000Y2500D01*
X160500Y10000D02*
X163000Y7500D01*
X170500Y0D02*
X173000Y2500D01*
X165500Y0D02*
X170500D01*
X163000Y2500D02*
X165500Y0D01*
X163000Y7500D02*
X165500Y10000D01*
X170500D01*
X173000Y7500D01*
X150500Y0D02*
X153000Y2500D01*
X145500Y0D02*
X150500D01*
X143000Y2500D02*
X145500Y0D01*
X143000Y7500D02*
X145500Y10000D01*
X150500D01*
X153000Y7500D01*
Y2500D02*
X155500Y0D01*
X153000Y7500D02*
X155500Y10000D01*
X160500D01*
X13000Y72500D02*
Y77500D01*
X35500Y80000D02*
X40500D01*
X33000Y77500D02*
X35500Y80000D01*
X33000Y72500D02*
X35500Y70000D01*
X30500Y80000D02*
X33000Y77500D01*
X25500Y80000D02*
X30500D01*
X23000Y77500D02*
X25500Y80000D01*
X23000Y72500D02*
X25500Y70000D01*
X30500D01*
X33000Y72500D01*
X50500Y80000D02*
X53000Y77500D01*
X45500Y80000D02*
X50500D01*
X43000Y77500D02*
X45500Y80000D01*
X43000Y72500D02*
X45500Y70000D01*
X50500D01*
X53000Y72500D01*
X40500Y80000D02*
X43000Y77500D01*
X40500Y70000D02*
X43000Y72500D01*
X35500Y70000D02*
X40500D01*
X15500Y80000D02*
X20500D01*
X13000Y77500D02*
X15500Y80000D01*
X13000Y72500D02*
X15500Y70000D01*
X20500Y80000D02*
X23000Y77500D01*
X20500Y70000D02*
X23000Y72500D01*
X15500Y70000D02*
X20500D01*
X75500Y80000D02*
X80500D01*
X73000Y77500D02*
X75500Y80000D01*
X73000Y72500D02*
X75500Y70000D01*
X70500Y80000D02*
X73000Y77500D01*
X65500Y80000D02*
X70500D01*
X63000Y77500D02*
X65500Y80000D01*
X63000Y72500D02*
X65500Y70000D01*
X70500D01*
X73000Y72500D01*
X90500Y80000D02*
X93000Y77500D01*
X85500Y80000D02*
X90500D01*
X83000Y77500D02*
X85500Y80000D01*
X83000Y72500D02*
X85500Y70000D01*
X90500D01*
X93000Y72500D01*
X80500Y80000D02*
X83000Y77500D01*
X80500Y70000D02*
X83000Y72500D01*
X75500Y70000D02*
X80500D01*
X55500Y80000D02*
X60500D01*
X53000Y77500D02*
X55500Y80000D01*
X53000Y72500D02*
X55500Y70000D01*
X60500Y80000D02*
X63000Y77500D01*
X60500Y70000D02*
X63000Y72500D01*
X55500Y70000D02*
X60500D01*
X115500Y80000D02*
X120500D01*
X113000Y77500D02*
X115500Y80000D01*
X113000Y72500D02*
X115500Y70000D01*
X110500Y80000D02*
X113000Y77500D01*
X105500Y80000D02*
X110500D01*
X103000Y77500D02*
X105500Y80000D01*
X103000Y72500D02*
X105500Y70000D01*
X110500D01*
X113000Y72500D01*
X130500Y80000D02*
X133000Y77500D01*
X125500Y80000D02*
X130500D01*
X123000Y77500D02*
X125500Y80000D01*
X123000Y72500D02*
X125500Y70000D01*
X130500D01*
X133000Y72500D01*
X120500Y80000D02*
X123000Y77500D01*
X120500Y70000D02*
X123000Y72500D01*
X115500Y70000D02*
X120500D01*
X95500Y80000D02*
X100500D01*
X93000Y77500D02*
X95500Y80000D01*
X93000Y72500D02*
X95500Y70000D01*
X100500Y80000D02*
X103000Y77500D01*
X100500Y70000D02*
X103000Y72500D01*
X95500Y70000D02*
X100500D01*
X135500D02*
X140500D01*
X143000Y72500D01*
X140500Y80000D02*
X143000Y77500D01*
X133000Y72500D02*
X135500Y70000D01*
X133000Y77500D02*
X135500Y80000D01*
X140500D01*
X185500Y70000D02*
X190500D01*
X193000Y72500D01*
X190500Y80000D02*
X193000Y77500D01*
Y72500D02*
Y77500D01*
X180500Y70000D02*
X183000Y72500D01*
X175500Y70000D02*
X180500D01*
X173000Y72500D02*
X175500Y70000D01*
X173000Y77500D02*
X175500Y80000D01*
X180500D01*
X183000Y77500D01*
Y72500D02*
X185500Y70000D01*
X183000Y77500D02*
X185500Y80000D01*
X190500D01*
X155500Y70000D02*
X160500D01*
X163000Y72500D01*
X160500Y80000D02*
X163000Y77500D01*
X170500Y70000D02*
X173000Y72500D01*
X165500Y70000D02*
X170500D01*
X163000Y72500D02*
X165500Y70000D01*
X163000Y77500D02*
X165500Y80000D01*
X170500D01*
X173000Y77500D01*
X150500Y70000D02*
X153000Y72500D01*
X145500Y70000D02*
X150500D01*
X143000Y72500D02*
X145500Y70000D01*
X143000Y77500D02*
X145500Y80000D01*
X150500D01*
X153000Y77500D01*
Y72500D02*
X155500Y70000D01*
X153000Y77500D02*
X155500Y80000D01*
X160500D01*
X66000Y54400D02*
X70000D01*
X66000Y57600D02*
X70000D01*
X160100Y60000D02*
Y64000D01*
X163500Y60000D02*
Y64000D01*
X154000Y69200D02*
X158000D01*
X154000Y65800D02*
X158000D01*
X198063Y21263D02*
X202063D01*
X198063Y24463D02*
X202063D01*
X205563D02*
X209563D01*
X205563Y21263D02*
X209563D01*
X70000Y61400D02*
X74000D01*
X70000Y64600D02*
X74000D01*
X94600Y55000D02*
Y59000D01*
X91400Y55000D02*
Y59000D01*
X79000Y65300D02*
X83000D01*
X79000Y68700D02*
X83000D01*
X66000Y48000D02*
Y52000D01*
X62600Y48000D02*
Y52000D01*
X104500Y26200D02*
X108500D01*
X104500Y22800D02*
X108500D01*
X163772Y25700D02*
X167772D01*
X163772Y22300D02*
X167772D01*
X159000Y11300D02*
X163000D01*
X159000Y14700D02*
X163000D01*
X190200Y64000D02*
Y68000D01*
X186800Y64000D02*
Y68000D01*
X57200Y17700D02*
X61200D01*
X57200Y14300D02*
X61200D01*
X88000Y21300D02*
X92000D01*
X88000Y24700D02*
X92000D01*
X168000Y55600D02*
X172000D01*
X168000Y59000D02*
X172000D01*
X101500Y14000D02*
X105500D01*
X101500Y17400D02*
X105500D01*
X87000Y65300D02*
X91000D01*
X87000Y68700D02*
X91000D01*
X208500Y49700D02*
X212500D01*
X208500Y46500D02*
X212500D01*
X208500Y53200D02*
X212500D01*
X208500Y50000D02*
X212500D01*
X94000Y14100D02*
X98000D01*
X94000Y17300D02*
X98000D01*
X157100Y12000D02*
Y16000D01*
X153900Y12000D02*
Y16000D01*
X162500Y66400D02*
X166500D01*
X162500Y69600D02*
X166500D01*
X165000Y59200D02*
X169000D01*
X165000Y62400D02*
X169000D01*
X190100Y56600D02*
Y60600D01*
X186900Y56600D02*
Y60600D01*
X86500Y17300D02*
X90500D01*
X86500Y14100D02*
X90500D01*
X191000Y64082D02*
Y68082D01*
X194200Y64082D02*
Y68082D01*
D115*
X188677Y20543D02*
G03*
X188677Y20543I-197J0D01*
G01*
D118*
X159316Y65369D02*
G03*
X159316Y65369I-200J0D01*
G01*
X47100Y63200D02*
X50100D01*
X47100Y68200D02*
X50100D01*
X203600Y10900D02*
X206600D01*
X203600Y15900D02*
X206600D01*
X207500Y41000D02*
X210500D01*
X207500Y46000D02*
X210500D01*
X162600Y15400D02*
X165600D01*
X162600Y20400D02*
X165600D01*
X61700Y51100D02*
Y54100D01*
X56700Y51100D02*
Y54100D01*
X193000Y50500D02*
X196000D01*
X193000Y45500D02*
X196000D01*
X193000Y45000D02*
X196000D01*
X193000Y40000D02*
X196000D01*
X203600Y2000D02*
X206600D01*
X203600Y7000D02*
X206600D01*
X203600Y15900D02*
X206600D01*
X203600Y20900D02*
X206600D01*
D194*
X68500Y32157D02*
G03*
X68500Y32157I-492J0D01*
G01*
X195606Y57877D02*
G03*
X195606Y57877I-295J0D01*
G01*
X166349Y35920D02*
G03*
X166349Y35920I-492J0D01*
G01*
D195*
X158825Y39400D02*
G03*
X158825Y39400I-1181J0D01*
G01*
D196*
X70567Y31567D02*
Y33043D01*
Y31567D02*
X72043D01*
X89957D02*
X91433D01*
Y33043D01*
Y50957D02*
Y52433D01*
X89957D02*
X91433D01*
X70567Y50957D02*
Y52433D01*
X72043D01*
X196787Y70672D02*
Y72543D01*
X198460D01*
X196590Y56991D02*
X198460D01*
X196590D02*
Y58665D01*
X212141Y56795D02*
Y58665D01*
X210468Y56795D02*
X212141D01*
X212338Y70672D02*
Y72346D01*
X210468D02*
X212338D01*
X111988Y39400D02*
X137600Y13788D01*
Y65012D02*
X163212Y39400D01*
X111988D02*
X137600Y65012D01*
Y13788D02*
X163212Y39400D01*
D197*
X500Y60900D02*
Y77900D01*
X12500Y60900D02*
Y77900D01*
M02*
