G04 Layer_Physical_Order=7*
G04 Layer_Color=16737945*
%FSLAX25Y25*%
%MOIN*%
G70*
G01*
G75*
%ADD36C,0.00500*%
%ADD50C,0.06000*%
%ADD55C,0.02200*%
D36*
X99900Y32500D02*
X112500D01*
X164550Y67650D02*
X195650D01*
X146200Y68400D02*
X163800D01*
X143600Y71000D02*
X146200Y68400D01*
X136800Y71000D02*
X143600D01*
X164850Y61150D02*
X193650D01*
X163450Y62550D02*
X164850Y61150D01*
X121085Y57185D02*
X126450Y62550D01*
X97234Y57185D02*
X121085D01*
X88234Y57150D02*
X97199D01*
X97234Y57185D01*
X195650Y67650D02*
X202200Y74200D01*
Y76900D01*
X134200Y68400D02*
X136800Y71000D01*
X97800Y68400D02*
X134200D01*
X94700Y65300D02*
X97800Y68400D01*
X125850Y58850D02*
X136850D01*
X205200Y76900D02*
X205293Y76807D01*
Y74207D02*
Y76807D01*
X208900Y76400D02*
Y76900D01*
X193650Y61150D02*
X208900Y76400D01*
X95800Y32916D02*
X97234Y34350D01*
X75000Y25000D02*
X77700Y27700D01*
X95800D02*
Y32916D01*
X100350Y29850D02*
X128966D01*
X99000Y28500D02*
X100350Y29850D01*
X128966D02*
X139116Y40000D01*
X130500Y26000D02*
X135600D01*
X145600Y36000D02*
X163000D01*
X135600Y26000D02*
X145600Y36000D01*
X112500Y32500D02*
X124000Y44000D01*
X52750Y67000D02*
X78000D01*
X83000Y72000D01*
X101350Y34350D02*
X125850Y58850D01*
X89000Y59000D02*
X92000D01*
X124000Y44000D02*
X128000D01*
X128500Y24000D02*
X130500Y26000D01*
X97234Y34350D02*
X101350D01*
X86884Y58500D02*
X88234Y57150D01*
X78500Y58500D02*
X86884D01*
X78000Y59000D02*
X78500Y58500D01*
X154000Y40000D02*
Y40500D01*
X152000Y42500D02*
X154000Y40500D01*
X152000Y42500D02*
Y53000D01*
X139116Y40000D02*
X154000D01*
X136850Y58850D02*
X138000Y60000D01*
X152000Y24000D02*
Y30000D01*
X181650Y18650D02*
X182000Y19000D01*
X157350Y18650D02*
X181650D01*
X152000Y24000D02*
X157350Y18650D01*
X14000Y12000D02*
X14884D01*
X139500Y54500D02*
X150500D01*
X152000Y53000D01*
X138000Y56000D02*
X139500Y54500D01*
X163000Y36000D02*
X173000Y26000D01*
X182600D01*
X77700Y27700D02*
X95800D01*
X14884Y12000D02*
X27884Y25000D01*
X75000D01*
X153500Y34000D02*
X162800D01*
X174300Y22500D01*
X182500D01*
X163800Y68400D02*
X164550Y67650D01*
X75500Y63800D02*
X77000Y65300D01*
X94700D01*
X92000Y59000D02*
X99250Y66250D01*
X197336D02*
X205293Y74207D01*
X126450Y62550D02*
X163450D01*
X99250Y66250D02*
X197336D01*
X70000Y52600D02*
X75500Y58100D01*
Y63800D01*
X58000Y5000D02*
X64500Y11500D01*
X122500D01*
X12700Y31300D02*
X17050D01*
X52750Y67000D01*
X11800Y30400D02*
X12700Y31300D01*
D50*
X58000Y5000D02*
D03*
D55*
X95800Y27700D02*
D03*
X98900Y28400D02*
D03*
X200000Y33500D02*
D03*
X196063D02*
D03*
X198031D02*
D03*
X196063Y30500D02*
D03*
X198031D02*
D03*
X99900Y32300D02*
D03*
X138000Y60000D02*
D03*
X128000Y44000D02*
D03*
X128500Y24000D02*
D03*
X78000Y59000D02*
D03*
X202200Y76900D02*
D03*
X11800Y31200D02*
D03*
X70000Y52600D02*
D03*
X83000Y72000D02*
D03*
X154000Y40000D02*
D03*
X14000Y12000D02*
D03*
X200000Y30500D02*
D03*
X201969D02*
D03*
Y33500D02*
D03*
X152000Y30000D02*
D03*
X153500Y34000D02*
D03*
X122500Y11500D02*
D03*
X89000Y59000D02*
D03*
X182500Y22500D02*
D03*
X182000Y19000D02*
D03*
X205200Y76900D02*
D03*
X208900D02*
D03*
X138000Y56000D02*
D03*
X182600Y26000D02*
D03*
M02*
