G04 Layer_Physical_Order=6*
G04 Layer_Color=6736896*
%FSLAX25Y25*%
%MOIN*%
G70*
G01*
G75*
%ADD36C,0.00500*%
%ADD49C,0.02000*%
%ADD50C,0.06000*%
%ADD55C,0.02200*%
D36*
X135350Y54650D02*
Y61466D01*
X130816Y66000D02*
X135350Y61466D01*
X133150Y60350D02*
X133500Y60700D01*
X131750Y58250D02*
X133000Y57000D01*
X98000Y24500D02*
X123500Y50000D01*
X95350Y22650D02*
X105650D01*
X95000Y23000D02*
X95350Y22650D01*
X105650D02*
X121500Y38500D01*
X92300Y31700D02*
Y54300D01*
X110000Y52000D02*
X129500D01*
X101000Y43000D02*
X110000Y52000D01*
X97000Y43000D02*
X101000D01*
X138000Y52000D02*
X141000D01*
X135350Y54650D02*
X138000Y52000D01*
X143850Y49650D02*
Y60766D01*
Y49650D02*
X145500Y48000D01*
X108750Y58250D02*
X131750D01*
X95000Y44500D02*
X108750Y58250D01*
X68000Y5000D02*
X76500Y13500D01*
X129500D01*
X158660Y25660D02*
Y57500D01*
X107750Y53750D02*
X131750D01*
X133500Y52000D01*
X99000Y45000D02*
X107750Y53750D01*
X123500Y50000D02*
X135500D01*
X92300Y54300D02*
X100350Y62350D01*
X28000Y75000D02*
X37000Y66000D01*
X130816D01*
X48000Y75000D02*
X54000Y69000D01*
X38000Y75000D02*
X46000Y67000D01*
X128000Y5000D02*
Y7116D01*
X135500Y50000D02*
X137500Y48000D01*
X100350Y62350D02*
X115650D01*
X117650Y60350D01*
X133150D01*
X138000Y5000D02*
Y9800D01*
X141100Y12900D01*
X145900D01*
X158660Y25660D01*
X128000Y7116D02*
X139300Y18416D01*
Y28800D01*
X154500Y44000D01*
X129500Y13500D02*
X138100Y22100D01*
Y43400D01*
X133500Y48000D02*
X138100Y43400D01*
X95000Y41000D02*
X97000Y43000D01*
X95000Y40800D02*
Y41000D01*
X46800Y42200D02*
X56900Y32100D01*
X126616Y40000D02*
X129000D01*
X125116Y38500D02*
X126616Y40000D01*
X121500Y38500D02*
X125116D01*
X145500Y52000D02*
Y61500D01*
X139850Y67150D02*
X145500Y61500D01*
X54000Y69000D02*
X135000D01*
X136850Y67150D01*
X139850D01*
X131230Y67000D02*
X135781Y62450D01*
X46000Y67000D02*
X131230D01*
X142166Y62450D02*
X143850Y60766D01*
X135781Y62450D02*
X142166D01*
X11400Y42200D02*
X46800D01*
X63500Y49700D02*
X73600D01*
X82900Y59000D01*
X89000D01*
X61584Y39000D02*
X62200D01*
X59200Y45400D02*
X63500Y49700D01*
X59200Y41384D02*
Y45400D01*
Y41384D02*
X61584Y39000D01*
X84700Y55700D02*
Y56600D01*
Y55700D02*
X88800Y51600D01*
Y19300D02*
Y51600D01*
D49*
X129500Y52000D02*
D03*
D50*
X68000Y5000D02*
D03*
X128000D02*
D03*
X138000D02*
D03*
X28000Y75000D02*
D03*
X38000D02*
D03*
X48000D02*
D03*
D55*
X133500Y60700D02*
D03*
X133000Y57000D02*
D03*
X98000Y24500D02*
D03*
X95000Y23000D02*
D03*
X92300Y31700D02*
D03*
X200000Y33500D02*
D03*
X196063D02*
D03*
X198031D02*
D03*
X196063Y30500D02*
D03*
X198031D02*
D03*
X141000Y52000D02*
D03*
X99000Y45000D02*
D03*
X129000Y40000D02*
D03*
X133500Y48000D02*
D03*
X137500D02*
D03*
X146000Y52000D02*
D03*
X133500D02*
D03*
X95000Y44300D02*
D03*
X154500Y44000D02*
D03*
X158660Y57500D02*
D03*
X11400Y42200D02*
D03*
X200000Y30500D02*
D03*
X201969D02*
D03*
Y33500D02*
D03*
X145500Y48000D02*
D03*
X88800Y19300D02*
D03*
X56900Y32100D02*
D03*
X89000Y59000D02*
D03*
X62200Y39000D02*
D03*
X95000Y40800D02*
D03*
X84700Y56600D02*
D03*
M02*
