G04 Layer_Color=8421504*
%FSLAX25Y25*%
%MOIN*%
G70*
G01*
G75*
%ADD10R,0.05315X0.01575*%
%ADD13R,0.06299X0.03543*%
%ADD14R,0.04134X0.03937*%
%ADD15R,0.08661X0.04134*%
%ADD17R,0.02559X0.04134*%
%ADD18R,0.04724X0.04724*%
%ADD22R,0.03347X0.02559*%
%ADD23R,0.01772X0.01772*%
%ADD24R,0.02362X0.02756*%
%ADD25R,0.02362X0.02756*%
%ADD26R,0.21654X0.03937*%
%ADD27R,0.11811X0.06299*%
%ADD28R,0.02559X0.03347*%
%ADD29R,0.02028X0.02362*%
%ADD30R,0.02362X0.02028*%
%ADD31R,0.03600X0.03700*%
%ADD32R,0.03700X0.03600*%
%ADD124R,0.03937X0.04724*%
%ADD125R,0.05905X0.05905*%
%ADD126R,0.02362X0.05118*%
%ADD127R,0.05118X0.02362*%
%ADD128R,0.04134X0.04134*%
G36*
X25853Y16870D02*
X19750D01*
Y19823D01*
X25853D01*
Y16870D01*
D02*
G37*
G36*
X114731Y9488D02*
X111778D01*
Y15591D01*
X114731D01*
Y9488D01*
D02*
G37*
G36*
X25853Y21201D02*
X19750D01*
Y24154D01*
X25853D01*
Y21201D01*
D02*
G37*
G36*
X120144Y16870D02*
X114042D01*
Y19823D01*
X120144D01*
Y16870D01*
D02*
G37*
G36*
X101739Y9488D02*
X98786D01*
Y15591D01*
X101739D01*
Y9488D01*
D02*
G37*
G36*
X97408D02*
X94455D01*
Y15591D01*
X97408D01*
Y9488D01*
D02*
G37*
G36*
X110400D02*
X107447D01*
Y15591D01*
X110400D01*
Y9488D01*
D02*
G37*
G36*
X106069D02*
X103117D01*
Y15591D01*
X106069D01*
Y9488D01*
D02*
G37*
G36*
X25853Y34193D02*
X19750D01*
Y37146D01*
X25853D01*
Y34193D01*
D02*
G37*
G36*
X120144Y29862D02*
X114042D01*
Y32815D01*
X120144D01*
Y29862D01*
D02*
G37*
G36*
X25853Y38524D02*
X19750D01*
Y41476D01*
X25853D01*
Y38524D01*
D02*
G37*
G36*
X120144Y34193D02*
X114042D01*
Y37146D01*
X120144D01*
Y34193D01*
D02*
G37*
G36*
X25853Y25532D02*
X19750D01*
Y28484D01*
X25853D01*
Y25532D01*
D02*
G37*
G36*
X120144Y21201D02*
X114042D01*
Y24154D01*
X120144D01*
Y21201D01*
D02*
G37*
G36*
X25853Y29862D02*
X19750D01*
Y32815D01*
X25853D01*
Y29862D01*
D02*
G37*
G36*
X120144Y25532D02*
X114042D01*
Y28484D01*
X120144D01*
Y25532D01*
D02*
G37*
G36*
X49770Y9488D02*
X46817D01*
Y15591D01*
X49770D01*
Y9488D01*
D02*
G37*
G36*
X45439D02*
X42487D01*
Y15591D01*
X45439D01*
Y9488D01*
D02*
G37*
G36*
X58432D02*
X55479D01*
Y15591D01*
X58432D01*
Y9488D01*
D02*
G37*
G36*
X54101D02*
X51148D01*
Y15591D01*
X54101D01*
Y9488D01*
D02*
G37*
G36*
X32447D02*
X29495D01*
Y15591D01*
X32447D01*
Y9488D01*
D02*
G37*
G36*
X28117D02*
X25164D01*
Y15591D01*
X28117D01*
Y9488D01*
D02*
G37*
G36*
X41109D02*
X38156D01*
Y15591D01*
X41109D01*
Y9488D01*
D02*
G37*
G36*
X36778D02*
X33825D01*
Y15591D01*
X36778D01*
Y9488D01*
D02*
G37*
G36*
X84416D02*
X81463D01*
Y15591D01*
X84416D01*
Y9488D01*
D02*
G37*
G36*
X80085D02*
X77132D01*
Y15591D01*
X80085D01*
Y9488D01*
D02*
G37*
G36*
X93077D02*
X90124D01*
Y15591D01*
X93077D01*
Y9488D01*
D02*
G37*
G36*
X88747D02*
X85794D01*
Y15591D01*
X88747D01*
Y9488D01*
D02*
G37*
G36*
X67093D02*
X64140D01*
Y15591D01*
X67093D01*
Y9488D01*
D02*
G37*
G36*
X62762D02*
X59809D01*
Y15591D01*
X62762D01*
Y9488D01*
D02*
G37*
G36*
X75754D02*
X72802D01*
Y15591D01*
X75754D01*
Y9488D01*
D02*
G37*
G36*
X71424D02*
X68471D01*
Y15591D01*
X71424D01*
Y9488D01*
D02*
G37*
G36*
Y64410D02*
X68471D01*
Y70512D01*
X71424D01*
Y64410D01*
D02*
G37*
G36*
X67093D02*
X64140D01*
Y70512D01*
X67093D01*
Y64410D01*
D02*
G37*
G36*
X80085D02*
X77132D01*
Y70512D01*
X80085D01*
Y64410D01*
D02*
G37*
G36*
X75754D02*
X72802D01*
Y70512D01*
X75754D01*
Y64410D01*
D02*
G37*
G36*
X54101D02*
X51148D01*
Y70512D01*
X54101D01*
Y64410D01*
D02*
G37*
G36*
X49770D02*
X46817D01*
Y70512D01*
X49770D01*
Y64410D01*
D02*
G37*
G36*
X62762D02*
X59809D01*
Y70512D01*
X62762D01*
Y64410D01*
D02*
G37*
G36*
X58432D02*
X55479D01*
Y70512D01*
X58432D01*
Y64410D01*
D02*
G37*
G36*
X106069D02*
X103117D01*
Y70512D01*
X106069D01*
Y64410D01*
D02*
G37*
G36*
X101739D02*
X98786D01*
Y70512D01*
X101739D01*
Y64410D01*
D02*
G37*
G36*
X114731D02*
X111778D01*
Y70512D01*
X114731D01*
Y64410D01*
D02*
G37*
G36*
X110400D02*
X107447D01*
Y70512D01*
X110400D01*
Y64410D01*
D02*
G37*
G36*
X88747D02*
X85794D01*
Y70512D01*
X88747D01*
Y64410D01*
D02*
G37*
G36*
X84416D02*
X81463D01*
Y70512D01*
X84416D01*
Y64410D01*
D02*
G37*
G36*
X97408D02*
X94455D01*
Y70512D01*
X97408D01*
Y64410D01*
D02*
G37*
G36*
X93077D02*
X90124D01*
Y70512D01*
X93077D01*
Y64410D01*
D02*
G37*
G36*
X120144Y51516D02*
X114042D01*
Y54469D01*
X120144D01*
Y51516D01*
D02*
G37*
G36*
Y47185D02*
X114042D01*
Y50138D01*
X120144D01*
Y47185D01*
D02*
G37*
G36*
X25853Y55847D02*
X19750D01*
Y58799D01*
X25853D01*
Y55847D01*
D02*
G37*
G36*
Y51516D02*
X19750D01*
Y54469D01*
X25853D01*
Y51516D01*
D02*
G37*
G36*
Y42854D02*
X19750D01*
Y45807D01*
X25853D01*
Y42854D01*
D02*
G37*
G36*
X120144Y38524D02*
X114042D01*
Y41476D01*
X120144D01*
Y38524D01*
D02*
G37*
G36*
X25853Y47185D02*
X19750D01*
Y50138D01*
X25853D01*
Y47185D01*
D02*
G37*
G36*
X120144Y42854D02*
X114042D01*
Y45807D01*
X120144D01*
Y42854D01*
D02*
G37*
G36*
X36778Y64410D02*
X33825D01*
Y70512D01*
X36778D01*
Y64410D01*
D02*
G37*
G36*
X32447D02*
X29495D01*
Y70512D01*
X32447D01*
Y64410D01*
D02*
G37*
G36*
X45439D02*
X42487D01*
Y70512D01*
X45439D01*
Y64410D01*
D02*
G37*
G36*
X41109D02*
X38156D01*
Y70512D01*
X41109D01*
Y64410D01*
D02*
G37*
G36*
X25853Y60177D02*
X19750D01*
Y63130D01*
X25853D01*
Y60177D01*
D02*
G37*
G36*
X120144Y55847D02*
X114042D01*
Y58799D01*
X120144D01*
Y55847D01*
D02*
G37*
G36*
X28117Y64410D02*
X25164D01*
Y70512D01*
X28117D01*
Y64410D01*
D02*
G37*
G36*
X120144Y60177D02*
X114042D01*
Y63130D01*
X120144D01*
Y60177D01*
D02*
G37*
D10*
X201768Y16882D02*
D03*
Y24559D02*
D03*
Y27118D02*
D03*
Y19441D02*
D03*
Y22000D02*
D03*
D13*
X212300Y9008D02*
D03*
Y34992D02*
D03*
D14*
X16004Y53000D02*
D03*
X3996D02*
D03*
D15*
X10000Y47193D02*
D03*
Y58807D02*
D03*
D17*
X156768Y67669D02*
D03*
X165232D02*
D03*
Y51331D02*
D03*
X156768D02*
D03*
Y28669D02*
D03*
X165232D02*
D03*
Y12331D02*
D03*
X156768D02*
D03*
D18*
X176390Y32655D02*
D03*
X176350Y43615D02*
D03*
D22*
X184838Y30000D02*
D03*
X189562D02*
D03*
X9162Y38400D02*
D03*
X4438D02*
D03*
X9524Y26800D02*
D03*
X4800D02*
D03*
X9062Y34400D02*
D03*
X4338D02*
D03*
X184838Y33500D02*
D03*
X189562D02*
D03*
D23*
X146673Y41673D02*
D03*
Y38327D02*
D03*
X143327D02*
D03*
Y41673D02*
D03*
D24*
X6130Y13500D02*
D03*
X162870Y40000D02*
D03*
D25*
X9870Y13500D02*
D03*
X159130Y40000D02*
D03*
D26*
X198799Y51063D02*
D03*
Y58937D02*
D03*
D27*
X207658Y68386D02*
D03*
Y41614D02*
D03*
D28*
X175700Y15962D02*
D03*
Y11238D02*
D03*
D29*
X129415Y66221D02*
D03*
X125380D02*
D03*
X4882Y73200D02*
D03*
X8918D02*
D03*
X159482Y46500D02*
D03*
X163518D02*
D03*
X8818Y69000D02*
D03*
X4782D02*
D03*
X8818Y77400D02*
D03*
X4782D02*
D03*
X8518Y30500D02*
D03*
X4482D02*
D03*
X8818Y23000D02*
D03*
X4782D02*
D03*
X8018Y42500D02*
D03*
X3982D02*
D03*
X8718Y64800D02*
D03*
X4682D02*
D03*
X158982Y35500D02*
D03*
X163018D02*
D03*
X5082Y19300D02*
D03*
X9118D02*
D03*
X189018Y26000D02*
D03*
X184982D02*
D03*
X189018Y19000D02*
D03*
X184982D02*
D03*
X189018Y22500D02*
D03*
X184982D02*
D03*
X134982Y36000D02*
D03*
X139018D02*
D03*
X134982Y39500D02*
D03*
X139018D02*
D03*
X134982Y43000D02*
D03*
X139018D02*
D03*
D30*
X128800Y16718D02*
D03*
Y12682D02*
D03*
X179400Y16218D02*
D03*
Y12182D02*
D03*
X133600Y12782D02*
D03*
Y16818D02*
D03*
X171400Y28218D02*
D03*
Y24182D02*
D03*
X151500Y41018D02*
D03*
Y36982D02*
D03*
X152000Y50982D02*
D03*
Y55018D02*
D03*
D31*
X171500Y11050D02*
D03*
Y17150D02*
D03*
X177300Y21150D02*
D03*
Y27250D02*
D03*
X138600Y11450D02*
D03*
Y17550D02*
D03*
D32*
X145450Y12200D02*
D03*
X151550D02*
D03*
X183950Y14100D02*
D03*
X190050D02*
D03*
X151550Y19700D02*
D03*
X145450D02*
D03*
D124*
X202654Y9402D02*
D03*
Y34598D02*
D03*
D125*
X212300Y17276D02*
D03*
Y26724D02*
D03*
D126*
X26640Y12638D02*
D03*
X39632D02*
D03*
X43963D02*
D03*
X30971D02*
D03*
X35302D02*
D03*
X48294D02*
D03*
X56955D02*
D03*
X52624D02*
D03*
X26640Y67362D02*
D03*
X30971D02*
D03*
X43963D02*
D03*
X35302D02*
D03*
X39632D02*
D03*
X48294D02*
D03*
X56955D02*
D03*
X52624D02*
D03*
X61286D02*
D03*
X69947Y12638D02*
D03*
X61286D02*
D03*
X65617D02*
D03*
X74278D02*
D03*
X78609D02*
D03*
X82939D02*
D03*
X91601D02*
D03*
X87270D02*
D03*
X95932D02*
D03*
X100262D02*
D03*
X104593D02*
D03*
X108924D02*
D03*
X113254D02*
D03*
X65617Y67362D02*
D03*
X74278D02*
D03*
X69947D02*
D03*
X78609D02*
D03*
X82939D02*
D03*
X91601D02*
D03*
X87270D02*
D03*
X100262D02*
D03*
X95932D02*
D03*
X104593D02*
D03*
X108924D02*
D03*
X113254D02*
D03*
D127*
X22900Y18347D02*
D03*
Y31339D02*
D03*
Y22677D02*
D03*
Y27008D02*
D03*
Y40000D02*
D03*
Y35669D02*
D03*
Y44331D02*
D03*
Y48662D02*
D03*
Y57323D02*
D03*
Y52992D02*
D03*
Y61654D02*
D03*
X116995Y18347D02*
D03*
Y22677D02*
D03*
Y27008D02*
D03*
Y31339D02*
D03*
Y35669D02*
D03*
Y40000D02*
D03*
Y44331D02*
D03*
Y48662D02*
D03*
Y52992D02*
D03*
Y57323D02*
D03*
Y61654D02*
D03*
D128*
X29593Y19331D02*
D03*
Y27599D02*
D03*
Y35866D02*
D03*
X36680Y19331D02*
D03*
Y27599D02*
D03*
X57939Y19331D02*
D03*
X43766D02*
D03*
X29593Y44134D02*
D03*
Y52402D02*
D03*
Y60669D02*
D03*
X36680Y44134D02*
D03*
Y35866D02*
D03*
Y60669D02*
D03*
Y52402D02*
D03*
X57939Y60669D02*
D03*
X43766D02*
D03*
X81955Y19331D02*
D03*
X96128D02*
D03*
X103215D02*
D03*
X110302D02*
D03*
Y27599D02*
D03*
X103215D02*
D03*
X110302Y35866D02*
D03*
X103215D02*
D03*
X81955Y60669D02*
D03*
X96128D02*
D03*
X103215Y52402D02*
D03*
Y60669D02*
D03*
Y44134D02*
D03*
X110302D02*
D03*
Y52402D02*
D03*
Y60669D02*
D03*
M02*
