M48
;Layer_Color=9474304
;FILE_FORMAT=2:5
INCH,LZ
;TYPE=PLATED
T1F00S00C0.00787
T2F00S00C0.00800
T4F00S00C0.02400
T5F00S00C0.04000
T6F00S00C0.06200
;TYPE=NON_PLATED
T7F00S00C0.03150
T8F00S00C0.03937
%
T01
X0085331Y0037669
Y0042
X0081
Y0037669
X0076669
Y0042
Y0046331
X0081
X0085331
T02
X0093Y00075
X01025Y0008
X00995Y00191
X0098Y00245
X0095Y0023
X00958Y00277
X00989Y00284
X00999Y00323
X00923Y00317
X0095Y0037
Y00408
Y00443
X0099Y0045
Y0041
X0103Y004
X01065Y00445
Y0028
X01069Y00191
X01216Y00164
X01225Y00115
X01336Y00097
X01424Y00095
X01415Y00198
X01325Y002
Y0024
Y0028
X0127
X01285Y0032
X0124
Y0036
X01295
X0129Y004
X0128Y0044
X0125Y0041
X01285Y0024
X0148Y0028
Y0032
X0152Y003
X01535Y0034
X0154Y004
X01545Y0044
X015
X01675
Y00395
X01677Y00354
X01715Y0021
X01618Y00223
X0152Y001587
X0182Y0019
X01825Y00225
X01826Y0026
X0196063Y00305
X0198031
X02
X0201969
Y00335
X02
X0198031
X0196063
X02103Y00395
X0212Y00035
X02145
X01965
X01964Y0007
X01931Y00108
X00888Y00193
X0085Y00236
X00817Y00233
X0078Y0017
X00741Y00169
X00654Y00192
X00625Y00211
X00535Y0019
X00484Y00172
X0043Y0007
X0033
X0014Y0012
X00171Y00217
X00127Y00255
X00118Y00312
X00114Y00422
X00025Y00405
X00034Y00165
X00366Y00317
X00569Y00321
X00581Y00288
X00687Y00284
X0067016Y0039047
Y0042984
X00633Y00447
X00612Y0042
X00622Y0039
X00546Y00408
X00544Y0051
X00515Y0061
X00629
X00671Y00593
X0072Y0059
X0078
Y0063
X00757Y00555
X007Y00526
X00403Y00607
X00368Y00478
X0003Y00495
X0004Y00585
X00145Y00715
X0083Y0072
X0087Y0063
X0092
X0089Y0059
X00897Y00552
X00847Y00566
X0081984Y00553
X0098Y0055335
X01135Y00605
X01235Y00632
X0123Y00715
X0138Y0069
X0137Y00644
X0138Y006
Y0056
X0142Y0057
X01419Y00598
X0141Y0052
X01415Y0048
X01375
X01335
X01295
Y0052
X01335
X0133Y0057
X01295Y00565
X01335Y00607
X0146Y0052
X01455Y0048
X015866Y00575
X0162Y00568
X01645Y00552
X0165Y0064
X01687Y00641
X01695Y00698
X01757Y00699
X0176Y0064
X01755Y00577
X0177Y00541
X01745Y0049
X01795Y00486
X0184Y0047
X01875Y0046
Y00485
X01942Y00551
X02015Y00498
X02051Y00473
X02108Y00551
X0206629Y0063
Y0066834
X0202298
Y0063
X02022Y00769
X02052
X02089
X02118Y00755
X01966Y00716
X0183Y00705
X01635Y00725
X01525Y0071
X01707Y00514
T04
X00189Y0067362
T05
X0088Y0005
X0098
X0108
X0118
X0128
X0138
X0148
X0158
X0168
X0178
X0188
X0078
X0068
X0058
X0048
X0038
X0028
X0018
Y0075
X0028
X0038
X0048
X0058
X0068
X0078
X0088
X0098
X0108
X0118
X0128
X0138
X0148
X0158
X0168
X0178
X0188
T06
X0006Y0006
T07
X0046677Y0054233
T08
X0014Y00188
M30
