G04 Layer_Physical_Order=4*
G04 Layer_Color=32768*
%FSLAX25Y25*%
%MOIN*%
G70*
G01*
G75*
%ADD50C,0.06000*%
%ADD56C,0.04000*%
%ADD57C,0.05150*%
%ADD58C,0.05937*%
%ADD59C,0.02800*%
%ADD60C,0.04400*%
D50*
X18000Y5000D02*
D03*
X28000D02*
D03*
X38000D02*
D03*
X48000D02*
D03*
X58000D02*
D03*
X68000D02*
D03*
X78000D02*
D03*
X88000D02*
D03*
X98000D02*
D03*
X108000D02*
D03*
X118000D02*
D03*
X128000D02*
D03*
X188000D02*
D03*
X168000D02*
D03*
X158000D02*
D03*
X148000D02*
D03*
X138000D02*
D03*
X18000Y75000D02*
D03*
X28000D02*
D03*
X38000D02*
D03*
X48000D02*
D03*
X58000D02*
D03*
X68000D02*
D03*
X78000D02*
D03*
X88000D02*
D03*
X98000D02*
D03*
X108000D02*
D03*
X118000D02*
D03*
X128000D02*
D03*
X188000D02*
D03*
X168000D02*
D03*
X158000D02*
D03*
X148000D02*
D03*
X138000D02*
D03*
D56*
X0Y0D02*
Y80000D01*
X213000D01*
X218000Y75000D01*
Y0D02*
Y75000D01*
X0Y0D02*
X218000D01*
D57*
X46677Y54233D02*
D03*
D58*
X14000Y18800D02*
D03*
D59*
X75700Y55500D02*
D03*
X81984Y55300D02*
D03*
X133500Y60700D02*
D03*
X133000Y57000D02*
D03*
X196600Y71600D02*
D03*
X95800Y27700D02*
D03*
X98000Y24500D02*
D03*
X95000Y23000D02*
D03*
X92300Y31700D02*
D03*
X98900Y28400D02*
D03*
X74100Y16900D02*
D03*
X54400Y51000D02*
D03*
X62500Y21100D02*
D03*
X51500Y61000D02*
D03*
X102500Y8000D02*
D03*
X93000Y7500D02*
D03*
X193100Y10800D02*
D03*
X196500Y3500D02*
D03*
X141500Y48000D02*
D03*
X141000Y52000D02*
D03*
X164500Y55200D02*
D03*
X67016Y42984D02*
D03*
Y39047D02*
D03*
X99900Y32300D02*
D03*
X95000Y37000D02*
D03*
X184000Y47000D02*
D03*
X99000Y45000D02*
D03*
Y41000D02*
D03*
X138000Y60000D02*
D03*
X142000Y57000D02*
D03*
X129000Y40000D02*
D03*
X128000Y44000D02*
D03*
X125000Y41000D02*
D03*
X129500Y48000D02*
D03*
X133500D02*
D03*
X129500Y52000D02*
D03*
X124000Y36000D02*
D03*
X141900Y59800D02*
D03*
X137500Y48000D02*
D03*
X146000Y52000D02*
D03*
X127000Y28000D02*
D03*
X129500Y36000D02*
D03*
X128500Y32000D02*
D03*
X132500Y28000D02*
D03*
Y24000D02*
D03*
Y20000D02*
D03*
X128500Y24000D02*
D03*
X103000Y40000D02*
D03*
X133500Y52000D02*
D03*
X33000Y7000D02*
D03*
X78000Y59000D02*
D03*
Y63000D02*
D03*
X58100Y28800D02*
D03*
X129500Y56500D02*
D03*
X202200Y76900D02*
D03*
X11800Y31200D02*
D03*
X92000Y63000D02*
D03*
X95000Y44300D02*
D03*
X168700Y64100D02*
D03*
X70000Y52600D02*
D03*
X87000Y63000D02*
D03*
X83000Y72000D02*
D03*
X123500Y63200D02*
D03*
X67100Y59300D02*
D03*
X194200Y55100D02*
D03*
X179500Y48600D02*
D03*
X169500Y69800D02*
D03*
X205100Y47300D02*
D03*
X211800Y75500D02*
D03*
X210800Y55100D02*
D03*
X154000Y40000D02*
D03*
X154500Y44000D02*
D03*
X148000Y32000D02*
D03*
X158660Y57500D02*
D03*
X14000Y12000D02*
D03*
X12700Y25500D02*
D03*
X11400Y42200D02*
D03*
X133600Y9700D02*
D03*
X171500Y21000D02*
D03*
X163500Y72500D02*
D03*
X148000Y28000D02*
D03*
X152000Y30000D02*
D03*
X141500Y19800D02*
D03*
X152000Y15870D02*
D03*
X174500Y49000D02*
D03*
X165000Y64000D02*
D03*
X170700Y51400D02*
D03*
X150000Y44000D02*
D03*
X145500Y48000D02*
D03*
X153500Y34000D02*
D03*
X167500Y39500D02*
D03*
X122500Y11500D02*
D03*
X88800Y19300D02*
D03*
X167500Y44000D02*
D03*
X124000Y32000D02*
D03*
X177000Y54100D02*
D03*
X78000Y17000D02*
D03*
X65400Y19200D02*
D03*
X56900Y32100D02*
D03*
X72000Y59000D02*
D03*
X89000D02*
D03*
X182500Y22500D02*
D03*
X182000Y19000D02*
D03*
X167700Y35400D02*
D03*
X43000Y7000D02*
D03*
X205200Y76900D02*
D03*
X208900D02*
D03*
X89700Y55200D02*
D03*
X138000Y56000D02*
D03*
X62200Y39000D02*
D03*
X182600Y26000D02*
D03*
X196400Y7000D02*
D03*
X137000Y64400D02*
D03*
X95000Y40800D02*
D03*
X138000Y69000D02*
D03*
X63300Y44700D02*
D03*
X61200Y42000D02*
D03*
X84700Y56600D02*
D03*
X85000Y23600D02*
D03*
D60*
X18900Y67362D02*
D03*
M02*
