G04 Layer_Physical_Order=1*
G04 Layer_Color=255*
%FSLAX25Y25*%
%MOIN*%
G70*
G01*
G75*
%ADD10R,0.05315X0.01575*%
%ADD11R,0.05512X0.06299*%
%ADD12R,0.07480X0.07480*%
%ADD13R,0.06299X0.03543*%
%ADD14R,0.04134X0.03937*%
%ADD15R,0.08661X0.04134*%
%ADD16R,0.05000X0.02500*%
%ADD17R,0.02559X0.04134*%
%ADD18R,0.04724X0.04724*%
%ADD19R,0.03150X0.05905*%
%ADD20R,0.05905X0.03150*%
%ADD21R,0.04331X0.04331*%
%ADD22R,0.03347X0.02559*%
%ADD23R,0.01772X0.01772*%
%ADD24R,0.02362X0.02756*%
%ADD25R,0.02362X0.02756*%
%ADD26R,0.21654X0.03937*%
%ADD27R,0.11811X0.06299*%
%ADD28R,0.02559X0.03347*%
%ADD29R,0.02028X0.02362*%
%ADD30R,0.02362X0.02028*%
%ADD31R,0.03600X0.03700*%
%ADD32R,0.03700X0.03600*%
%ADD33R,0.02500X0.05000*%
%ADD34C,0.01000*%
%ADD35C,0.01200*%
%ADD36C,0.00500*%
%ADD37C,0.02000*%
%ADD38C,0.00800*%
%ADD39C,0.00700*%
%ADD40C,0.01500*%
%ADD41C,0.01600*%
%ADD42C,0.00600*%
%ADD43R,0.06400X0.04900*%
%ADD44R,0.06200X0.04900*%
%ADD45R,0.09100X0.14514*%
%ADD46R,0.08500X0.15000*%
%ADD47R,0.08000X0.15000*%
%ADD48O,0.06299X0.03543*%
%ADD49C,0.02000*%
%ADD50C,0.06000*%
%ADD51R,0.06000X0.06000*%
%ADD52C,0.01968*%
%ADD53C,0.03600*%
%ADD54C,0.08680*%
G36*
X64159Y75100D02*
X64317Y74717D01*
X64518Y74634D01*
X64590Y74086D01*
X64943Y73235D01*
X65504Y72504D01*
X66235Y71943D01*
X67086Y71590D01*
X68000Y71470D01*
X68080Y71480D01*
X68162Y70987D01*
X68099Y70974D01*
X68010Y70915D01*
X67574Y70698D01*
X67191Y70856D01*
X64042D01*
X63659Y70698D01*
X63243D01*
X63136Y70742D01*
X62861Y70856D01*
X59711D01*
X59328Y70698D01*
X58913D01*
X58806Y70742D01*
X58530Y70856D01*
X55380D01*
X54998Y70698D01*
X54582D01*
X54475Y70742D01*
X54199Y70856D01*
X51050D01*
X50667Y70698D01*
X50251D01*
X50144Y70742D01*
X49869Y70856D01*
X46719D01*
X46336Y70698D01*
X45921D01*
X45813Y70742D01*
X45538Y70856D01*
X42388D01*
X42006Y70698D01*
X41569Y70915D01*
X41480Y70974D01*
X41207Y71029D01*
X39982D01*
Y67362D01*
X39282D01*
Y71029D01*
X38480D01*
X38447Y71529D01*
X38914Y71590D01*
X39765Y71943D01*
X40496Y72504D01*
X41057Y73235D01*
X41410Y74086D01*
X41498Y74754D01*
X41641Y75100D01*
Y78000D01*
X44159D01*
Y75100D01*
X44317Y74717D01*
X44518Y74634D01*
X44590Y74086D01*
X44943Y73235D01*
X45504Y72504D01*
X46235Y71943D01*
X47086Y71590D01*
X48000Y71470D01*
X48914Y71590D01*
X49765Y71943D01*
X50496Y72504D01*
X51057Y73235D01*
X51410Y74086D01*
X51498Y74754D01*
X51641Y75100D01*
Y78000D01*
X54159D01*
Y75100D01*
X54317Y74717D01*
X54518Y74634D01*
X54590Y74086D01*
X54943Y73235D01*
X55504Y72504D01*
X56235Y71943D01*
X57086Y71590D01*
X58000Y71470D01*
X58914Y71590D01*
X59765Y71943D01*
X60496Y72504D01*
X61057Y73235D01*
X61410Y74086D01*
X61498Y74754D01*
X61641Y75100D01*
Y78000D01*
X64159D01*
Y75100D01*
D02*
G37*
G36*
X34159D02*
X34317Y74717D01*
X34518Y74634D01*
X34590Y74086D01*
X34943Y73235D01*
X35504Y72504D01*
X36235Y71943D01*
X37086Y71590D01*
X37827Y71493D01*
X37843Y70986D01*
X37784Y70974D01*
X37695Y70915D01*
X37259Y70698D01*
X36876Y70856D01*
X33727D01*
X33357Y70703D01*
X33344Y70698D01*
X32928D01*
X32915Y70703D01*
X32546Y70856D01*
X29396D01*
X29026Y70703D01*
X29013Y70698D01*
X28598D01*
X28585Y70703D01*
X28215Y70856D01*
X25065D01*
X24683Y70698D01*
X24524Y70315D01*
Y68637D01*
X20815D01*
X20558Y69020D01*
X19797Y69529D01*
X18900Y69707D01*
X18003Y69529D01*
X17242Y69020D01*
X16985Y68637D01*
X16162D01*
X15675Y68540D01*
X15261Y68263D01*
X13072Y66075D01*
X10234D01*
X10114Y66364D01*
X9992Y66414D01*
Y67344D01*
X10214Y67436D01*
X10373Y67819D01*
Y70181D01*
X10214Y70564D01*
X10092Y70614D01*
Y71544D01*
X10314Y71636D01*
X10473Y72019D01*
Y74381D01*
X10314Y74764D01*
X10092Y74856D01*
Y75786D01*
X10214Y75836D01*
X10373Y76219D01*
Y78000D01*
X14159D01*
Y75100D01*
X14317Y74717D01*
X14518Y74634D01*
X14590Y74086D01*
X14753Y73693D01*
X14649Y73504D01*
X14410Y73215D01*
X13837Y73101D01*
X13274Y72726D01*
X12899Y72163D01*
X12836Y71850D01*
X14500D01*
Y71500D01*
X14850D01*
Y69836D01*
X15163Y69899D01*
X15726Y70274D01*
X16101Y70837D01*
X16215Y71410D01*
X16504Y71649D01*
X16693Y71753D01*
X17086Y71590D01*
X18000Y71470D01*
X18914Y71590D01*
X19765Y71943D01*
X20496Y72504D01*
X21057Y73235D01*
X21410Y74086D01*
X21498Y74754D01*
X21641Y75100D01*
Y78000D01*
X24159D01*
Y75100D01*
X24317Y74717D01*
X24518Y74634D01*
X24590Y74086D01*
X24943Y73235D01*
X25504Y72504D01*
X26235Y71943D01*
X27086Y71590D01*
X28000Y71470D01*
X28914Y71590D01*
X29765Y71943D01*
X30496Y72504D01*
X31057Y73235D01*
X31410Y74086D01*
X31498Y74754D01*
X31641Y75100D01*
Y78000D01*
X34159D01*
Y75100D01*
D02*
G37*
G36*
X200797Y77500D02*
X200787Y77485D01*
X200671Y76900D01*
X200787Y76315D01*
X201119Y75819D01*
X201615Y75487D01*
X202200Y75371D01*
X202785Y75487D01*
X203281Y75819D01*
X203399Y75995D01*
X204001D01*
X204119Y75819D01*
X204615Y75487D01*
X205200Y75371D01*
X205785Y75487D01*
X206281Y75819D01*
X206613Y76315D01*
X206729Y76900D01*
X206631Y77397D01*
X206935Y77834D01*
X207165D01*
X207469Y77397D01*
X207371Y76900D01*
X207487Y76315D01*
X207819Y75819D01*
X208315Y75487D01*
X208900Y75371D01*
X209485Y75487D01*
X209800Y75697D01*
X210047Y75594D01*
X210283Y75438D01*
X210387Y74915D01*
X210719Y74419D01*
X211215Y74087D01*
X211800Y73971D01*
X212385Y74087D01*
X212881Y74419D01*
X213213Y74915D01*
X213240Y75052D01*
X213783Y75217D01*
X216000Y73000D01*
Y37839D01*
X215946Y37758D01*
X215500Y37468D01*
X215450Y37477D01*
X214246D01*
X214100Y37872D01*
X214079Y37977D01*
X214222Y38191D01*
X214277Y38465D01*
Y41264D01*
X208008D01*
Y37751D01*
X208468D01*
X208613Y37356D01*
X208634Y37251D01*
X208491Y37037D01*
X208437Y36764D01*
Y35342D01*
X212300D01*
Y34992D01*
X212650D01*
Y32472D01*
X213678D01*
X213852Y32507D01*
X215450D01*
X215500Y32517D01*
X215946Y32226D01*
X216000Y32145D01*
Y31178D01*
X212650D01*
Y26724D01*
Y22271D01*
X216000D01*
Y21729D01*
X212650D01*
Y17276D01*
Y12822D01*
X216000D01*
Y11855D01*
X215946Y11774D01*
X215500Y11483D01*
X215450Y11493D01*
X213852D01*
X213678Y11528D01*
X212650D01*
Y9008D01*
Y6488D01*
X213678D01*
X213852Y6522D01*
X215450D01*
X215500Y6532D01*
X215946Y6242D01*
X216000Y6161D01*
Y5144D01*
X215500Y4876D01*
X215163Y5101D01*
X214850Y5164D01*
Y3500D01*
X214150D01*
Y5164D01*
X213837Y5101D01*
X213274Y4726D01*
X213226D01*
X212663Y5101D01*
X212350Y5164D01*
Y3500D01*
X212000D01*
Y3150D01*
X210336D01*
X210399Y2837D01*
X210624Y2500D01*
X210356Y2000D01*
X197855D01*
X197728Y2194D01*
X197636Y2500D01*
X197913Y2915D01*
X198029Y3500D01*
X197913Y4085D01*
X197581Y4581D01*
X197085Y4913D01*
X196773Y4975D01*
X196622Y5005D01*
Y5515D01*
X196758Y5542D01*
X196985Y5587D01*
X197481Y5919D01*
X197813Y6415D01*
X197929Y7000D01*
X197813Y7585D01*
X197481Y8081D01*
X196985Y8413D01*
X196400Y8529D01*
X195815Y8413D01*
X195319Y8081D01*
X194987Y7585D01*
X194871Y7000D01*
X194987Y6415D01*
X195319Y5919D01*
X195815Y5587D01*
X196127Y5525D01*
X196278Y5495D01*
Y4985D01*
X196142Y4958D01*
X195915Y4913D01*
X195419Y4581D01*
X195087Y4085D01*
X194971Y3500D01*
X195087Y2915D01*
X195364Y2500D01*
X195272Y2194D01*
X195145Y2000D01*
X191641D01*
Y4900D01*
X191541Y5141D01*
Y8000D01*
X191383Y8383D01*
X191000Y8541D01*
X185000D01*
X184617Y8383D01*
X184459Y8000D01*
Y5141D01*
X184359Y4900D01*
Y2000D01*
X180937D01*
X180745Y2500D01*
X181232Y3134D01*
X181605Y4034D01*
X181686Y4650D01*
X178000D01*
Y5000D01*
X177650D01*
Y8991D01*
X177564Y9179D01*
X177639Y9291D01*
X177693Y9565D01*
Y10088D01*
X177727Y10145D01*
X178193Y10460D01*
X178219Y10455D01*
X179050D01*
Y12182D01*
X179750D01*
Y10455D01*
X180581D01*
X180854Y10509D01*
X181086Y10664D01*
X181240Y10895D01*
X181295Y11169D01*
Y11687D01*
X181795Y11885D01*
X182100Y11759D01*
X185800D01*
X186183Y11917D01*
X186341Y12300D01*
Y15900D01*
X186183Y16283D01*
X185800Y16441D01*
X182100D01*
X181717Y16283D01*
X181544Y16248D01*
X181122Y16670D01*
Y17181D01*
X181212Y17306D01*
X181525Y17565D01*
X182000Y17471D01*
X182585Y17587D01*
X182928Y17816D01*
X183046Y17817D01*
X183396Y17712D01*
X183500Y17644D01*
X183586Y17436D01*
X183968Y17278D01*
X185996D01*
X186379Y17436D01*
X186537Y17819D01*
Y20181D01*
X186379Y20564D01*
Y20936D01*
X186379Y20936D01*
X186537Y21319D01*
Y23681D01*
X186379Y24064D01*
Y24436D01*
X186379Y24436D01*
X186537Y24819D01*
Y27181D01*
X186379Y27564D01*
X186100Y27679D01*
X186199Y28179D01*
X186511D01*
X186779Y28290D01*
X186906Y28335D01*
X187384Y28216D01*
X187577Y28087D01*
X187618Y27844D01*
X187621Y27565D01*
X187616Y27551D01*
X187463Y27181D01*
Y24819D01*
X187621Y24436D01*
Y24064D01*
X187621Y24064D01*
X187463Y23681D01*
Y21319D01*
X187621Y20936D01*
Y20564D01*
X187621Y20564D01*
X187463Y20181D01*
Y17819D01*
X187621Y17436D01*
X188004Y17278D01*
X190032D01*
X190414Y17436D01*
X190573Y17819D01*
Y18421D01*
X191896D01*
X192048Y17921D01*
X191895Y17819D01*
X190517Y16441D01*
X188200D01*
X187817Y16283D01*
X187659Y15900D01*
Y12300D01*
X187817Y11917D01*
X188200Y11759D01*
X190517D01*
X191594Y10681D01*
X191687Y10215D01*
X192019Y9719D01*
X192515Y9387D01*
X193100Y9271D01*
X193685Y9387D01*
X194181Y9719D01*
X194513Y10215D01*
X194629Y10800D01*
X194513Y11385D01*
X194181Y11881D01*
X194049Y11970D01*
X194037Y11987D01*
X192441Y13583D01*
Y14617D01*
X193381Y15556D01*
X199103D01*
X199111Y15553D01*
X204426D01*
X204809Y15712D01*
X204967Y16094D01*
Y17669D01*
X204809Y18052D01*
X204809Y18271D01*
X204967Y18654D01*
Y20228D01*
X204923Y20336D01*
X204834Y20720D01*
X204923Y21105D01*
X204967Y21213D01*
Y22787D01*
X204923Y22895D01*
X204834Y23280D01*
X204923Y23664D01*
X204967Y23772D01*
Y25346D01*
X204809Y25729D01*
X204809Y25729D01*
X204838Y25764D01*
X204931Y25826D01*
X205085Y26058D01*
X205140Y26331D01*
Y26768D01*
X201768D01*
X198397D01*
Y26331D01*
X198448Y26079D01*
X198450Y26054D01*
X198170Y25579D01*
X193363D01*
X192221Y26721D01*
X191890Y26942D01*
X191500Y27020D01*
X190573D01*
Y27181D01*
X190438Y27507D01*
X190624Y28007D01*
X191235D01*
X191508Y28061D01*
X191740Y28216D01*
X191895Y28447D01*
X191949Y28721D01*
Y29650D01*
X189562D01*
Y30350D01*
X191949D01*
Y31280D01*
X191895Y31553D01*
X191763Y31750D01*
X191895Y31947D01*
X191949Y32221D01*
Y33150D01*
X189562D01*
Y33500D01*
X189212D01*
Y35493D01*
X187889D01*
X187616Y35439D01*
X187384Y35284D01*
X186906Y35165D01*
X186779Y35210D01*
X186511Y35321D01*
X183165D01*
X182782Y35162D01*
X182623Y34780D01*
Y34265D01*
X180400D01*
X180400Y34265D01*
X180107Y34207D01*
X179859Y34041D01*
X179793Y33975D01*
X179293Y34182D01*
Y35017D01*
X179135Y35399D01*
X178752Y35558D01*
X174028D01*
X173645Y35399D01*
X173486Y35017D01*
Y30292D01*
X173645Y29910D01*
X174028Y29751D01*
X174732D01*
X175021Y29251D01*
X174959Y29100D01*
Y25400D01*
X175117Y25017D01*
X175500Y24859D01*
X179085D01*
Y23541D01*
X175500D01*
X175117Y23383D01*
X174959Y23000D01*
Y19300D01*
X175117Y18917D01*
X175500Y18759D01*
X176378D01*
Y18177D01*
X174420D01*
X174341Y18144D01*
X173841Y18475D01*
Y19000D01*
X173683Y19383D01*
X173300Y19541D01*
X173020D01*
Y20500D01*
X172975Y20725D01*
X173029Y21000D01*
X172913Y21585D01*
X172657Y21969D01*
X172759Y22369D01*
X172844Y22507D01*
X172854Y22509D01*
X173086Y22664D01*
X173240Y22895D01*
X173295Y23168D01*
Y23832D01*
X171400D01*
X169505D01*
Y23168D01*
X169560Y22895D01*
X169714Y22664D01*
X169946Y22509D01*
X170125Y22474D01*
X170216Y22352D01*
X170268Y22240D01*
X170334Y21955D01*
X170087Y21585D01*
X169971Y21000D01*
X170087Y20415D01*
X170337Y20041D01*
X170183Y19626D01*
X170115Y19541D01*
X169700D01*
X169317Y19383D01*
X169159Y19000D01*
Y15300D01*
X169317Y14917D01*
X169700Y14759D01*
X173300D01*
X173379Y14792D01*
X173879Y14461D01*
Y14289D01*
X173990Y14021D01*
X174029Y13911D01*
X173943Y13745D01*
X173573Y13559D01*
X173300Y13614D01*
X171850D01*
Y11050D01*
X171500D01*
Y10700D01*
X168986D01*
Y9200D01*
X169041Y8927D01*
X169077Y8872D01*
X169035Y8751D01*
X168772Y8428D01*
X168000Y8530D01*
X167086Y8410D01*
X166235Y8057D01*
X165504Y7496D01*
X164943Y6765D01*
X164590Y5914D01*
X164502Y5246D01*
X164359Y4900D01*
Y2000D01*
X161841D01*
Y4900D01*
X161683Y5283D01*
X161482Y5366D01*
X161410Y5914D01*
X161057Y6765D01*
X160496Y7496D01*
X159765Y8057D01*
X158914Y8410D01*
X158000Y8530D01*
X157086Y8410D01*
X156235Y8057D01*
X155504Y7496D01*
X154943Y6765D01*
X154590Y5914D01*
X154502Y5246D01*
X154359Y4900D01*
Y2000D01*
X151841D01*
Y4900D01*
X151683Y5283D01*
X151482Y5366D01*
X151410Y5914D01*
X151057Y6765D01*
X150496Y7496D01*
X149765Y8057D01*
X148914Y8410D01*
X148000Y8530D01*
X147086Y8410D01*
X146235Y8057D01*
X145504Y7496D01*
X144943Y6765D01*
X144590Y5914D01*
X144502Y5246D01*
X144359Y4900D01*
Y2000D01*
X141841D01*
Y4900D01*
X141683Y5283D01*
X141482Y5366D01*
X141410Y5914D01*
X141057Y6765D01*
X140496Y7496D01*
X139765Y8057D01*
X138914Y8410D01*
X139012Y8886D01*
X140400D01*
X140799Y8837D01*
X141174Y8274D01*
X141737Y7899D01*
X142050Y7836D01*
Y9500D01*
Y11164D01*
X141737Y11101D01*
X141614Y11019D01*
X141463Y11100D01*
X138600D01*
X136086D01*
Y9600D01*
X136141Y9327D01*
X136295Y9095D01*
X136527Y8941D01*
X136800Y8886D01*
X136988D01*
X137086Y8410D01*
X136235Y8057D01*
X135504Y7496D01*
X134943Y6765D01*
X134590Y5914D01*
X134502Y5246D01*
X134359Y4900D01*
Y2000D01*
X131841D01*
Y4900D01*
X131683Y5283D01*
X131482Y5366D01*
X131410Y5914D01*
X131057Y6765D01*
X130496Y7496D01*
X129765Y8057D01*
X128914Y8410D01*
X128000Y8530D01*
X127086Y8410D01*
X126235Y8057D01*
X125504Y7496D01*
X124943Y6765D01*
X124590Y5914D01*
X124502Y5246D01*
X124359Y4900D01*
Y2000D01*
X121841D01*
Y4900D01*
X121683Y5283D01*
X121482Y5366D01*
X121410Y5914D01*
X121057Y6765D01*
X120496Y7496D01*
X119765Y8057D01*
X118914Y8410D01*
X118000Y8530D01*
X117086Y8410D01*
X116235Y8057D01*
X115504Y7496D01*
X114943Y6765D01*
X114590Y5914D01*
X114502Y5246D01*
X114359Y4900D01*
Y2000D01*
X111841D01*
Y4900D01*
X111683Y5283D01*
X111482Y5366D01*
X111410Y5914D01*
X111057Y6765D01*
X110496Y7496D01*
X109765Y8057D01*
X108914Y8410D01*
X108447Y8471D01*
X108479Y8971D01*
X108574D01*
Y12638D01*
X109274D01*
Y8971D01*
X110498D01*
X110772Y9026D01*
X111003Y9180D01*
X111175D01*
X111406Y9026D01*
X111679Y8971D01*
X112904D01*
Y12638D01*
X113254D01*
Y12988D01*
X115543D01*
Y15591D01*
X115914Y16058D01*
X116645D01*
Y18347D01*
X117344D01*
Y16058D01*
X119935D01*
X119999Y15737D01*
X120374Y15174D01*
X120937Y14799D01*
X121250Y14736D01*
Y16400D01*
Y18064D01*
X121161Y18046D01*
X120661Y18373D01*
Y19921D01*
X120607Y20194D01*
X120547Y20284D01*
X120330Y20720D01*
X120488Y21102D01*
Y24252D01*
X120330Y24635D01*
Y25050D01*
X120374Y25157D01*
X120488Y25433D01*
Y28583D01*
X120330Y28965D01*
Y29381D01*
X120374Y29488D01*
X120488Y29764D01*
Y32913D01*
X120330Y33296D01*
Y33712D01*
X120374Y33819D01*
X120488Y34095D01*
Y37244D01*
X120330Y37627D01*
Y38043D01*
X120374Y38150D01*
X120488Y38425D01*
Y41575D01*
X120330Y41958D01*
Y42373D01*
X120374Y42480D01*
X120488Y42756D01*
Y43311D01*
X121253D01*
X121500Y43209D01*
X126500D01*
X126676Y43282D01*
X126919Y42919D01*
X127415Y42587D01*
X128000Y42471D01*
X128585Y42587D01*
X129081Y42919D01*
X129413Y43415D01*
X129529Y44000D01*
X129455Y44374D01*
X132037Y46956D01*
X132419Y46918D01*
X132915Y46587D01*
X133500Y46471D01*
X134085Y46587D01*
X134581Y46919D01*
X134913Y47415D01*
X135029Y48000D01*
X134913Y48585D01*
X134813Y48735D01*
X135080Y49235D01*
X135920D01*
X136187Y48735D01*
X136087Y48585D01*
X135971Y48000D01*
X136045Y47626D01*
X134589Y46171D01*
X134423Y45923D01*
X134365Y45630D01*
Y44722D01*
X133968D01*
X133586Y44564D01*
X133427Y44181D01*
Y41819D01*
X133586Y41436D01*
X133526Y40920D01*
X133462Y40765D01*
X130293D01*
X130081Y41081D01*
X129585Y41413D01*
X129000Y41529D01*
X128415Y41413D01*
X127919Y41081D01*
X127587Y40585D01*
X127471Y40000D01*
X127587Y39415D01*
X127919Y38919D01*
X128415Y38587D01*
X129000Y38471D01*
X129585Y38587D01*
X130081Y38919D01*
X130293Y39235D01*
X133427D01*
Y38319D01*
X133586Y37936D01*
Y37564D01*
X133526Y37420D01*
X133427Y37181D01*
Y36765D01*
X130793D01*
X130581Y37081D01*
X130085Y37413D01*
X129500Y37529D01*
X128915Y37413D01*
X128419Y37081D01*
X128087Y36585D01*
X127971Y36000D01*
X128087Y35415D01*
X128419Y34919D01*
X128915Y34587D01*
X129500Y34471D01*
X130085Y34587D01*
X130581Y34919D01*
X130793Y35235D01*
X133427D01*
Y34819D01*
X133586Y34436D01*
X133968Y34278D01*
X135996D01*
X136379Y34436D01*
X136537Y34819D01*
Y37181D01*
X136379Y37564D01*
Y37936D01*
X136438Y38080D01*
X136537Y38319D01*
Y40681D01*
X136379Y41064D01*
Y41436D01*
X136438Y41580D01*
X136537Y41819D01*
Y44181D01*
X136379Y44564D01*
X135996Y44722D01*
X135895D01*
Y45313D01*
X137126Y46545D01*
X137500Y46471D01*
X138085Y46587D01*
X138581Y46919D01*
X138913Y47415D01*
X139029Y48000D01*
X138913Y48585D01*
X138813Y48735D01*
X139080Y49235D01*
X139920D01*
X140187Y48735D01*
X140087Y48585D01*
X139971Y48000D01*
X140087Y47415D01*
X140419Y46919D01*
X140915Y46587D01*
X141500Y46471D01*
X142085Y46587D01*
X142581Y46919D01*
X142913Y47415D01*
X143029Y48000D01*
X142913Y48585D01*
X142813Y48735D01*
X143080Y49235D01*
X143920D01*
X144187Y48735D01*
X144087Y48585D01*
X143971Y48000D01*
X144087Y47415D01*
X144419Y46919D01*
X144915Y46587D01*
X145500Y46471D01*
X146085Y46587D01*
X146581Y46919D01*
X146913Y47415D01*
X147029Y48000D01*
X146913Y48585D01*
X146813Y48735D01*
X146931Y49052D01*
X147071Y49249D01*
X147293Y49294D01*
X147541Y49459D01*
X148447Y50365D01*
X150278D01*
Y49968D01*
X150436Y49586D01*
X150819Y49427D01*
X153181D01*
X153564Y49586D01*
X153722Y49968D01*
Y50566D01*
X154947D01*
Y49264D01*
X155105Y48881D01*
X155488Y48723D01*
X158047D01*
X158430Y48881D01*
X158464Y48963D01*
X158964Y48863D01*
Y48222D01*
X158468D01*
X158086Y48064D01*
X157927Y47681D01*
Y45319D01*
X158086Y44936D01*
X158468Y44778D01*
X160489D01*
X160509Y44757D01*
X160767Y44349D01*
X158589Y42171D01*
X158423Y41923D01*
X158423Y41919D01*
X157949D01*
X157566Y41761D01*
X157408Y41378D01*
Y38622D01*
X157566Y38239D01*
X157949Y38081D01*
X160311D01*
X160694Y38239D01*
X160729Y38326D01*
X161271D01*
X161306Y38239D01*
X161689Y38081D01*
X162105D01*
Y37222D01*
X162004D01*
X161621Y37064D01*
X161463Y36681D01*
Y34319D01*
X161621Y33936D01*
X162004Y33778D01*
X164032D01*
X164414Y33936D01*
X164573Y34319D01*
Y36681D01*
X164414Y37064D01*
X164032Y37222D01*
X163635D01*
Y38081D01*
X164051D01*
X164434Y38239D01*
X164592Y38622D01*
Y41378D01*
X164434Y41761D01*
X164051Y41919D01*
X161689D01*
X161397Y41798D01*
X160954Y41892D01*
X160837Y41935D01*
X160756Y42175D01*
X161817Y43235D01*
X166207D01*
X166419Y42919D01*
X166915Y42587D01*
X167500Y42471D01*
X168085Y42587D01*
X168581Y42919D01*
X168913Y43415D01*
X169029Y44000D01*
X168913Y44585D01*
X168581Y45081D01*
X168085Y45413D01*
X167500Y45529D01*
X166915Y45413D01*
X166419Y45081D01*
X166207Y44765D01*
X165604D01*
X165523Y44820D01*
X165234Y45265D01*
X165245Y45319D01*
Y46150D01*
X161790D01*
Y45319D01*
X161438Y45032D01*
X161321Y45116D01*
X161037Y45449D01*
Y47681D01*
X160879Y48064D01*
X160496Y48222D01*
X160493D01*
Y49772D01*
X160435Y50064D01*
X160269Y50312D01*
X160269Y50312D01*
X158710Y51871D01*
X158588Y51953D01*
Y53398D01*
X158430Y53780D01*
X158047Y53939D01*
X157532D01*
Y55848D01*
X158032Y56115D01*
X158074Y56087D01*
X158660Y55971D01*
X159245Y56087D01*
X159741Y56419D01*
X159812Y56524D01*
X160343Y56419D01*
X160399Y56137D01*
X160774Y55574D01*
X161337Y55199D01*
X161650Y55136D01*
Y56800D01*
Y58464D01*
X161337Y58401D01*
X160774Y58026D01*
X160636Y57818D01*
X160105Y57924D01*
X160073Y58085D01*
X159741Y58581D01*
X159245Y58913D01*
X158660Y59029D01*
X158074Y58913D01*
X158032Y58885D01*
X157532Y59152D01*
Y65061D01*
X158047D01*
X158430Y65220D01*
X158588Y65602D01*
Y69736D01*
X158430Y70119D01*
X158047Y70277D01*
X155488D01*
X155105Y70119D01*
X154947Y69736D01*
Y65602D01*
X155105Y65220D01*
X155488Y65061D01*
X156003D01*
Y53939D01*
X155488D01*
X155105Y53780D01*
X154947Y53398D01*
Y52095D01*
X153681D01*
X153564Y52379D01*
X153181Y52537D01*
X150819D01*
X150436Y52379D01*
X150278Y51996D01*
Y51895D01*
X148130D01*
X148014Y51872D01*
X147922Y51896D01*
X147572Y52117D01*
X147489Y52205D01*
X147413Y52585D01*
X147081Y53081D01*
X146585Y53413D01*
X146000Y53529D01*
X145415Y53413D01*
X144919Y53081D01*
X144587Y52585D01*
X144471Y52000D01*
X144587Y51415D01*
X144687Y51265D01*
X144420Y50765D01*
X142580D01*
X142313Y51265D01*
X142413Y51415D01*
X142529Y52000D01*
X142413Y52585D01*
X142081Y53081D01*
X141585Y53413D01*
X141000Y53529D01*
X140415Y53413D01*
X139919Y53081D01*
X139587Y52585D01*
X139471Y52000D01*
X139587Y51415D01*
X139687Y51265D01*
X139420Y50765D01*
X135080D01*
X134813Y51265D01*
X134913Y51415D01*
X135029Y52000D01*
X134913Y52585D01*
X134581Y53081D01*
X134085Y53413D01*
X133500Y53529D01*
X132915Y53413D01*
X132419Y53081D01*
X132087Y52585D01*
X131971Y52000D01*
X132087Y51415D01*
X132336Y51043D01*
X132401Y50821D01*
X132324Y50380D01*
X131209Y49266D01*
X131134Y49154D01*
X130599Y49079D01*
X130581Y49082D01*
X130085Y49413D01*
X129500Y49529D01*
X128915Y49413D01*
X128419Y49081D01*
X128087Y48585D01*
X127971Y48000D01*
X128087Y47415D01*
X128419Y46919D01*
X128845Y46634D01*
X129021Y46102D01*
X128374Y45455D01*
X128000Y45529D01*
X127541Y45438D01*
X127041Y45719D01*
Y46250D01*
X126883Y46633D01*
X126500Y46791D01*
X121500D01*
X121117Y46633D01*
X120996Y46340D01*
X120677Y46221D01*
X120459Y46199D01*
X120330Y46349D01*
Y46704D01*
X120374Y46811D01*
X120488Y47087D01*
Y47642D01*
X120661D01*
X121052Y47719D01*
X121382Y47940D01*
X121503Y48061D01*
X121750Y47959D01*
X124250D01*
X124633Y48117D01*
X124791Y48500D01*
Y53500D01*
X124633Y53883D01*
X124250Y54041D01*
X121750D01*
X121367Y53883D01*
X121209Y53500D01*
Y50775D01*
X121189Y50758D01*
X120573Y50887D01*
X120519Y50999D01*
X120547Y51055D01*
X120607Y51144D01*
X120661Y51417D01*
Y52642D01*
X116995D01*
Y53342D01*
X120661D01*
Y54567D01*
X120607Y54840D01*
X120547Y54929D01*
X120330Y55365D01*
X120488Y55748D01*
Y58898D01*
X120330Y59280D01*
X120547Y59716D01*
X120607Y59806D01*
X120661Y60079D01*
Y61304D01*
X116995D01*
Y61654D01*
X116645D01*
Y63942D01*
X115914D01*
X115543Y64410D01*
Y67012D01*
X113254D01*
Y67362D01*
X112904D01*
Y71029D01*
X111679D01*
X111406Y70974D01*
X111317Y70915D01*
X110881Y70698D01*
X110498Y70856D01*
X107349D01*
X106966Y70698D01*
X106550D01*
X106443Y70742D01*
X106168Y70856D01*
X103018D01*
X102635Y70698D01*
X102220D01*
X102113Y70742D01*
X101837Y70856D01*
X98687D01*
X98305Y70698D01*
X97889D01*
X97782Y70742D01*
X97506Y70856D01*
X94357D01*
X93974Y70698D01*
X93558D01*
X93451Y70742D01*
X93176Y70856D01*
X90026D01*
X89643Y70698D01*
X89228D01*
X89121Y70742D01*
X88845Y70856D01*
X85695D01*
X85313Y70698D01*
X84897D01*
X84790Y70742D01*
X84614Y70815D01*
X84426Y71172D01*
X84374Y71356D01*
X84413Y71415D01*
X84529Y72000D01*
X84413Y72585D01*
X84081Y73081D01*
X83585Y73413D01*
X83000Y73529D01*
X82415Y73413D01*
X81919Y73081D01*
X81587Y72585D01*
X81471Y72000D01*
X81587Y71415D01*
X81626Y71356D01*
X81365Y70856D01*
X80982Y70698D01*
X80566D01*
X80459Y70742D01*
X80184Y70856D01*
X77034D01*
X76651Y70698D01*
X76235D01*
X76128Y70742D01*
X75853Y70856D01*
X72703D01*
X72320Y70698D01*
X71884Y70915D01*
X71795Y70974D01*
X71522Y71029D01*
X70297D01*
Y67362D01*
Y63696D01*
X71522D01*
X71795Y63750D01*
X71884Y63810D01*
X72320Y64027D01*
X72703Y63868D01*
X75853D01*
X76185Y64006D01*
X76319Y63972D01*
X76542Y63651D01*
X76575Y63527D01*
X76471Y63000D01*
X76587Y62415D01*
X76919Y61919D01*
X77415Y61587D01*
X78000Y61471D01*
X78585Y61587D01*
X78635Y61620D01*
X79076Y61385D01*
Y60615D01*
X78635Y60380D01*
X78585Y60413D01*
X78000Y60529D01*
X77415Y60413D01*
X76919Y60081D01*
X76587Y59585D01*
X76471Y59000D01*
X76587Y58415D01*
X76919Y57919D01*
X77415Y57587D01*
X78000Y57471D01*
X78585Y57587D01*
X78844Y57760D01*
X79285Y57999D01*
X79517Y57845D01*
X79790Y57790D01*
X81605D01*
Y60669D01*
X81955D01*
Y61019D01*
X84834D01*
Y62835D01*
X84780Y63108D01*
X84625Y63339D01*
X84556Y63386D01*
X84546Y63505D01*
X84633Y63917D01*
X84897Y64027D01*
X85313D01*
X85587Y63585D01*
X85471Y63000D01*
X85587Y62415D01*
X85919Y61919D01*
X86415Y61587D01*
X87000Y61471D01*
X87585Y61587D01*
X88081Y61919D01*
X88413Y62415D01*
X88529Y63000D01*
X88456Y63368D01*
X88779Y63868D01*
X88845D01*
X89228Y64027D01*
X89643D01*
X89750Y63982D01*
X90026Y63868D01*
X90221D01*
X90544Y63368D01*
X90471Y63000D01*
X90587Y62415D01*
X90919Y61919D01*
X91415Y61587D01*
X92000Y61471D01*
X92585Y61587D01*
X92749Y61697D01*
X93249Y61429D01*
Y61019D01*
X96128D01*
X99007D01*
Y62835D01*
X98953Y63108D01*
X98798Y63339D01*
X98755Y63368D01*
X98907Y63868D01*
X100437D01*
X100588Y63368D01*
X100545Y63339D01*
X100390Y63108D01*
X100336Y62835D01*
Y61019D01*
X103215D01*
X106094D01*
Y62835D01*
X106040Y63108D01*
X105885Y63339D01*
X105842Y63368D01*
X105993Y63868D01*
X106168D01*
X106550Y64027D01*
X106966D01*
X107073Y63982D01*
X107349Y63868D01*
X107523D01*
X107675Y63368D01*
X107632Y63339D01*
X107477Y63108D01*
X107422Y62835D01*
Y61019D01*
X110301D01*
Y60669D01*
X110652D01*
Y57790D01*
X112467D01*
X112740Y57845D01*
X112972Y57999D01*
X113001Y58043D01*
X113500Y57891D01*
Y55748D01*
X113586Y55541D01*
X113405Y55244D01*
X112845Y55156D01*
X112740Y55226D01*
X112467Y55281D01*
X110652D01*
Y52402D01*
Y49523D01*
X112467D01*
X112740Y49577D01*
X112972Y49732D01*
X113001Y49775D01*
X113500Y49623D01*
Y47087D01*
X113624Y46789D01*
X113605Y46723D01*
X113594Y46703D01*
X113425Y46656D01*
X113094Y46620D01*
X112972Y46804D01*
X112740Y46959D01*
X112467Y47013D01*
X110652D01*
Y44134D01*
Y41255D01*
X112467D01*
X112740Y41309D01*
X112972Y41464D01*
X113001Y41507D01*
X113500Y41355D01*
Y38645D01*
X113001Y38493D01*
X112972Y38536D01*
X112740Y38691D01*
X112467Y38745D01*
X110652D01*
Y35866D01*
Y32987D01*
X112467D01*
X112740Y33041D01*
X112972Y33196D01*
X113094Y33380D01*
X113425Y33344D01*
X113594Y33297D01*
X113605Y33277D01*
X113624Y33211D01*
X113500Y32913D01*
Y30377D01*
X113001Y30225D01*
X112972Y30268D01*
X112740Y30423D01*
X112467Y30477D01*
X110652D01*
Y27599D01*
Y24719D01*
X112467D01*
X112740Y24774D01*
X112972Y24928D01*
X113522Y24899D01*
X113659Y24806D01*
Y24635D01*
X113615Y24528D01*
X113500Y24252D01*
Y22109D01*
X113001Y21958D01*
X112972Y22001D01*
X112740Y22155D01*
X112467Y22210D01*
X110652D01*
Y19331D01*
X109951D01*
Y22210D01*
X108136D01*
X107863Y22155D01*
X107632Y22001D01*
X107477Y21769D01*
X107422Y21496D01*
Y21123D01*
X107250Y20982D01*
Y19100D01*
X106550D01*
Y20807D01*
X106094Y21162D01*
Y21496D01*
X106040Y21769D01*
X105885Y22001D01*
X105653Y22155D01*
X105380Y22210D01*
X103565D01*
Y19331D01*
X102865D01*
Y22210D01*
X101050D01*
X100777Y22155D01*
X100545Y22001D01*
X100390Y21769D01*
X100336Y21496D01*
Y21142D01*
X99850Y20777D01*
Y19100D01*
X99150D01*
Y21012D01*
X99007Y21129D01*
Y21496D01*
X98953Y21769D01*
X98798Y22001D01*
X98567Y22155D01*
X98294Y22210D01*
X96832D01*
X96498Y22673D01*
X96566Y23150D01*
X97006Y23360D01*
X97415Y23087D01*
X98000Y22971D01*
X98585Y23087D01*
X99081Y23419D01*
X99413Y23915D01*
X99529Y24500D01*
X99413Y25085D01*
X99081Y25581D01*
X98585Y25913D01*
X98000Y26029D01*
X97415Y25913D01*
X96919Y25581D01*
X96587Y25085D01*
X96471Y24500D01*
X96499Y24356D01*
X96202Y24161D01*
X96038Y24110D01*
X95585Y24413D01*
X95000Y24529D01*
X94415Y24413D01*
X93919Y24081D01*
X93587Y23585D01*
X93471Y23000D01*
X93587Y22415D01*
X93458Y22001D01*
X93304Y21769D01*
X93249Y21496D01*
Y19681D01*
X96128D01*
Y18981D01*
X93249D01*
Y17165D01*
X93304Y16892D01*
X93458Y16661D01*
X93642Y16538D01*
X93606Y16207D01*
X93559Y16038D01*
X93539Y16027D01*
X93473Y16009D01*
X93176Y16132D01*
X90026D01*
X89643Y15973D01*
X89228D01*
X89121Y16018D01*
X88845Y16132D01*
X88224D01*
X88113Y16632D01*
X89341Y17859D01*
X89341Y17859D01*
X89355Y17881D01*
X89385Y17887D01*
X89881Y18219D01*
X90213Y18715D01*
X90329Y19300D01*
X90213Y19885D01*
X89881Y20381D01*
X89385Y20713D01*
X88800Y20829D01*
X88215Y20713D01*
X87719Y20381D01*
X87387Y19885D01*
X87271Y19300D01*
X87387Y18715D01*
X87646Y18327D01*
X86729Y17411D01*
X86564Y17163D01*
X86505Y16870D01*
Y16132D01*
X85695D01*
X85313Y15973D01*
X84876Y16190D01*
X84849Y16209D01*
X84768Y16373D01*
X84703Y16777D01*
X84780Y16892D01*
X84834Y17165D01*
Y18981D01*
X81955D01*
X79076D01*
Y18615D01*
X78635Y18380D01*
X78585Y18413D01*
X78000Y18529D01*
X77415Y18413D01*
X76919Y18081D01*
X76587Y17585D01*
X76471Y17000D01*
X76575Y16473D01*
X76541Y16349D01*
X76319Y16029D01*
X76185Y15994D01*
X75940Y16095D01*
X75846Y16144D01*
X75576Y16632D01*
X75629Y16900D01*
X75513Y17485D01*
X75181Y17981D01*
X74685Y18313D01*
X74100Y18429D01*
X73726Y18355D01*
X70441Y21641D01*
X70193Y21806D01*
X69900Y21865D01*
X63793D01*
X63581Y22181D01*
X63085Y22513D01*
X62500Y22629D01*
X61915Y22513D01*
X61419Y22181D01*
X61231Y21901D01*
X61156Y21880D01*
X60663Y21921D01*
X60609Y22001D01*
X60378Y22155D01*
X60105Y22210D01*
X58289D01*
Y19681D01*
X60818D01*
Y20017D01*
X61318Y20168D01*
X61419Y20019D01*
X61915Y19687D01*
X62500Y19571D01*
X63085Y19687D01*
X63581Y20019D01*
X63987Y19785D01*
X63871Y19200D01*
X63987Y18615D01*
X64319Y18119D01*
X64815Y17787D01*
X65400Y17671D01*
X65985Y17787D01*
X66481Y18119D01*
X66813Y18615D01*
X66929Y19200D01*
X66813Y19785D01*
X66780Y19835D01*
X67047Y20335D01*
X69583D01*
X72645Y17274D01*
X72571Y16900D01*
X72630Y16601D01*
X72676Y16305D01*
X72320Y15973D01*
X72320Y15973D01*
X71905D01*
X71798Y16018D01*
X71522Y16132D01*
X68372D01*
X67990Y15973D01*
X67554Y16190D01*
X67464Y16250D01*
X67191Y16304D01*
X65966D01*
Y12638D01*
Y8971D01*
X67191D01*
X67464Y9026D01*
X67554Y9085D01*
X67990Y9302D01*
X68372Y9144D01*
X71522D01*
X71905Y9302D01*
X72320D01*
X72428Y9258D01*
X72703Y9144D01*
X75853D01*
X76235Y9302D01*
X76651D01*
X76758Y9258D01*
X77034Y9144D01*
X80184D01*
X80566Y9302D01*
X81002Y9085D01*
X81091Y9026D01*
X81365Y8971D01*
X82589D01*
Y12638D01*
X83289D01*
Y8971D01*
X84514D01*
X84787Y9026D01*
X84876Y9085D01*
X85313Y9302D01*
X85695Y9144D01*
X88845D01*
X89228Y9302D01*
X89643D01*
X89750Y9258D01*
X90026Y9144D01*
X91860D01*
X92012Y8644D01*
X91919Y8581D01*
X91587Y8085D01*
X91471Y7500D01*
X91587Y6915D01*
X91919Y6419D01*
X92415Y6087D01*
X93000Y5971D01*
X93585Y6087D01*
X94081Y6419D01*
X94413Y6915D01*
X94529Y7500D01*
X94413Y8085D01*
X94081Y8581D01*
X93988Y8644D01*
X94022Y9213D01*
X94102Y9249D01*
X94357Y9144D01*
X97506D01*
X97889Y9302D01*
X98305D01*
X98412Y9258D01*
X98687Y9144D01*
X100275D01*
X101045Y8374D01*
X100971Y8000D01*
X101051Y7594D01*
X100584Y7382D01*
X100496Y7496D01*
X99765Y8057D01*
X98914Y8410D01*
X98000Y8530D01*
X97086Y8410D01*
X96235Y8057D01*
X95504Y7496D01*
X94943Y6765D01*
X94590Y5914D01*
X94502Y5246D01*
X94359Y4900D01*
Y2000D01*
X91841D01*
Y4900D01*
X91683Y5283D01*
X91482Y5366D01*
X91410Y5914D01*
X91057Y6765D01*
X90496Y7496D01*
X89765Y8057D01*
X88914Y8410D01*
X88000Y8530D01*
X87086Y8410D01*
X86235Y8057D01*
X85504Y7496D01*
X84943Y6765D01*
X84590Y5914D01*
X84502Y5246D01*
X84359Y4900D01*
Y2000D01*
X81841D01*
Y4900D01*
X81683Y5283D01*
X81482Y5366D01*
X81410Y5914D01*
X81057Y6765D01*
X80496Y7496D01*
X79765Y8057D01*
X78914Y8410D01*
X78000Y8530D01*
X77086Y8410D01*
X76235Y8057D01*
X75504Y7496D01*
X74943Y6765D01*
X74590Y5914D01*
X74502Y5246D01*
X74359Y4900D01*
Y2000D01*
X71841D01*
Y4900D01*
X71683Y5283D01*
X71482Y5366D01*
X71410Y5914D01*
X71057Y6765D01*
X70496Y7496D01*
X69765Y8057D01*
X68914Y8410D01*
X68000Y8530D01*
X67086Y8410D01*
X66235Y8057D01*
X65504Y7496D01*
X64943Y6765D01*
X64590Y5914D01*
X64502Y5246D01*
X64359Y4900D01*
Y2000D01*
X61841D01*
Y4900D01*
X61683Y5283D01*
X61482Y5366D01*
X61410Y5914D01*
X61057Y6765D01*
X60496Y7496D01*
X59765Y8057D01*
X58914Y8410D01*
X58000Y8530D01*
X57086Y8410D01*
X56235Y8057D01*
X55504Y7496D01*
X54943Y6765D01*
X54590Y5914D01*
X54502Y5246D01*
X54359Y4900D01*
Y2000D01*
X51841D01*
Y4900D01*
X51683Y5283D01*
X51482Y5366D01*
X51410Y5914D01*
X51057Y6765D01*
X50496Y7496D01*
X49765Y8057D01*
X48914Y8410D01*
X48000Y8530D01*
X47086Y8410D01*
X46235Y8057D01*
X45504Y7496D01*
X45010Y6853D01*
X44547Y6995D01*
X44529Y7004D01*
X44529Y7004D01*
X44413Y7585D01*
X44081Y8081D01*
X43585Y8413D01*
X43292Y8471D01*
X43341Y8971D01*
X43613D01*
Y12638D01*
X44313D01*
Y8971D01*
X45538D01*
X45811Y9026D01*
X45900Y9085D01*
X46336Y9302D01*
X46719Y9144D01*
X49869D01*
X50251Y9302D01*
X50667D01*
X50774Y9258D01*
X51050Y9144D01*
X54199D01*
X54582Y9302D01*
X54998D01*
X55105Y9258D01*
X55380Y9144D01*
X58530D01*
X58913Y9302D01*
X59349Y9085D01*
X59438Y9026D01*
X59711Y8971D01*
X60936D01*
Y12638D01*
Y16304D01*
X60927D01*
X60891Y16344D01*
X60705Y16804D01*
X60764Y16892D01*
X60818Y17165D01*
Y18981D01*
X57939D01*
Y19331D01*
X57589D01*
Y22210D01*
X55774D01*
X55501Y22155D01*
X55269Y22001D01*
X55115Y21769D01*
X55060Y21496D01*
Y20556D01*
X54560Y20336D01*
X54163Y20601D01*
X53850Y20664D01*
Y19000D01*
Y17336D01*
X54163Y17399D01*
X54560Y17664D01*
X55060Y17444D01*
Y17165D01*
X55115Y16892D01*
X55269Y16661D01*
X55339Y16614D01*
X55349Y16495D01*
X55262Y16083D01*
X54998Y15973D01*
X54582D01*
X54475Y16018D01*
X54199Y16132D01*
X51050D01*
X50667Y15973D01*
X50251D01*
X50232Y15981D01*
X50001Y16537D01*
X50064Y16850D01*
X48400D01*
Y17200D01*
X48050D01*
Y18864D01*
X47737Y18801D01*
X47174Y18426D01*
X47145Y18382D01*
X46645Y18534D01*
Y18981D01*
X43766D01*
X40887D01*
Y17165D01*
X40941Y16892D01*
X41096Y16661D01*
X41139Y16632D01*
X40988Y16132D01*
X39458D01*
X39306Y16632D01*
X39349Y16661D01*
X39504Y16892D01*
X39559Y17165D01*
Y18981D01*
X36680D01*
X33801D01*
Y17165D01*
X33855Y16892D01*
X33914Y16804D01*
X33746Y16356D01*
X33696Y16298D01*
X33454Y16250D01*
X33364Y16190D01*
X32928Y15973D01*
X32546Y16132D01*
X32371D01*
X32220Y16632D01*
X32263Y16661D01*
X32418Y16892D01*
X32472Y17165D01*
Y18981D01*
X29593D01*
Y19331D01*
X29243D01*
Y22210D01*
X27428D01*
X27154Y22155D01*
X27066Y22097D01*
X26606Y22283D01*
X26566Y22318D01*
Y22327D01*
X22900D01*
X19233D01*
Y22251D01*
X18733Y22201D01*
X18701Y22363D01*
X18326Y22926D01*
X17763Y23301D01*
X17450Y23364D01*
Y21700D01*
Y20036D01*
X17763Y20099D01*
X18326Y20474D01*
X18701Y21037D01*
X18733Y21199D01*
X19233Y21149D01*
Y21102D01*
X19288Y20829D01*
X19443Y20598D01*
Y20426D01*
X19288Y20194D01*
X19233Y19921D01*
Y18697D01*
X22900D01*
Y18347D01*
X23250D01*
Y16058D01*
X23980D01*
X24352Y15591D01*
Y12988D01*
X26640D01*
Y12638D01*
X26990D01*
Y8971D01*
X27520D01*
X27553Y8471D01*
X27086Y8410D01*
X26235Y8057D01*
X25504Y7496D01*
X24943Y6765D01*
X24590Y5914D01*
X24502Y5246D01*
X24359Y4900D01*
Y2000D01*
X21841D01*
Y4900D01*
X21683Y5283D01*
X21482Y5366D01*
X21410Y5914D01*
X21057Y6765D01*
X20496Y7496D01*
X19765Y8057D01*
X18914Y8410D01*
X18000Y8530D01*
X17086Y8410D01*
X16235Y8057D01*
X15504Y7496D01*
X14943Y6765D01*
X14590Y5914D01*
X14502Y5246D01*
X14359Y4900D01*
Y2000D01*
X9816D01*
X9667Y2500D01*
X10402Y3458D01*
X10910Y4684D01*
X11037Y5650D01*
X6000D01*
Y6000D01*
X5650D01*
Y11037D01*
X4684Y10910D01*
X3458Y10402D01*
X2500Y9667D01*
X2000Y9816D01*
Y14789D01*
X2500Y15057D01*
X2737Y14899D01*
X3050Y14836D01*
Y16500D01*
X3750D01*
Y14836D01*
X3908Y14868D01*
X4314Y14628D01*
X4408Y14527D01*
Y12122D01*
X4566Y11739D01*
X4949Y11581D01*
X7311D01*
X7694Y11739D01*
X7729Y11825D01*
X8271D01*
X8306Y11739D01*
X8689Y11581D01*
X11051D01*
X11434Y11739D01*
X11592Y12122D01*
Y12735D01*
X12183D01*
X12545Y12374D01*
X12471Y12000D01*
X12587Y11415D01*
X12919Y10919D01*
X13415Y10587D01*
X14000Y10471D01*
X14585Y10587D01*
X15081Y10919D01*
X15413Y11415D01*
X15529Y12000D01*
X15413Y12585D01*
X15081Y13081D01*
X14585Y13413D01*
X14000Y13529D01*
X13626Y13455D01*
X13041Y14041D01*
X12793Y14207D01*
X12500Y14265D01*
X11592D01*
Y14878D01*
X11434Y15261D01*
X11051Y15419D01*
X8689D01*
X8306Y15261D01*
X8271Y15174D01*
X7729D01*
X7694Y15261D01*
X7604Y15298D01*
X7480Y15881D01*
X9177Y17578D01*
X10131D01*
X10514Y17736D01*
X10673Y18119D01*
Y20481D01*
X10514Y20864D01*
X10327Y20942D01*
X10219Y21416D01*
X10234Y21484D01*
X10373Y21819D01*
Y22270D01*
X10493Y22294D01*
X10741Y22459D01*
X12326Y24045D01*
X12700Y23971D01*
X13285Y24087D01*
X13781Y24419D01*
X14113Y24915D01*
X14229Y25500D01*
X14113Y26085D01*
X13781Y26581D01*
X13285Y26913D01*
X12700Y27029D01*
X12326Y26955D01*
X11941Y27341D01*
X11739Y27476D01*
Y28080D01*
X11580Y28462D01*
X11198Y28621D01*
X10252D01*
X9991Y29121D01*
X10073Y29319D01*
Y29735D01*
X11100D01*
X11287Y29773D01*
X11800Y29671D01*
X12385Y29787D01*
X12881Y30119D01*
X13213Y30615D01*
X13329Y31200D01*
X13213Y31785D01*
X12881Y32281D01*
X12385Y32613D01*
X11818Y32726D01*
X11277Y33267D01*
Y35680D01*
X11118Y36062D01*
X10985Y36117D01*
X11006Y36650D01*
X11218Y36738D01*
X11377Y37121D01*
Y39533D01*
X11941Y40097D01*
X12106Y40345D01*
X12165Y40638D01*
Y40907D01*
X12481Y41119D01*
X12813Y41615D01*
X12929Y42200D01*
X12813Y42785D01*
X12481Y43281D01*
X11985Y43613D01*
X11400Y43729D01*
X10983Y43646D01*
X10893Y43707D01*
X10600Y43765D01*
X9961D01*
X9868Y43912D01*
X10145Y44412D01*
X14331D01*
X14604Y44467D01*
X14835Y44621D01*
X14990Y44853D01*
X15044Y45126D01*
Y46843D01*
X10000D01*
Y47193D01*
X9650D01*
Y49974D01*
X6640D01*
X6488Y50474D01*
X6568Y50527D01*
X6722Y50758D01*
X6777Y51032D01*
Y52650D01*
X3996D01*
Y53350D01*
X6777D01*
Y54969D01*
X6722Y55242D01*
X6568Y55473D01*
X6488Y55526D01*
X6640Y56026D01*
X9650D01*
Y58807D01*
Y61588D01*
X5669D01*
X5396Y61533D01*
X5165Y61379D01*
X5010Y61147D01*
X4956Y60874D01*
Y60461D01*
X4456Y60143D01*
X4350Y60164D01*
Y58500D01*
X3650D01*
Y60164D01*
X3337Y60101D01*
X2774Y59726D01*
X2500Y59315D01*
X2000Y59467D01*
Y78000D01*
X3055D01*
Y77750D01*
X4782D01*
X6510D01*
Y78000D01*
X7263D01*
Y76219D01*
X7421Y75836D01*
X7543Y75786D01*
Y74773D01*
X7521Y74764D01*
X7363Y74381D01*
Y72019D01*
X7521Y71636D01*
X7543Y71627D01*
Y70614D01*
X7421Y70564D01*
X7263Y70181D01*
Y67819D01*
X7421Y67436D01*
X7443Y67427D01*
Y66414D01*
X7321Y66364D01*
X7163Y65981D01*
Y63619D01*
X7321Y63236D01*
X7704Y63078D01*
X9731D01*
X10114Y63236D01*
X10234Y63525D01*
X13600D01*
X14088Y63622D01*
X14501Y63899D01*
X16544Y65941D01*
X17112Y65899D01*
X17242Y65704D01*
X18003Y65196D01*
X18900Y65017D01*
X19797Y65196D01*
X20558Y65704D01*
X20815Y66088D01*
X24524D01*
Y64410D01*
X24177Y63942D01*
X23250D01*
Y61654D01*
X22900D01*
Y61304D01*
X19233D01*
Y60079D01*
X19288Y59806D01*
X19443Y59574D01*
Y59402D01*
X19288Y59171D01*
X19233Y58898D01*
Y57673D01*
X22900D01*
X26566D01*
Y57682D01*
X26606Y57717D01*
X27066Y57903D01*
X27154Y57845D01*
X27428Y57790D01*
X29243D01*
Y60669D01*
X29593D01*
Y61019D01*
X32472D01*
Y62835D01*
X32418Y63108D01*
X32263Y63339D01*
X32220Y63368D01*
X32371Y63868D01*
X32546D01*
X32915Y64021D01*
X32928Y64027D01*
X33344D01*
X33357Y64021D01*
X33727Y63868D01*
X33901D01*
X34053Y63368D01*
X34010Y63339D01*
X33855Y63108D01*
X33801Y62835D01*
Y61019D01*
X36680D01*
Y60669D01*
X37029D01*
Y57790D01*
X38845D01*
X39118Y57845D01*
X39349Y57999D01*
X39504Y58231D01*
X39559Y58504D01*
Y58604D01*
X39950Y58926D01*
Y60700D01*
X40650D01*
Y58884D01*
X40887Y58689D01*
Y58504D01*
X40941Y58231D01*
X41096Y57999D01*
X41328Y57845D01*
X41601Y57790D01*
X43416D01*
Y60669D01*
X43766D01*
Y61019D01*
X46645D01*
Y62835D01*
X46591Y63108D01*
X46436Y63339D01*
X46253Y63462D01*
X46288Y63793D01*
X46336Y63962D01*
X46356Y63973D01*
X46421Y63991D01*
X46719Y63868D01*
X49869D01*
X50251Y64027D01*
X50667D01*
X50774Y63982D01*
X51050Y63868D01*
X54199D01*
X54582Y64027D01*
X54998D01*
X55105Y63982D01*
X55262Y63917D01*
X55349Y63505D01*
X55339Y63386D01*
X55269Y63339D01*
X55115Y63108D01*
X55060Y62835D01*
Y61019D01*
X57939D01*
Y60669D01*
X58289D01*
Y57790D01*
X60105D01*
X60378Y57845D01*
X60609Y57999D01*
X60764Y58231D01*
X60818Y58504D01*
Y60060D01*
X61282Y60313D01*
X61318Y60307D01*
X61674Y59774D01*
X62237Y59399D01*
X62550Y59336D01*
Y61000D01*
Y62664D01*
X62237Y62601D01*
X61674Y62226D01*
X61318Y61693D01*
X61282Y61687D01*
X60818Y61940D01*
Y62835D01*
X60764Y63108D01*
X60609Y63339D01*
X60566Y63368D01*
X60718Y63868D01*
X62861D01*
X63243Y64027D01*
X63659D01*
X63766Y63982D01*
X64042Y63868D01*
X67191D01*
X67574Y64027D01*
X68010Y63810D01*
X68099Y63750D01*
X68372Y63696D01*
X69597D01*
Y67362D01*
Y71029D01*
X68480D01*
X68447Y71529D01*
X68914Y71590D01*
X69765Y71943D01*
X70496Y72504D01*
X71057Y73235D01*
X71410Y74086D01*
X71498Y74754D01*
X71641Y75100D01*
Y78000D01*
X74159D01*
Y75100D01*
X74317Y74717D01*
X74518Y74634D01*
X74590Y74086D01*
X74943Y73235D01*
X75504Y72504D01*
X76235Y71943D01*
X77086Y71590D01*
X78000Y71470D01*
X78914Y71590D01*
X79765Y71943D01*
X80496Y72504D01*
X81057Y73235D01*
X81410Y74086D01*
X81498Y74754D01*
X81641Y75100D01*
Y78000D01*
X84159D01*
Y75100D01*
X84317Y74717D01*
X84518Y74634D01*
X84590Y74086D01*
X84943Y73235D01*
X85504Y72504D01*
X86235Y71943D01*
X87086Y71590D01*
X88000Y71470D01*
X88914Y71590D01*
X89765Y71943D01*
X90496Y72504D01*
X91057Y73235D01*
X91410Y74086D01*
X91498Y74754D01*
X91641Y75100D01*
Y78000D01*
X94159D01*
Y75100D01*
X94317Y74717D01*
X94518Y74634D01*
X94590Y74086D01*
X94943Y73235D01*
X95504Y72504D01*
X96235Y71943D01*
X97086Y71590D01*
X98000Y71470D01*
X98914Y71590D01*
X99765Y71943D01*
X100496Y72504D01*
X101057Y73235D01*
X101410Y74086D01*
X101498Y74754D01*
X101641Y75100D01*
Y78000D01*
X104159D01*
Y75100D01*
X104317Y74717D01*
X104518Y74634D01*
X104590Y74086D01*
X104943Y73235D01*
X105504Y72504D01*
X106235Y71943D01*
X107086Y71590D01*
X108000Y71470D01*
X108914Y71590D01*
X109765Y71943D01*
X110496Y72504D01*
X111057Y73235D01*
X111410Y74086D01*
X111498Y74754D01*
X111641Y75100D01*
Y78000D01*
X114159D01*
Y75100D01*
X114317Y74717D01*
X114518Y74634D01*
X114590Y74086D01*
X114943Y73235D01*
X115504Y72504D01*
X116235Y71943D01*
X117086Y71590D01*
X118000Y71470D01*
X118914Y71590D01*
X119765Y71943D01*
X120496Y72504D01*
X121057Y73235D01*
X121410Y74086D01*
X121498Y74754D01*
X121641Y75100D01*
Y78000D01*
X124159D01*
Y75100D01*
X124317Y74717D01*
X124518Y74634D01*
X124590Y74086D01*
X124943Y73235D01*
X125504Y72504D01*
X126235Y71943D01*
X127086Y71590D01*
X128000Y71470D01*
X128914Y71590D01*
X129765Y71943D01*
X130496Y72504D01*
X131057Y73235D01*
X131410Y74086D01*
X131498Y74754D01*
X131641Y75100D01*
Y78000D01*
X134159D01*
Y75100D01*
X134317Y74717D01*
X134518Y74634D01*
X134590Y74086D01*
X134943Y73235D01*
X135504Y72504D01*
X136235Y71943D01*
X137086Y71590D01*
X138000Y71470D01*
X138914Y71590D01*
X139765Y71943D01*
X140496Y72504D01*
X141057Y73235D01*
X141410Y74086D01*
X141498Y74754D01*
X141641Y75100D01*
Y78000D01*
X144159D01*
Y75100D01*
X144317Y74717D01*
X144518Y74634D01*
X144590Y74086D01*
X144943Y73235D01*
X145504Y72504D01*
X146235Y71943D01*
X147086Y71590D01*
X148000Y71470D01*
X148914Y71590D01*
X149765Y71943D01*
X150496Y72504D01*
X151057Y73235D01*
X151410Y74086D01*
X151498Y74754D01*
X151641Y75100D01*
Y78000D01*
X154159D01*
Y75100D01*
X154317Y74717D01*
X154518Y74634D01*
X154590Y74086D01*
X154943Y73235D01*
X155504Y72504D01*
X156235Y71943D01*
X157086Y71590D01*
X158000Y71470D01*
X158914Y71590D01*
X159765Y71943D01*
X160496Y72504D01*
X161057Y73235D01*
X161410Y74086D01*
X161498Y74754D01*
X161641Y75100D01*
Y78000D01*
X164159D01*
Y75100D01*
X164317Y74717D01*
X164489Y74646D01*
X164563Y74172D01*
X164358Y73982D01*
X164134Y73880D01*
X164085Y73913D01*
X163500Y74029D01*
X162915Y73913D01*
X162419Y73581D01*
X162087Y73085D01*
X161971Y72500D01*
X162087Y71915D01*
X162419Y71419D01*
X162915Y71087D01*
X163500Y70971D01*
X164085Y71087D01*
X164581Y71419D01*
X164913Y71915D01*
X164998Y72342D01*
X165484Y72506D01*
X165502Y72506D01*
X165504Y72504D01*
X166235Y71943D01*
X167086Y71590D01*
X168000Y71470D01*
X168497Y71535D01*
X168678Y71055D01*
X168419Y70881D01*
X168087Y70385D01*
X167971Y69800D01*
X168087Y69215D01*
X168419Y68719D01*
X168915Y68387D01*
X169500Y68271D01*
X170085Y68387D01*
X170581Y68719D01*
X170913Y69215D01*
X171029Y69800D01*
X170913Y70385D01*
X170581Y70881D01*
X170085Y71213D01*
X170030Y71224D01*
X169668Y71806D01*
X169697Y71914D01*
X169765Y71943D01*
X170496Y72504D01*
X171057Y73235D01*
X171410Y74086D01*
X171498Y74754D01*
X171641Y75100D01*
Y78000D01*
X175063D01*
X175255Y77500D01*
X174768Y76866D01*
X174395Y75966D01*
X174314Y75350D01*
X178000D01*
X181686D01*
X181605Y75966D01*
X181232Y76866D01*
X180745Y77500D01*
X180937Y78000D01*
X184159D01*
Y75100D01*
X184317Y74717D01*
X184459Y74659D01*
Y72171D01*
X184051Y71893D01*
X183997Y71878D01*
X183663Y72101D01*
X183350Y72164D01*
Y70850D01*
X184664D01*
X184619Y71075D01*
X184817Y71323D01*
X185000Y71459D01*
X191000D01*
X191383Y71617D01*
X191541Y72000D01*
Y74859D01*
X191641Y75100D01*
Y78000D01*
X200530D01*
X200797Y77500D01*
D02*
G37*
%LPC*%
G36*
X14150Y71150D02*
X12836D01*
X12899Y70837D01*
X13274Y70274D01*
X13837Y69899D01*
X14150Y69836D01*
Y71150D01*
D02*
G37*
G36*
X160710Y35150D02*
X159332D01*
Y33605D01*
X159996D01*
X160269Y33659D01*
X160501Y33814D01*
X160655Y34046D01*
X160710Y34319D01*
Y35150D01*
D02*
G37*
G36*
X195713Y35164D02*
X195400Y35101D01*
X194837Y34726D01*
X194462Y34163D01*
X194399Y33850D01*
X195713D01*
Y35164D01*
D02*
G37*
G36*
X102865Y35516D02*
X100336D01*
Y34137D01*
X99949Y33820D01*
X99900Y33829D01*
X99315Y33713D01*
X98819Y33381D01*
X98487Y32885D01*
X98371Y32300D01*
X98487Y31715D01*
X98819Y31219D01*
X99315Y30887D01*
X99900Y30771D01*
X100485Y30887D01*
X100981Y31219D01*
X101313Y31715D01*
X101429Y32300D01*
X101392Y32487D01*
X101801Y32987D01*
X102865D01*
Y35516D01*
D02*
G37*
G36*
X141000Y45765D02*
X140707Y45706D01*
X140459Y45541D01*
X139641Y44722D01*
X138004D01*
X137621Y44564D01*
X137463Y44181D01*
Y41819D01*
X137621Y41436D01*
Y41064D01*
X137562Y40920D01*
X137463Y40681D01*
Y38319D01*
X137621Y37936D01*
Y37564D01*
X137562Y37420D01*
X137463Y37181D01*
Y34819D01*
X137621Y34436D01*
X138004Y34278D01*
X140032D01*
X140414Y34436D01*
X140573Y34819D01*
Y35235D01*
X142900D01*
X143193Y35293D01*
X143441Y35459D01*
X143868Y35886D01*
X143868Y35886D01*
X144033Y36134D01*
X144091Y36427D01*
Y36900D01*
X144213D01*
X144595Y37058D01*
X144754Y37441D01*
X145246D01*
X145405Y37058D01*
X145787Y36900D01*
X145908D01*
Y33327D01*
X145967Y33034D01*
X146133Y32786D01*
X146545Y32374D01*
X146471Y32000D01*
X146587Y31415D01*
X146919Y30919D01*
X147415Y30587D01*
X148000Y30471D01*
X148193Y30509D01*
X148895Y29807D01*
X148585Y29413D01*
X148000Y29529D01*
X147415Y29413D01*
X146919Y29081D01*
X146587Y28585D01*
X146471Y28000D01*
X146587Y27415D01*
X146919Y26919D01*
X147415Y26587D01*
X148000Y26471D01*
X148585Y26587D01*
X149082Y26318D01*
Y24130D01*
X146994Y22041D01*
X143600D01*
X143217Y21883D01*
X143059Y21500D01*
Y21067D01*
X142688Y20923D01*
X142559Y20897D01*
X142085Y21213D01*
X141500Y21329D01*
X140915Y21213D01*
X140419Y20881D01*
X140087Y20385D01*
X139999Y19941D01*
X136800D01*
X136417Y19783D01*
X136259Y19400D01*
Y17837D01*
X135320D01*
X135164Y18214D01*
X134781Y18373D01*
X133665D01*
X133513Y18873D01*
X133581Y18919D01*
X133913Y19415D01*
X134029Y20000D01*
X133913Y20585D01*
X133581Y21081D01*
X133085Y21413D01*
X132500Y21529D01*
X131915Y21413D01*
X131419Y21081D01*
X131087Y20585D01*
X130971Y20000D01*
X131009Y19807D01*
X129475Y18273D01*
X127619D01*
X127236Y18114D01*
X127078Y17731D01*
Y15704D01*
X127236Y15321D01*
X127619Y15163D01*
X129981D01*
X130364Y15321D01*
X130522Y15704D01*
Y16725D01*
X131378Y17580D01*
X131878Y17373D01*
Y15804D01*
X132036Y15421D01*
X132419Y15263D01*
X134781D01*
X135164Y15421D01*
X135320Y15798D01*
X136259D01*
Y15700D01*
X136417Y15317D01*
X136800Y15159D01*
X140400D01*
X140783Y15317D01*
X140941Y15700D01*
Y16564D01*
X141403Y16755D01*
X143229Y14929D01*
X143217Y14383D01*
X143059Y14000D01*
Y11496D01*
X142750Y11243D01*
Y9500D01*
Y7836D01*
X143063Y7899D01*
X143626Y8274D01*
X144001Y8837D01*
X144133Y9500D01*
X144428Y9859D01*
X147300D01*
X147683Y10017D01*
X147841Y10400D01*
Y14000D01*
X147683Y14383D01*
X147300Y14541D01*
X146501D01*
X144145Y16897D01*
X144336Y17359D01*
X147300D01*
X147683Y17517D01*
X147841Y17900D01*
Y20293D01*
X148659Y21111D01*
X149159Y20904D01*
Y17900D01*
X149317Y17517D01*
X149700Y17359D01*
X150635D01*
X150749Y17195D01*
X150857Y16859D01*
X150587Y16455D01*
X150471Y15870D01*
X150587Y15285D01*
X150750Y15041D01*
X150482Y14541D01*
X149700D01*
X149317Y14383D01*
X149159Y14000D01*
Y10400D01*
X149317Y10017D01*
X149700Y9859D01*
X153400D01*
X153783Y10017D01*
X153941Y10400D01*
Y14000D01*
X153783Y14383D01*
X153488Y14505D01*
X153310Y14842D01*
X153250Y15041D01*
X153413Y15285D01*
X153529Y15870D01*
X153413Y16455D01*
X153270Y16670D01*
Y17359D01*
X153400D01*
X153783Y17517D01*
X153941Y17900D01*
Y21500D01*
X153783Y21883D01*
X153400Y22041D01*
X150296D01*
X150089Y22541D01*
X150649Y23101D01*
X150848Y23399D01*
X150918Y23750D01*
Y28318D01*
X151415Y28587D01*
X152000Y28471D01*
X152585Y28587D01*
X153081Y28919D01*
X153413Y29415D01*
X153529Y30000D01*
X153413Y30585D01*
X153081Y31081D01*
X152585Y31413D01*
X152000Y31529D01*
X151415Y31413D01*
X150919Y31081D01*
X150856Y30988D01*
X150359Y30939D01*
X149491Y31807D01*
X149529Y32000D01*
X149455Y32374D01*
X151555Y34474D01*
X152016Y34227D01*
X151971Y34000D01*
X152087Y33415D01*
X152419Y32919D01*
X152915Y32587D01*
X153500Y32471D01*
X154085Y32587D01*
X154581Y32919D01*
X154866Y33345D01*
X155397Y33521D01*
X156003Y32915D01*
Y31277D01*
X155488D01*
X155105Y31119D01*
X154947Y30736D01*
Y26602D01*
X155105Y26220D01*
X155488Y26061D01*
X156003D01*
Y14939D01*
X155488D01*
X155105Y14780D01*
X154947Y14398D01*
Y10264D01*
X155105Y9881D01*
X155488Y9723D01*
X158047D01*
X158430Y9881D01*
X158588Y10264D01*
Y14398D01*
X158430Y14780D01*
X158047Y14939D01*
X157532D01*
Y26061D01*
X158047D01*
X158430Y26220D01*
X158588Y26602D01*
Y30736D01*
X158430Y31119D01*
X158047Y31277D01*
X157532D01*
Y33213D01*
X157545Y33243D01*
X157968Y33605D01*
X157968Y33605D01*
X158632D01*
Y35150D01*
X157255D01*
Y34534D01*
X156755Y34327D01*
X154765Y36317D01*
Y38707D01*
X155081Y38919D01*
X155413Y39415D01*
X155529Y40000D01*
X155413Y40585D01*
X155081Y41081D01*
X154585Y41413D01*
X154000Y41529D01*
X153722Y41474D01*
X153222Y41840D01*
Y42031D01*
X153064Y42414D01*
X152681Y42573D01*
X151406D01*
X151387Y42593D01*
X151184Y43073D01*
X151413Y43415D01*
X151529Y44000D01*
X151413Y44585D01*
X151081Y45081D01*
X150585Y45413D01*
X150000Y45529D01*
X149415Y45413D01*
X148919Y45081D01*
X148587Y44585D01*
X148471Y44000D01*
X148587Y43415D01*
X148919Y42919D01*
X149415Y42587D01*
X149463Y42577D01*
X149778Y42031D01*
Y40004D01*
X149936Y39621D01*
X150319Y39463D01*
X152577D01*
X152587Y39415D01*
X152865Y38999D01*
X152745Y38699D01*
X152618Y38537D01*
X150319D01*
X149936Y38379D01*
X149778Y37996D01*
Y35969D01*
X149936Y35586D01*
X149955Y35037D01*
X148374Y33455D01*
X148000Y33529D01*
X147881Y33506D01*
X147438Y33885D01*
Y36900D01*
X147559D01*
X147942Y37058D01*
X148100Y37441D01*
Y39213D01*
X147942Y39595D01*
X147559Y39754D01*
Y40246D01*
X147942Y40405D01*
X148100Y40787D01*
Y42559D01*
X147942Y42942D01*
X147559Y43100D01*
X147438D01*
Y43827D01*
X147438Y43827D01*
X147380Y44119D01*
X147214Y44368D01*
X146041Y45541D01*
X145793Y45706D01*
X145500Y45765D01*
X141000D01*
X141000Y45765D01*
D02*
G37*
G36*
X106094Y35516D02*
X103565D01*
Y32987D01*
X105380D01*
X105653Y33041D01*
X105885Y33196D01*
X106040Y33428D01*
X106094Y33701D01*
Y35516D01*
D02*
G37*
G36*
X109951D02*
X107422D01*
Y33701D01*
X107477Y33428D01*
X107632Y33196D01*
X107863Y33041D01*
X108136Y32987D01*
X109951D01*
Y35516D01*
D02*
G37*
G36*
X32472D02*
X29943D01*
Y32987D01*
X31758D01*
X32031Y33041D01*
X32263Y33196D01*
X32418Y33428D01*
X32472Y33701D01*
Y35516D01*
D02*
G37*
G36*
X191235Y35493D02*
X189912D01*
Y33850D01*
X191949D01*
Y34780D01*
X191895Y35053D01*
X191740Y35284D01*
X191508Y35439D01*
X191235Y35493D01*
D02*
G37*
G36*
X159996Y37395D02*
X159332D01*
Y35850D01*
X160710D01*
Y36681D01*
X160655Y36954D01*
X160501Y37186D01*
X160269Y37341D01*
X159996Y37395D01*
D02*
G37*
G36*
X76319Y37319D02*
X75022D01*
X75083Y37012D01*
X75455Y36455D01*
X76012Y36083D01*
X76319Y36022D01*
Y37319D01*
D02*
G37*
G36*
X78317D02*
X77019D01*
Y36022D01*
X77326Y36083D01*
X77884Y36455D01*
X78256Y37012D01*
X78317Y37319D01*
D02*
G37*
G36*
X158632Y37395D02*
X157968D01*
X157695Y37341D01*
X157464Y37186D01*
X157309Y36954D01*
X157255Y36681D01*
Y35850D01*
X158632D01*
Y37395D01*
D02*
G37*
G36*
X124000Y37529D02*
X123415Y37413D01*
X122919Y37081D01*
X122587Y36585D01*
X122471Y36000D01*
X122587Y35415D01*
X122919Y34919D01*
X123415Y34587D01*
X124000Y34471D01*
X124585Y34587D01*
X125081Y34919D01*
X125413Y35415D01*
X125529Y36000D01*
X125413Y36585D01*
X125081Y37081D01*
X124585Y37413D01*
X124000Y37529D01*
D02*
G37*
G36*
X207308Y41264D02*
X201038D01*
Y38465D01*
X201036Y38462D01*
X199898D01*
X199625Y38407D01*
X199394Y38253D01*
X199239Y38021D01*
X199185Y37748D01*
Y35375D01*
X198695Y35101D01*
X198685Y35103D01*
X198381Y35164D01*
Y33500D01*
X197681D01*
Y35164D01*
X197368Y35101D01*
X197047Y34887D01*
X196726Y35101D01*
X196413Y35164D01*
Y33500D01*
X196063D01*
Y33150D01*
X194399D01*
X194462Y32837D01*
X194837Y32274D01*
X194874Y32250D01*
Y31750D01*
X194837Y31726D01*
X194462Y31163D01*
X194399Y30850D01*
X196063D01*
Y30500D01*
X196413D01*
Y28836D01*
X196726Y28899D01*
X197047Y29113D01*
X197368Y28899D01*
X197681Y28836D01*
Y30500D01*
X198381D01*
Y28747D01*
X198523Y28534D01*
X198576Y28365D01*
X198452Y28179D01*
X198397Y27905D01*
Y27468D01*
X201768D01*
X205140D01*
Y27905D01*
X205085Y28179D01*
X204931Y28410D01*
X204699Y28565D01*
X204426Y28619D01*
X203114D01*
X202962Y29119D01*
X203194Y29274D01*
X203570Y29837D01*
X203702Y30500D01*
X203895Y30735D01*
X205410D01*
X205683Y30789D01*
X205915Y30944D01*
X206070Y31176D01*
X206124Y31449D01*
Y34248D01*
X202654D01*
Y34948D01*
X206124D01*
Y37748D01*
X206126Y37751D01*
X207308D01*
Y41264D01*
D02*
G37*
G36*
X95000Y38529D02*
X94415Y38413D01*
X93919Y38081D01*
X93587Y37585D01*
X93471Y37000D01*
X93587Y36415D01*
X93919Y35919D01*
X94415Y35587D01*
X95000Y35471D01*
X95585Y35587D01*
X96081Y35919D01*
X96413Y36415D01*
X96529Y37000D01*
X96413Y37585D01*
X96081Y38081D01*
X95585Y38413D01*
X95000Y38529D01*
D02*
G37*
G36*
X26566Y39650D02*
X22900D01*
X19233D01*
Y38425D01*
X19288Y38152D01*
X19443Y37921D01*
Y37749D01*
X19288Y37517D01*
X19233Y37244D01*
Y36019D01*
X22900D01*
Y35319D01*
X19233D01*
Y34095D01*
X19288Y33821D01*
X19443Y33590D01*
Y33418D01*
X19288Y33187D01*
X19233Y32913D01*
Y31689D01*
X22900D01*
X26566D01*
Y32879D01*
X26644Y32948D01*
X27035Y33121D01*
X27154Y33041D01*
X27428Y32987D01*
X29243D01*
Y35866D01*
Y38745D01*
X27428D01*
X27154Y38691D01*
X27066Y38632D01*
X26606Y38818D01*
X26566Y38854D01*
Y39650D01*
D02*
G37*
G36*
X69050Y30064D02*
Y28750D01*
X70364D01*
X70301Y29063D01*
X69926Y29626D01*
X69363Y30001D01*
X69050Y30064D01*
D02*
G37*
G36*
X195713Y30150D02*
X194399D01*
X194462Y29837D01*
X194837Y29274D01*
X195400Y28899D01*
X195713Y28836D01*
Y30150D01*
D02*
G37*
G36*
X164882Y31450D02*
X163953D01*
X163680Y31396D01*
X163448Y31241D01*
X163293Y31009D01*
X163239Y30736D01*
Y29019D01*
X164882D01*
Y31450D01*
D02*
G37*
G36*
X68350Y30064D02*
X68037Y30001D01*
X67474Y29626D01*
X67099Y29063D01*
X67036Y28750D01*
X68350D01*
Y30064D01*
D02*
G37*
G36*
X56900Y33629D02*
X56315Y33513D01*
X55819Y33181D01*
X55487Y32685D01*
X55371Y32100D01*
X55487Y31515D01*
X55819Y31019D01*
X56315Y30687D01*
X56900Y30571D01*
X57354Y30661D01*
X57515Y30213D01*
X57019Y29881D01*
X56687Y29385D01*
X56571Y28800D01*
X56687Y28215D01*
X57019Y27719D01*
X57515Y27387D01*
X58100Y27271D01*
X58685Y27387D01*
X59181Y27719D01*
X59513Y28215D01*
X59629Y28800D01*
X59513Y29385D01*
X59181Y29881D01*
X58685Y30213D01*
X58100Y30329D01*
X57647Y30239D01*
X57485Y30687D01*
X57981Y31019D01*
X58313Y31515D01*
X58429Y32100D01*
X58313Y32685D01*
X57981Y33181D01*
X57485Y33513D01*
X56900Y33629D01*
D02*
G37*
G36*
X38264Y31350D02*
X34936D01*
X34999Y31037D01*
X35078Y30918D01*
X34842Y30477D01*
X34514D01*
X34241Y30423D01*
X34010Y30268D01*
X33855Y30037D01*
X33801Y29764D01*
Y27948D01*
X36680D01*
X39559D01*
Y29764D01*
X39504Y30037D01*
X39349Y30268D01*
X39118Y30423D01*
X38845Y30477D01*
X38358D01*
X38122Y30918D01*
X38201Y31037D01*
X38264Y31350D01*
D02*
G37*
G36*
X31758Y30477D02*
X29943D01*
Y27948D01*
X32472D01*
Y29764D01*
X32418Y30037D01*
X32263Y30268D01*
X32031Y30423D01*
X31758Y30477D01*
D02*
G37*
G36*
X166512Y31450D02*
X165582D01*
Y29019D01*
X167226D01*
Y30736D01*
X167171Y31009D01*
X167016Y31241D01*
X166785Y31396D01*
X166512Y31450D01*
D02*
G37*
G36*
X128500Y33529D02*
X127915Y33413D01*
X127419Y33081D01*
X127087Y32585D01*
X126971Y32000D01*
X127087Y31415D01*
X127419Y30919D01*
X127915Y30587D01*
X128500Y30471D01*
X129085Y30587D01*
X129581Y30919D01*
X129913Y31415D01*
X130029Y32000D01*
X129913Y32585D01*
X129581Y33081D01*
X129085Y33413D01*
X128500Y33529D01*
D02*
G37*
G36*
X39559Y35516D02*
X36680D01*
X33801D01*
Y33701D01*
X33855Y33428D01*
X34010Y33196D01*
X34241Y33041D01*
X34514Y32987D01*
X34814D01*
X35081Y32487D01*
X34999Y32363D01*
X34936Y32050D01*
X38264D01*
X38201Y32363D01*
X38119Y32487D01*
X38386Y32987D01*
X38845D01*
X39118Y33041D01*
X39349Y33196D01*
X39504Y33428D01*
X39559Y33701D01*
Y35516D01*
D02*
G37*
G36*
X211950Y34642D02*
X208437D01*
Y33220D01*
X208491Y32947D01*
X208646Y32716D01*
X208877Y32561D01*
X209150Y32507D01*
X210748D01*
X210922Y32472D01*
X211950D01*
Y34642D01*
D02*
G37*
G36*
X124000Y33529D02*
X123415Y33413D01*
X122919Y33081D01*
X122587Y32585D01*
X122471Y32000D01*
X122587Y31415D01*
X122919Y30919D01*
X123415Y30587D01*
X124000Y30471D01*
X124585Y30587D01*
X125081Y30919D01*
X125413Y31415D01*
X125529Y32000D01*
X125413Y32585D01*
X125081Y33081D01*
X124585Y33413D01*
X124000Y33529D01*
D02*
G37*
G36*
X102865Y30477D02*
X101050D01*
X100777Y30423D01*
X100545Y30268D01*
X100390Y30037D01*
X100342Y29796D01*
X100287Y29748D01*
X100277Y29742D01*
X99836Y29579D01*
X99485Y29813D01*
X98900Y29929D01*
X98315Y29813D01*
X97819Y29481D01*
X97487Y28985D01*
X97455Y28823D01*
X96924Y28718D01*
X96881Y28781D01*
X96385Y29113D01*
X95800Y29229D01*
X95215Y29113D01*
X94719Y28781D01*
X94387Y28285D01*
X94271Y27700D01*
X94387Y27115D01*
X94719Y26619D01*
X95215Y26287D01*
X95800Y26171D01*
X96385Y26287D01*
X96881Y26619D01*
X97213Y27115D01*
X97245Y27277D01*
X97776Y27382D01*
X97819Y27319D01*
X98315Y26987D01*
X98900Y26871D01*
X99485Y26987D01*
X99836Y27221D01*
X100300Y27032D01*
X100336Y27000D01*
Y25433D01*
X100390Y25160D01*
X100545Y24928D01*
X100777Y24774D01*
X101050Y24719D01*
X102865D01*
Y27599D01*
Y30477D01*
D02*
G37*
G36*
X109951D02*
X108136D01*
X107863Y30423D01*
X107632Y30268D01*
X107477Y30037D01*
X107469Y29998D01*
X107260Y29726D01*
X106922Y29649D01*
X106850Y29664D01*
Y28000D01*
Y26336D01*
X106922Y26351D01*
X107422Y26016D01*
Y25433D01*
X107477Y25160D01*
X107632Y24928D01*
X107863Y24774D01*
X108136Y24719D01*
X109951D01*
Y27599D01*
Y30477D01*
D02*
G37*
G36*
X92300Y33229D02*
X91715Y33113D01*
X91219Y32781D01*
X90887Y32285D01*
X90771Y31700D01*
X90887Y31115D01*
X91219Y30619D01*
X91715Y30287D01*
X92300Y30171D01*
X92885Y30287D01*
X93381Y30619D01*
X93713Y31115D01*
X93829Y31700D01*
X93713Y32285D01*
X93381Y32781D01*
X92885Y33113D01*
X92300Y33229D01*
D02*
G37*
G36*
X80650Y37319D02*
X79352D01*
X79413Y37012D01*
X79786Y36455D01*
X80343Y36083D01*
X80650Y36022D01*
Y37319D01*
D02*
G37*
G36*
X76319Y41650D02*
X75022D01*
X75083Y41343D01*
X75455Y40786D01*
X76012Y40413D01*
X76319Y40352D01*
Y41650D01*
D02*
G37*
G36*
X78317D02*
X77019D01*
Y40352D01*
X77326Y40413D01*
X77884Y40786D01*
X78256Y41343D01*
X78317Y41650D01*
D02*
G37*
G36*
X80650D02*
X79352D01*
X79413Y41343D01*
X79786Y40786D01*
X80343Y40413D01*
X80650Y40352D01*
Y41650D01*
D02*
G37*
G36*
X125000Y42529D02*
X124415Y42413D01*
X123919Y42081D01*
X123587Y41585D01*
X123471Y41000D01*
X123587Y40415D01*
X123919Y39919D01*
X124415Y39587D01*
X125000Y39471D01*
X125585Y39587D01*
X126081Y39919D01*
X126413Y40415D01*
X126529Y41000D01*
X126413Y41585D01*
X126081Y42081D01*
X125585Y42413D01*
X125000Y42529D01*
D02*
G37*
G36*
X54250Y40450D02*
X52936D01*
X52999Y40137D01*
X53374Y39574D01*
X53937Y39199D01*
X54250Y39136D01*
Y40450D01*
D02*
G37*
G36*
X56264D02*
X54950D01*
Y39136D01*
X55263Y39199D01*
X55826Y39574D01*
X56201Y40137D01*
X56264Y40450D01*
D02*
G37*
G36*
X95000Y45829D02*
X94415Y45713D01*
X93919Y45381D01*
X93587Y44885D01*
X93471Y44300D01*
X93587Y43715D01*
X93919Y43219D01*
X94415Y42887D01*
X94684Y42833D01*
X94828Y42805D01*
Y42295D01*
X94684Y42267D01*
X94415Y42213D01*
X93919Y41881D01*
X93587Y41385D01*
X93471Y40800D01*
X93587Y40215D01*
X93919Y39719D01*
X94415Y39387D01*
X95000Y39271D01*
X95585Y39387D01*
X96081Y39719D01*
X96413Y40215D01*
X96529Y40800D01*
X96413Y41385D01*
X96081Y41881D01*
X95585Y42213D01*
X95316Y42267D01*
X95172Y42295D01*
Y42805D01*
X95316Y42833D01*
X95585Y42887D01*
X96081Y43219D01*
X96413Y43715D01*
X96529Y44300D01*
X96413Y44885D01*
X96081Y45381D01*
X95585Y45713D01*
X95000Y45829D01*
D02*
G37*
G36*
X82648Y41650D02*
X81350D01*
Y40352D01*
X81657Y40413D01*
X82214Y40786D01*
X82586Y41343D01*
X82648Y41650D01*
D02*
G37*
G36*
X26566Y48311D02*
X22900D01*
X19233D01*
Y47087D01*
X19288Y46813D01*
X19443Y46582D01*
Y46410D01*
X19288Y46179D01*
X19233Y45906D01*
Y44681D01*
X22900D01*
Y43981D01*
X19233D01*
Y42756D01*
X19288Y42483D01*
X19443Y42251D01*
Y42079D01*
X19288Y41848D01*
X19233Y41575D01*
Y40350D01*
X22900D01*
X26566D01*
Y41146D01*
X26606Y41182D01*
X27066Y41368D01*
X27154Y41309D01*
X27428Y41255D01*
X29243D01*
Y44134D01*
Y47013D01*
X27428D01*
X27154Y46959D01*
X27035Y46879D01*
X26644Y47052D01*
X26566Y47121D01*
Y48311D01*
D02*
G37*
G36*
X32472Y43784D02*
X29943D01*
Y41255D01*
X31758D01*
X32031Y41309D01*
X32263Y41464D01*
X32418Y41695D01*
X32472Y41969D01*
Y43784D01*
D02*
G37*
G36*
X36329D02*
X33801D01*
Y41969D01*
X33855Y41695D01*
X34010Y41464D01*
X34241Y41309D01*
X34514Y41255D01*
X36329D01*
Y43784D01*
D02*
G37*
G36*
X54950Y42464D02*
Y41150D01*
X56264D01*
X56201Y41463D01*
X55826Y42026D01*
X55263Y42401D01*
X54950Y42464D01*
D02*
G37*
G36*
X84981Y41650D02*
X83683D01*
X83744Y41343D01*
X84116Y40786D01*
X84674Y40413D01*
X84981Y40352D01*
Y41650D01*
D02*
G37*
G36*
X86978D02*
X85681D01*
Y40352D01*
X85988Y40413D01*
X86545Y40786D01*
X86917Y41343D01*
X86978Y41650D01*
D02*
G37*
G36*
X54250Y42464D02*
X53937Y42401D01*
X53374Y42026D01*
X52999Y41463D01*
X52936Y41150D01*
X54250D01*
Y42464D01*
D02*
G37*
G36*
X85681Y39317D02*
Y38019D01*
X86978D01*
X86917Y38326D01*
X86545Y38884D01*
X85988Y39256D01*
X85681Y39317D01*
D02*
G37*
G36*
X109951Y38745D02*
X108136D01*
X107863Y38691D01*
X107632Y38536D01*
X107477Y38305D01*
X107422Y38032D01*
Y36216D01*
X109951D01*
Y38745D01*
D02*
G37*
G36*
X38845D02*
X37029D01*
Y36216D01*
X39559D01*
Y38032D01*
X39504Y38305D01*
X39349Y38536D01*
X39118Y38691D01*
X38845Y38745D01*
D02*
G37*
G36*
X31758D02*
X29943D01*
Y36216D01*
X32472D01*
Y38032D01*
X32418Y38305D01*
X32263Y38536D01*
X32031Y38691D01*
X31758Y38745D01*
D02*
G37*
G36*
X36329D02*
X34514D01*
X34241Y38691D01*
X34010Y38536D01*
X33855Y38305D01*
X33801Y38032D01*
Y36216D01*
X36329D01*
Y38745D01*
D02*
G37*
G36*
X82648Y37319D02*
X81350D01*
Y36022D01*
X81657Y36083D01*
X82214Y36455D01*
X82586Y37012D01*
X82648Y37319D01*
D02*
G37*
G36*
X84981D02*
X83683D01*
X83744Y37012D01*
X84116Y36455D01*
X84674Y36083D01*
X84981Y36022D01*
Y37319D01*
D02*
G37*
G36*
X86978D02*
X85681D01*
Y36022D01*
X85988Y36083D01*
X86545Y36455D01*
X86917Y37012D01*
X86978Y37319D01*
D02*
G37*
G36*
X178713Y46519D02*
X173988D01*
X173606Y46360D01*
X173447Y45977D01*
Y41733D01*
X168430Y36716D01*
X168285Y36813D01*
X167700Y36929D01*
X167115Y36813D01*
X166619Y36481D01*
X166287Y35985D01*
X166171Y35400D01*
X166287Y34815D01*
X166619Y34319D01*
X167115Y33987D01*
X167629Y33885D01*
X170278Y31235D01*
Y29773D01*
X170219D01*
X169836Y29614D01*
X169678Y29232D01*
Y27204D01*
X169836Y26821D01*
X170219Y26663D01*
X172581D01*
X172964Y26821D01*
X173122Y27204D01*
Y29232D01*
X172964Y29614D01*
X172581Y29773D01*
X172522D01*
Y31700D01*
X172522Y31700D01*
X172436Y32129D01*
X172193Y32493D01*
X169786Y34900D01*
X175598Y40712D01*
X178713D01*
X179095Y40870D01*
X179254Y41253D01*
Y45977D01*
X179095Y46360D01*
X178713Y46519D01*
D02*
G37*
G36*
X80650Y39317D02*
X80343Y39256D01*
X79786Y38884D01*
X79413Y38326D01*
X79352Y38019D01*
X80650D01*
Y39317D01*
D02*
G37*
G36*
X81350D02*
Y38019D01*
X82648D01*
X82586Y38326D01*
X82214Y38884D01*
X81657Y39256D01*
X81350Y39317D01*
D02*
G37*
G36*
X84981D02*
X84674Y39256D01*
X84116Y38884D01*
X83744Y38326D01*
X83683Y38019D01*
X84981D01*
Y39317D01*
D02*
G37*
G36*
X77019D02*
Y38019D01*
X78317D01*
X78256Y38326D01*
X77884Y38884D01*
X77326Y39256D01*
X77019Y39317D01*
D02*
G37*
G36*
X67016Y40577D02*
X66430Y40460D01*
X65934Y40129D01*
X65603Y39632D01*
X65486Y39047D01*
X65603Y38462D01*
X65934Y37966D01*
X66430Y37634D01*
X67016Y37518D01*
X67601Y37634D01*
X68097Y37966D01*
X68429Y38462D01*
X68545Y39047D01*
X68429Y39632D01*
X68097Y40129D01*
X67601Y40460D01*
X67016Y40577D01*
D02*
G37*
G36*
X167500Y41029D02*
X166915Y40913D01*
X166419Y40581D01*
X166087Y40085D01*
X165971Y39500D01*
X166087Y38915D01*
X166419Y38419D01*
X166915Y38087D01*
X167500Y37971D01*
X168085Y38087D01*
X168581Y38419D01*
X168913Y38915D01*
X169029Y39500D01*
X168913Y40085D01*
X168581Y40581D01*
X168085Y40913D01*
X167500Y41029D01*
D02*
G37*
G36*
X76319Y39317D02*
X76012Y39256D01*
X75455Y38884D01*
X75083Y38326D01*
X75022Y38019D01*
X76319D01*
Y39317D01*
D02*
G37*
G36*
X164882Y15111D02*
X163953D01*
X163680Y15057D01*
X163448Y14902D01*
X163293Y14671D01*
X163239Y14398D01*
Y12681D01*
X164882D01*
Y15111D01*
D02*
G37*
G36*
X166512D02*
X165582D01*
Y12681D01*
X167226D01*
Y14398D01*
X167171Y14671D01*
X167016Y14902D01*
X166785Y15057D01*
X166512Y15111D01*
D02*
G37*
G36*
X211950Y16926D02*
X207846D01*
Y13535D01*
X207901Y13262D01*
X208055Y13031D01*
X208287Y12876D01*
X208560Y12822D01*
X211950D01*
Y16926D01*
D02*
G37*
G36*
X140400Y14014D02*
X138950D01*
Y11800D01*
X141114D01*
Y13300D01*
X141059Y13573D01*
X140905Y13805D01*
X140673Y13959D01*
X140400Y14014D01*
D02*
G37*
G36*
X130695Y12332D02*
X129150D01*
Y10955D01*
X129981D01*
X130254Y11009D01*
X130486Y11164D01*
X130640Y11395D01*
X130695Y11669D01*
Y12332D01*
D02*
G37*
G36*
X171150Y13614D02*
X169700D01*
X169427Y13559D01*
X169195Y13405D01*
X169041Y13173D01*
X168986Y12900D01*
Y11400D01*
X171150D01*
Y13614D01*
D02*
G37*
G36*
X138250Y14014D02*
X136800D01*
X136527Y13959D01*
X136295Y13805D01*
X136141Y13573D01*
X136086Y13300D01*
Y11800D01*
X138250D01*
Y14014D01*
D02*
G37*
G36*
X128450Y14410D02*
X127619D01*
X127346Y14355D01*
X127114Y14201D01*
X126960Y13969D01*
X126905Y13696D01*
Y13032D01*
X128450D01*
Y14410D01*
D02*
G37*
G36*
X121950Y18064D02*
Y16750D01*
X123264D01*
X123201Y17063D01*
X122826Y17626D01*
X122263Y18001D01*
X121950Y18064D01*
D02*
G37*
G36*
X53150Y18650D02*
X51836D01*
X51899Y18337D01*
X52274Y17774D01*
X52837Y17399D01*
X53150Y17336D01*
Y18650D01*
D02*
G37*
G36*
X48750Y18864D02*
Y17550D01*
X50064D01*
X50001Y17863D01*
X49626Y18426D01*
X49063Y18801D01*
X48750Y18864D01*
D02*
G37*
G36*
X65267Y16304D02*
X64042D01*
X63769Y16250D01*
X63537Y16095D01*
X63365D01*
X63134Y16250D01*
X62861Y16304D01*
X61636D01*
Y12638D01*
Y8971D01*
X62861D01*
X63134Y9026D01*
X63365Y9180D01*
X63537D01*
X63769Y9026D01*
X64042Y8971D01*
X65267D01*
Y12638D01*
Y16304D01*
D02*
G37*
G36*
X129981Y14410D02*
X129150D01*
Y13032D01*
X130695D01*
Y13696D01*
X130640Y13969D01*
X130486Y14201D01*
X130254Y14355D01*
X129981Y14410D01*
D02*
G37*
G36*
X123264Y16050D02*
X121950D01*
Y14736D01*
X122263Y14799D01*
X122826Y15174D01*
X123201Y15737D01*
X123264Y16050D01*
D02*
G37*
G36*
X22550Y17997D02*
X19233D01*
Y16772D01*
X19288Y16499D01*
X19443Y16267D01*
X19674Y16112D01*
X19947Y16058D01*
X22550D01*
Y17997D01*
D02*
G37*
G36*
X128450Y12332D02*
X126905D01*
Y11669D01*
X126960Y11395D01*
X127114Y11164D01*
X127346Y11009D01*
X127619Y10955D01*
X128450D01*
Y12332D01*
D02*
G37*
G36*
X6350Y11037D02*
Y6350D01*
X11037D01*
X10910Y7316D01*
X10402Y8542D01*
X9595Y9595D01*
X8542Y10402D01*
X7316Y10910D01*
X6350Y11037D01*
D02*
G37*
G36*
X211950Y8658D02*
X208437D01*
Y7236D01*
X208491Y6963D01*
X208646Y6732D01*
X208877Y6577D01*
X209150Y6522D01*
X210748D01*
X210922Y6488D01*
X211950D01*
Y8658D01*
D02*
G37*
G36*
X134781Y14337D02*
X132419D01*
X132036Y14179D01*
X131878Y13796D01*
Y11768D01*
X132036Y11386D01*
X132337Y11261D01*
X132454Y10952D01*
X132482Y10727D01*
X132187Y10285D01*
X132071Y9700D01*
X132187Y9115D01*
X132519Y8619D01*
X133015Y8287D01*
X133600Y8171D01*
X134185Y8287D01*
X134681Y8619D01*
X135013Y9115D01*
X135129Y9700D01*
X135013Y10285D01*
X134718Y10727D01*
X134746Y10952D01*
X134863Y11261D01*
X135164Y11386D01*
X135322Y11768D01*
Y13796D01*
X135164Y14179D01*
X134781Y14337D01*
D02*
G37*
G36*
X206124Y9052D02*
X203004D01*
Y5538D01*
X205410D01*
X205683Y5593D01*
X205915Y5747D01*
X206070Y5979D01*
X206124Y6252D01*
Y9052D01*
D02*
G37*
G36*
X211650Y5164D02*
X211337Y5101D01*
X210774Y4726D01*
X210399Y4163D01*
X210336Y3850D01*
X211650D01*
Y5164D01*
D02*
G37*
G36*
X178350Y8686D02*
Y5350D01*
X181686D01*
X181605Y5966D01*
X181232Y6866D01*
X180639Y7639D01*
X179866Y8232D01*
X178966Y8605D01*
X178350Y8686D01*
D02*
G37*
G36*
X202304Y9052D02*
X199185D01*
Y6252D01*
X199239Y5979D01*
X199394Y5747D01*
X199625Y5593D01*
X199898Y5538D01*
X202304D01*
Y9052D01*
D02*
G37*
G36*
X26290Y12288D02*
X24352D01*
Y9685D01*
X24406Y9412D01*
X24561Y9180D01*
X24792Y9026D01*
X25065Y8971D01*
X26290D01*
Y12288D01*
D02*
G37*
G36*
X202304Y13265D02*
X199898D01*
X199625Y13211D01*
X199394Y13056D01*
X199239Y12824D01*
X199185Y12551D01*
Y9752D01*
X202304D01*
Y13265D01*
D02*
G37*
G36*
X205410D02*
X203004D01*
Y9752D01*
X206124D01*
Y12551D01*
X206070Y12824D01*
X205915Y13056D01*
X205683Y13211D01*
X205410Y13265D01*
D02*
G37*
G36*
X122500Y13029D02*
X121915Y12913D01*
X121419Y12581D01*
X121087Y12085D01*
X120971Y11500D01*
X121087Y10915D01*
X121419Y10419D01*
X121915Y10087D01*
X122500Y9971D01*
X123085Y10087D01*
X123581Y10419D01*
X123913Y10915D01*
X124029Y11500D01*
X123913Y12085D01*
X123581Y12581D01*
X123085Y12913D01*
X122500Y13029D01*
D02*
G37*
G36*
X167226Y11981D02*
X165582D01*
Y9550D01*
X166512D01*
X166785Y9604D01*
X167016Y9759D01*
X167171Y9991D01*
X167226Y10264D01*
Y11981D01*
D02*
G37*
G36*
X115543Y12288D02*
X113604D01*
Y8971D01*
X114829D01*
X115102Y9026D01*
X115334Y9180D01*
X115489Y9412D01*
X115543Y9685D01*
Y12288D01*
D02*
G37*
G36*
X211950Y11528D02*
X210922D01*
X210748Y11493D01*
X209150D01*
X208877Y11439D01*
X208646Y11284D01*
X208491Y11053D01*
X208437Y10780D01*
Y9358D01*
X211950D01*
Y11528D01*
D02*
G37*
G36*
X164882Y11981D02*
X163239D01*
Y10264D01*
X163293Y9991D01*
X163448Y9759D01*
X163680Y9604D01*
X163953Y9550D01*
X164882D01*
Y11981D01*
D02*
G37*
G36*
X211950Y21729D02*
X208560D01*
X208287Y21675D01*
X208055Y21520D01*
X207901Y21289D01*
X207846Y21016D01*
Y17626D01*
X211950D01*
Y21729D01*
D02*
G37*
G36*
X32472Y27248D02*
X29943D01*
Y24719D01*
X31758D01*
X32031Y24774D01*
X32263Y24928D01*
X32418Y25160D01*
X32472Y25433D01*
Y27248D01*
D02*
G37*
G36*
X36329D02*
X33801D01*
Y25433D01*
X33855Y25160D01*
X34010Y24928D01*
X34241Y24774D01*
X34514Y24719D01*
X36329D01*
Y27248D01*
D02*
G37*
G36*
X39559D02*
X37029D01*
Y24719D01*
X38845D01*
X39118Y24774D01*
X39349Y24928D01*
X39504Y25160D01*
X39559Y25433D01*
Y27248D01*
D02*
G37*
G36*
X26566Y30989D02*
X22900D01*
X19233D01*
Y29764D01*
X19288Y29491D01*
X19347Y29402D01*
X19565Y28965D01*
X19406Y28583D01*
Y25433D01*
X19565Y25050D01*
X19347Y24614D01*
X19288Y24525D01*
X19233Y24252D01*
Y23027D01*
X22900D01*
X26566D01*
Y24252D01*
X26512Y24525D01*
X26453Y24614D01*
X26442Y24635D01*
X26463Y24717D01*
X26914Y24924D01*
X26924Y24928D01*
X27154Y24774D01*
X27428Y24719D01*
X29243D01*
Y27599D01*
Y30477D01*
X27428D01*
X27154Y30423D01*
X27066Y30364D01*
X26606Y30550D01*
X26566Y30586D01*
Y30989D01*
D02*
G37*
G36*
X85000Y25129D02*
X84415Y25013D01*
X83919Y24681D01*
X83671Y24310D01*
X83245Y24246D01*
X83095Y24273D01*
X82926Y24526D01*
X82363Y24901D01*
X82050Y24964D01*
Y23300D01*
X81700D01*
Y22950D01*
X80036D01*
X80084Y22710D01*
X79899Y22263D01*
X79870Y22210D01*
X79790D01*
X79517Y22155D01*
X79285Y22001D01*
X79130Y21769D01*
X79076Y21496D01*
Y19681D01*
X81955D01*
X84834D01*
Y21496D01*
X84814Y21598D01*
X84862Y21720D01*
X85071Y22025D01*
X85159Y22102D01*
X85585Y22187D01*
X86081Y22519D01*
X86413Y23015D01*
X86529Y23600D01*
X86413Y24185D01*
X86081Y24681D01*
X85585Y25013D01*
X85000Y25129D01*
D02*
G37*
G36*
X171050Y25910D02*
X170219D01*
X169946Y25855D01*
X169714Y25701D01*
X169560Y25469D01*
X169505Y25196D01*
Y24532D01*
X171050D01*
Y25910D01*
D02*
G37*
G36*
X172581D02*
X171750D01*
Y24532D01*
X173295D01*
Y25196D01*
X173240Y25469D01*
X173086Y25701D01*
X172854Y25855D01*
X172581Y25910D01*
D02*
G37*
G36*
X105380Y30477D02*
X103565D01*
Y27599D01*
Y24719D01*
X105380D01*
X105653Y24774D01*
X105885Y24928D01*
X106040Y25160D01*
X106094Y25433D01*
Y25953D01*
X106150Y25999D01*
Y28000D01*
Y29718D01*
X106094Y29764D01*
X106040Y30037D01*
X105885Y30268D01*
X105653Y30423D01*
X105380Y30477D01*
D02*
G37*
G36*
X68350Y28050D02*
X67036D01*
X67099Y27737D01*
X67474Y27174D01*
X68037Y26799D01*
X68350Y26736D01*
Y28050D01*
D02*
G37*
G36*
X70364D02*
X69050D01*
Y26736D01*
X69363Y26799D01*
X69926Y27174D01*
X70301Y27737D01*
X70364Y28050D01*
D02*
G37*
G36*
X211950Y31178D02*
X208560D01*
X208287Y31124D01*
X208055Y30969D01*
X207901Y30738D01*
X207846Y30465D01*
Y27074D01*
X211950D01*
Y31178D01*
D02*
G37*
G36*
X132500Y29529D02*
X131915Y29413D01*
X131419Y29081D01*
X131087Y28585D01*
X130971Y28000D01*
X131087Y27415D01*
X131419Y26919D01*
X131915Y26587D01*
X132500Y26471D01*
X133085Y26587D01*
X133581Y26919D01*
X133913Y27415D01*
X134029Y28000D01*
X133913Y28585D01*
X133581Y29081D01*
X133085Y29413D01*
X132500Y29529D01*
D02*
G37*
G36*
X164882Y28319D02*
X163239D01*
Y26602D01*
X163293Y26329D01*
X163448Y26098D01*
X163680Y25943D01*
X163953Y25889D01*
X164882D01*
Y28319D01*
D02*
G37*
G36*
X167226D02*
X165582D01*
Y25889D01*
X166512D01*
X166785Y25943D01*
X167016Y26098D01*
X167171Y26329D01*
X167226Y26602D01*
Y28319D01*
D02*
G37*
G36*
X127000Y29529D02*
X126415Y29413D01*
X125919Y29081D01*
X125587Y28585D01*
X125471Y28000D01*
X125587Y27415D01*
X125919Y26919D01*
X126415Y26587D01*
X127000Y26471D01*
X127585Y26587D01*
X128081Y26919D01*
X128413Y27415D01*
X128529Y28000D01*
X128413Y28585D01*
X128081Y29081D01*
X127585Y29413D01*
X127000Y29529D01*
D02*
G37*
G36*
X81350Y24964D02*
X81037Y24901D01*
X80474Y24526D01*
X80099Y23963D01*
X80036Y23650D01*
X81350D01*
Y24964D01*
D02*
G37*
G36*
X45932Y22210D02*
X44116D01*
Y19681D01*
X46645D01*
Y21496D01*
X46591Y21769D01*
X46436Y22001D01*
X46205Y22155D01*
X45932Y22210D01*
D02*
G37*
G36*
X31758D02*
X29943D01*
Y19681D01*
X32472D01*
Y21496D01*
X32418Y21769D01*
X32263Y22001D01*
X32031Y22155D01*
X31758Y22210D01*
D02*
G37*
G36*
X161450Y21950D02*
X160136D01*
X160199Y21637D01*
X160574Y21074D01*
X161137Y20699D01*
X161450Y20636D01*
Y21950D01*
D02*
G37*
G36*
X38845Y22210D02*
X37029D01*
Y19681D01*
X39559D01*
Y21496D01*
X39504Y21769D01*
X39349Y22001D01*
X39118Y22155D01*
X38845Y22210D01*
D02*
G37*
G36*
X53150Y20664D02*
X52837Y20601D01*
X52274Y20226D01*
X51899Y19663D01*
X51836Y19350D01*
X53150D01*
Y20664D01*
D02*
G37*
G36*
X36329Y22210D02*
X34514D01*
X34241Y22155D01*
X34010Y22001D01*
X33855Y21769D01*
X33801Y21496D01*
Y19681D01*
X36329D01*
Y22210D01*
D02*
G37*
G36*
X43416D02*
X41601D01*
X41328Y22155D01*
X41096Y22001D01*
X40941Y21769D01*
X40887Y21496D01*
Y19681D01*
X43416D01*
Y22210D01*
D02*
G37*
G36*
X163464Y21950D02*
X162150D01*
Y20636D01*
X162463Y20699D01*
X163026Y21074D01*
X163401Y21637D01*
X163464Y21950D01*
D02*
G37*
G36*
X132500Y25529D02*
X131915Y25413D01*
X131419Y25081D01*
X131087Y24585D01*
X130971Y24000D01*
X131087Y23415D01*
X131419Y22919D01*
X131915Y22587D01*
X132500Y22471D01*
X133085Y22587D01*
X133581Y22919D01*
X133913Y23415D01*
X134029Y24000D01*
X133913Y24585D01*
X133581Y25081D01*
X133085Y25413D01*
X132500Y25529D01*
D02*
G37*
G36*
X161450Y23964D02*
X161137Y23901D01*
X160574Y23526D01*
X160199Y22963D01*
X160136Y22650D01*
X161450D01*
Y23964D01*
D02*
G37*
G36*
X162150D02*
Y22650D01*
X163464D01*
X163401Y22963D01*
X163026Y23526D01*
X162463Y23901D01*
X162150Y23964D01*
D02*
G37*
G36*
X128500Y25529D02*
X127915Y25413D01*
X127419Y25081D01*
X127087Y24585D01*
X126971Y24000D01*
X127087Y23415D01*
X127419Y22919D01*
X127915Y22587D01*
X128500Y22471D01*
X129085Y22587D01*
X129581Y22919D01*
X129913Y23415D01*
X130029Y24000D01*
X129913Y24585D01*
X129581Y25081D01*
X129085Y25413D01*
X128500Y25529D01*
D02*
G37*
G36*
X16750Y21350D02*
X15294D01*
X15269Y21322D01*
X14972Y21124D01*
X14963Y21125D01*
X14874Y21185D01*
X14106Y21338D01*
X14000Y21317D01*
X13894Y21338D01*
X13126Y21185D01*
X13037Y21125D01*
X12931Y21104D01*
X12280Y20669D01*
X12220Y20580D01*
X12131Y20520D01*
X11696Y19869D01*
X11675Y19763D01*
X11615Y19674D01*
X11462Y18906D01*
X11473Y18851D01*
X11452Y18800D01*
X11473Y18749D01*
X11462Y18694D01*
X11615Y17926D01*
X11675Y17837D01*
X11696Y17731D01*
X12131Y17080D01*
X12220Y17020D01*
X12280Y16931D01*
X12931Y16496D01*
X13037Y16475D01*
X13126Y16415D01*
X13894Y16262D01*
X14000Y16283D01*
X14106Y16262D01*
X14874Y16415D01*
X14963Y16475D01*
X15069Y16496D01*
X15720Y16931D01*
X15780Y17020D01*
X15869Y17080D01*
X16304Y17731D01*
X16325Y17837D01*
X16385Y17926D01*
X16538Y18694D01*
X16527Y18749D01*
X16548Y18800D01*
X16527Y18851D01*
X16538Y18906D01*
X16400Y19596D01*
X16572Y19864D01*
X16733Y20028D01*
X16748Y20037D01*
X16750Y20036D01*
Y21350D01*
D02*
G37*
G36*
Y23364D02*
X16437Y23301D01*
X15874Y22926D01*
X15499Y22363D01*
X15436Y22050D01*
X16750D01*
Y23364D01*
D02*
G37*
G36*
X211950Y26374D02*
X207846D01*
Y22984D01*
X207901Y22711D01*
X208055Y22480D01*
X208287Y22325D01*
X208560Y22271D01*
X211950D01*
Y26374D01*
D02*
G37*
G36*
X39559Y43784D02*
X37029D01*
Y41255D01*
X38845D01*
X39118Y41309D01*
X39349Y41464D01*
X39504Y41695D01*
X39559Y41969D01*
Y43784D01*
D02*
G37*
G36*
X133500Y62229D02*
X132915Y62113D01*
X132419Y61781D01*
X132087Y61285D01*
X131971Y60700D01*
X132087Y60115D01*
X132419Y59619D01*
X132915Y59287D01*
X133500Y59171D01*
X134085Y59287D01*
X134581Y59619D01*
X134913Y60115D01*
X135029Y60700D01*
X134913Y61285D01*
X134581Y61781D01*
X134085Y62113D01*
X133500Y62229D01*
D02*
G37*
G36*
X64564Y60650D02*
X63250D01*
Y59336D01*
X63563Y59399D01*
X64126Y59774D01*
X64501Y60337D01*
X64564Y60650D01*
D02*
G37*
G36*
X51500Y62529D02*
X50915Y62413D01*
X50419Y62081D01*
X50087Y61585D01*
X49971Y61000D01*
X50087Y60415D01*
X50419Y59919D01*
X50915Y59587D01*
X51500Y59471D01*
X52085Y59587D01*
X52581Y59919D01*
X52913Y60415D01*
X53029Y61000D01*
X52913Y61585D01*
X52581Y62081D01*
X52085Y62413D01*
X51500Y62529D01*
D02*
G37*
G36*
X14331Y61588D02*
X10350D01*
Y59157D01*
X15044D01*
Y60874D01*
X14990Y61147D01*
X14835Y61379D01*
X14604Y61533D01*
X14331Y61588D01*
D02*
G37*
G36*
X175150Y59364D02*
X174837Y59301D01*
X174274Y58926D01*
X173899Y58363D01*
X173836Y58050D01*
X175150D01*
Y59364D01*
D02*
G37*
G36*
X175850D02*
Y58050D01*
X177164D01*
X177101Y58363D01*
X176726Y58926D01*
X176163Y59301D01*
X175850Y59364D01*
D02*
G37*
G36*
X138000Y61529D02*
X137415Y61413D01*
X136919Y61081D01*
X136587Y60585D01*
X136471Y60000D01*
X136587Y59415D01*
X136919Y58919D01*
X137415Y58587D01*
X138000Y58471D01*
X138585Y58587D01*
X139081Y58919D01*
X139413Y59415D01*
X139529Y60000D01*
X139413Y60585D01*
X139081Y61081D01*
X138585Y61413D01*
X138000Y61529D01*
D02*
G37*
G36*
X63250Y62664D02*
Y61350D01*
X64564D01*
X64501Y61663D01*
X64126Y62226D01*
X63563Y62601D01*
X63250Y62664D01*
D02*
G37*
G36*
X177664Y63650D02*
X176350D01*
Y62336D01*
X176663Y62399D01*
X177226Y62774D01*
X177601Y63337D01*
X177664Y63650D01*
D02*
G37*
G36*
X167226Y67319D02*
X165232D01*
X163239D01*
Y65602D01*
X163293Y65329D01*
X163448Y65098D01*
X163587Y64585D01*
X163471Y64000D01*
X163587Y63415D01*
X163919Y62919D01*
X164415Y62587D01*
X165000Y62471D01*
X165585Y62587D01*
X166081Y62919D01*
X166413Y63415D01*
X166529Y64000D01*
X166452Y64389D01*
X166484Y64655D01*
X166776Y64941D01*
X166785Y64943D01*
X166917Y65031D01*
X167263Y64708D01*
X167285Y64676D01*
X167171Y64100D01*
X167287Y63515D01*
X167619Y63019D01*
X168115Y62687D01*
X168700Y62571D01*
X169285Y62687D01*
X169781Y63019D01*
X170113Y63515D01*
X170229Y64100D01*
X170113Y64685D01*
X169781Y65181D01*
X169285Y65513D01*
X168700Y65629D01*
X168115Y65513D01*
X167636Y65193D01*
X167559Y65219D01*
X167195Y65447D01*
X167226Y65602D01*
Y67319D01*
D02*
G37*
G36*
X4332Y64450D02*
X2955D01*
Y63619D01*
X3009Y63346D01*
X3164Y63114D01*
X3395Y62959D01*
X3669Y62905D01*
X4332D01*
Y64450D01*
D02*
G37*
G36*
X175650Y63650D02*
X174336D01*
X174399Y63337D01*
X174774Y62774D01*
X175337Y62399D01*
X175650Y62336D01*
Y63650D01*
D02*
G37*
G36*
X125030Y65871D02*
X123652D01*
Y65209D01*
X123579Y64978D01*
X123216Y64673D01*
X122915Y64613D01*
X122419Y64281D01*
X122087Y63785D01*
X121971Y63200D01*
X122087Y62615D01*
X122419Y62119D01*
X122915Y61787D01*
X123500Y61671D01*
X124085Y61787D01*
X124581Y62119D01*
X124913Y62615D01*
X125029Y63200D01*
X124913Y63785D01*
X124886Y63826D01*
X125030Y64096D01*
Y65871D01*
D02*
G37*
G36*
X22550Y63942D02*
X19947D01*
X19674Y63888D01*
X19443Y63733D01*
X19288Y63502D01*
X19233Y63228D01*
Y62004D01*
X22550D01*
Y63942D01*
D02*
G37*
G36*
X119947D02*
X117344D01*
Y62004D01*
X120661D01*
Y63228D01*
X120607Y63502D01*
X120452Y63733D01*
X120220Y63888D01*
X119947Y63942D01*
D02*
G37*
G36*
X109951Y60319D02*
X107422D01*
Y58504D01*
X107477Y58231D01*
X107632Y57999D01*
X107863Y57845D01*
X108136Y57790D01*
X109951D01*
Y60319D01*
D02*
G37*
G36*
X72000Y60529D02*
X71415Y60413D01*
X70919Y60081D01*
X70587Y59585D01*
X70471Y59000D01*
X70587Y58415D01*
X70919Y57919D01*
X71415Y57587D01*
X72000Y57471D01*
X72585Y57587D01*
X73081Y57919D01*
X73413Y58415D01*
X73529Y59000D01*
X73413Y59585D01*
X73081Y60081D01*
X72585Y60413D01*
X72000Y60529D01*
D02*
G37*
G36*
X89000D02*
X88415Y60413D01*
X87919Y60081D01*
X87587Y59585D01*
X87471Y59000D01*
X87587Y58415D01*
X87919Y57919D01*
X88415Y57587D01*
X89000Y57471D01*
X89585Y57587D01*
X90081Y57919D01*
X90413Y58415D01*
X90529Y59000D01*
X90413Y59585D01*
X90081Y60081D01*
X89585Y60413D01*
X89000Y60529D01*
D02*
G37*
G36*
X67100Y60829D02*
X66515Y60713D01*
X66019Y60381D01*
X65687Y59885D01*
X65571Y59300D01*
X65687Y58715D01*
X66019Y58219D01*
X66515Y57887D01*
X67100Y57771D01*
X67685Y57887D01*
X68181Y58219D01*
X68513Y58715D01*
X68629Y59300D01*
X68513Y59885D01*
X68181Y60381D01*
X67685Y60713D01*
X67100Y60829D01*
D02*
G37*
G36*
X84834Y60319D02*
X82305D01*
Y57790D01*
X83090D01*
X83329Y57342D01*
X83167Y56849D01*
X82694Y56630D01*
X82569Y56713D01*
X81984Y56829D01*
X81399Y56713D01*
X80903Y56381D01*
X80571Y55885D01*
X80455Y55300D01*
X80571Y54715D01*
X80903Y54219D01*
X81399Y53887D01*
X81984Y53771D01*
X82569Y53887D01*
X83066Y54219D01*
X83397Y54715D01*
X83459Y55024D01*
X83991Y55270D01*
X84115Y55187D01*
X84700Y55071D01*
X85285Y55187D01*
X85781Y55519D01*
X86113Y56015D01*
X86229Y56600D01*
X86113Y57185D01*
X85781Y57681D01*
X85285Y58013D01*
X85201Y58030D01*
X84834Y58504D01*
Y60319D01*
D02*
G37*
G36*
X175150Y57350D02*
X173836D01*
X173899Y57037D01*
X174274Y56474D01*
X174837Y56099D01*
X175150Y56036D01*
Y57350D01*
D02*
G37*
G36*
X177164D02*
X175850D01*
Y56036D01*
X176163Y56099D01*
X176726Y56474D01*
X177101Y57037D01*
X177164Y57350D01*
D02*
G37*
G36*
X46783Y56369D02*
X46677Y56349D01*
X46571Y56369D01*
X45957Y56247D01*
X45867Y56187D01*
X45762Y56166D01*
X45241Y55818D01*
X45181Y55729D01*
X45092Y55669D01*
X44744Y55148D01*
X44723Y55043D01*
X44663Y54953D01*
X44541Y54339D01*
X44551Y54284D01*
X44530Y54233D01*
X44551Y54182D01*
X44541Y54127D01*
X44663Y53513D01*
X44723Y53424D01*
X44744Y53318D01*
X45092Y52797D01*
X45181Y52737D01*
X45241Y52648D01*
X45762Y52300D01*
X45867Y52279D01*
X45957Y52219D01*
X46571Y52097D01*
X46677Y52118D01*
X46783Y52097D01*
X47397Y52219D01*
X47486Y52279D01*
X47592Y52300D01*
X48113Y52648D01*
X48173Y52737D01*
X48262Y52797D01*
X48610Y53318D01*
X48631Y53424D01*
X48691Y53513D01*
X48814Y54127D01*
X48803Y54182D01*
X48824Y54233D01*
X48803Y54284D01*
X48814Y54339D01*
X48691Y54953D01*
X48631Y55043D01*
X48610Y55148D01*
X48262Y55669D01*
X48173Y55729D01*
X48113Y55818D01*
X47592Y56166D01*
X47486Y56187D01*
X47397Y56247D01*
X46783Y56369D01*
D02*
G37*
G36*
X32472Y60319D02*
X29943D01*
Y57790D01*
X31758D01*
X32031Y57845D01*
X32263Y57999D01*
X32418Y58231D01*
X32472Y58504D01*
Y60319D01*
D02*
G37*
G36*
X99007D02*
X96478D01*
Y57790D01*
X98294D01*
X98567Y57845D01*
X98798Y57999D01*
X98953Y58231D01*
X99007Y58504D01*
Y60319D01*
D02*
G37*
G36*
X102865D02*
X100336D01*
Y58504D01*
X100390Y58231D01*
X100545Y57999D01*
X100777Y57845D01*
X101050Y57790D01*
X102865D01*
Y60319D01*
D02*
G37*
G36*
X106094D02*
X103565D01*
Y57790D01*
X105380D01*
X105653Y57845D01*
X105885Y57999D01*
X106040Y58231D01*
X106094Y58504D01*
Y60319D01*
D02*
G37*
G36*
X95778D02*
X93249D01*
Y58504D01*
X93304Y58231D01*
X93458Y57999D01*
X93690Y57845D01*
X93963Y57790D01*
X95778D01*
Y60319D01*
D02*
G37*
G36*
X36329D02*
X33801D01*
Y58504D01*
X33855Y58231D01*
X34010Y57999D01*
X34241Y57845D01*
X34514Y57790D01*
X36329D01*
Y60319D01*
D02*
G37*
G36*
X46645D02*
X44116D01*
Y57790D01*
X45932D01*
X46205Y57845D01*
X46436Y57999D01*
X46591Y58231D01*
X46645Y58504D01*
Y60319D01*
D02*
G37*
G36*
X57589D02*
X55060D01*
Y58504D01*
X55115Y58231D01*
X55269Y57999D01*
X55501Y57845D01*
X55774Y57790D01*
X57589D01*
Y60319D01*
D02*
G37*
G36*
X6410Y64450D02*
X5032D01*
Y62905D01*
X5696D01*
X5969Y62959D01*
X6201Y63114D01*
X6355Y63346D01*
X6410Y63619D01*
Y64450D01*
D02*
G37*
G36*
X122650Y71150D02*
X121336D01*
X121399Y70837D01*
X121774Y70274D01*
X122337Y69899D01*
X122650Y69836D01*
Y71150D01*
D02*
G37*
G36*
X124664D02*
X123350D01*
Y69836D01*
X123663Y69899D01*
X124226Y70274D01*
X124601Y70837D01*
X124664Y71150D01*
D02*
G37*
G36*
X196600Y73129D02*
X196015Y73013D01*
X195519Y72681D01*
X195187Y72185D01*
X195071Y71600D01*
X195187Y71015D01*
X195519Y70519D01*
X196015Y70187D01*
X196600Y70071D01*
X197185Y70187D01*
X197681Y70519D01*
X198013Y71015D01*
X198129Y71600D01*
X198013Y72185D01*
X197681Y72681D01*
X197185Y73013D01*
X196600Y73129D01*
D02*
G37*
G36*
X152150Y70650D02*
X150836D01*
X150899Y70337D01*
X151274Y69774D01*
X151837Y69399D01*
X152150Y69336D01*
Y70650D01*
D02*
G37*
G36*
X154164D02*
X152850D01*
Y69336D01*
X153163Y69399D01*
X153726Y69774D01*
X154101Y70337D01*
X154164Y70650D01*
D02*
G37*
G36*
X6610Y72850D02*
X4882D01*
X3155D01*
Y72019D01*
X3209Y71746D01*
X3364Y71514D01*
X3583Y71368D01*
X3593Y71310D01*
X3569Y70855D01*
X3495Y70841D01*
X3264Y70686D01*
X3109Y70454D01*
X3055Y70181D01*
Y69350D01*
X4782D01*
X6510D01*
Y70181D01*
X6455Y70454D01*
X6301Y70686D01*
X6081Y70832D01*
X6072Y70890D01*
X6096Y71345D01*
X6169Y71359D01*
X6401Y71514D01*
X6555Y71746D01*
X6610Y72019D01*
Y72850D01*
D02*
G37*
G36*
X182650Y72164D02*
X182337Y72101D01*
X181774Y71726D01*
X181399Y71163D01*
X181336Y70850D01*
X182650D01*
Y72164D01*
D02*
G37*
G36*
X122650Y73164D02*
X122337Y73101D01*
X121774Y72726D01*
X121399Y72163D01*
X121336Y71850D01*
X122650D01*
Y73164D01*
D02*
G37*
G36*
X123350D02*
Y71850D01*
X124664D01*
X124601Y72163D01*
X124226Y72726D01*
X123663Y73101D01*
X123350Y73164D01*
D02*
G37*
G36*
X6510Y77050D02*
X4782D01*
X3055D01*
Y76219D01*
X3109Y75946D01*
X3264Y75714D01*
X3495Y75560D01*
X3569Y75545D01*
X3593Y75090D01*
X3583Y75032D01*
X3364Y74886D01*
X3209Y74654D01*
X3155Y74381D01*
Y73550D01*
X4882D01*
X6610D01*
Y74381D01*
X6555Y74654D01*
X6401Y74886D01*
X6169Y75041D01*
X6096Y75055D01*
X6072Y75510D01*
X6081Y75568D01*
X6301Y75714D01*
X6455Y75946D01*
X6510Y76219D01*
Y77050D01*
D02*
G37*
G36*
X152850Y72664D02*
Y71350D01*
X154164D01*
X154101Y71663D01*
X153726Y72226D01*
X153163Y72601D01*
X152850Y72664D01*
D02*
G37*
G36*
X177650Y74650D02*
X174314D01*
X174395Y74034D01*
X174768Y73134D01*
X175361Y72361D01*
X175694Y72105D01*
X175532Y71600D01*
X175037Y71501D01*
X174474Y71126D01*
X174099Y70563D01*
X174036Y70250D01*
X177364D01*
X177301Y70563D01*
X177087Y70884D01*
X177377Y71350D01*
X177650Y71314D01*
Y74650D01*
D02*
G37*
G36*
X181686D02*
X178350D01*
Y71314D01*
X178966Y71395D01*
X179866Y71768D01*
X180639Y72361D01*
X181232Y73134D01*
X181605Y74034D01*
X181686Y74650D01*
D02*
G37*
G36*
X152150Y72664D02*
X151837Y72601D01*
X151274Y72226D01*
X150899Y71663D01*
X150836Y71350D01*
X152150D01*
Y72664D01*
D02*
G37*
G36*
X184664Y70150D02*
X183350D01*
Y68836D01*
X183663Y68899D01*
X184226Y69274D01*
X184601Y69837D01*
X184664Y70150D01*
D02*
G37*
G36*
X125030Y68116D02*
X124366D01*
X124093Y68061D01*
X123861Y67907D01*
X123707Y67675D01*
X123652Y67402D01*
Y66571D01*
X125030D01*
Y68116D01*
D02*
G37*
G36*
X126394D02*
X125730D01*
Y66571D01*
X127107D01*
Y67402D01*
X127053Y67675D01*
X126898Y67907D01*
X126667Y68061D01*
X126394Y68116D01*
D02*
G37*
G36*
X138000Y70529D02*
X137415Y70413D01*
X136919Y70081D01*
X136587Y69585D01*
X136471Y69000D01*
X136587Y68415D01*
X136919Y67919D01*
X137415Y67587D01*
X138000Y67471D01*
X138585Y67587D01*
X139081Y67919D01*
X139413Y68415D01*
X139529Y69000D01*
X139413Y69585D01*
X139081Y70081D01*
X138585Y70413D01*
X138000Y70529D01*
D02*
G37*
G36*
X6510Y68650D02*
X4782D01*
X3055D01*
Y67819D01*
X3109Y67546D01*
X3264Y67314D01*
X3483Y67168D01*
X3493Y67110D01*
X3469Y66655D01*
X3395Y66641D01*
X3164Y66486D01*
X3009Y66254D01*
X2955Y65981D01*
Y65150D01*
X4682D01*
X6410D01*
Y65981D01*
X6355Y66254D01*
X6201Y66486D01*
X5982Y66632D01*
X5972Y66690D01*
X5996Y67145D01*
X6069Y67159D01*
X6301Y67314D01*
X6455Y67546D01*
X6510Y67819D01*
Y68650D01*
D02*
G37*
G36*
X127107Y65871D02*
X125730D01*
Y64326D01*
X126394D01*
X126667Y64380D01*
X126898Y64535D01*
X127053Y64767D01*
X127107Y65040D01*
Y65871D01*
D02*
G37*
G36*
X175650Y65664D02*
X175337Y65601D01*
X174774Y65226D01*
X174399Y64663D01*
X174336Y64350D01*
X175650D01*
Y65664D01*
D02*
G37*
G36*
X176350D02*
Y64350D01*
X177664D01*
X177601Y64663D01*
X177226Y65226D01*
X176663Y65601D01*
X176350Y65664D01*
D02*
G37*
G36*
X114829Y71029D02*
X113604D01*
Y67712D01*
X115543D01*
Y70315D01*
X115489Y70588D01*
X115334Y70820D01*
X115102Y70974D01*
X114829Y71029D01*
D02*
G37*
G36*
X207308Y72249D02*
X201752D01*
X201479Y72195D01*
X201247Y72040D01*
X201093Y71809D01*
X201038Y71535D01*
Y68736D01*
X207308D01*
Y72249D01*
D02*
G37*
G36*
X213563D02*
X208008D01*
Y68736D01*
X214277D01*
Y71535D01*
X214222Y71809D01*
X214068Y72040D01*
X213836Y72195D01*
X213563Y72249D01*
D02*
G37*
G36*
X182650Y70150D02*
X181336D01*
X181399Y69837D01*
X181774Y69274D01*
X182337Y68899D01*
X182650Y68836D01*
Y70150D01*
D02*
G37*
G36*
X177364Y69550D02*
X176050D01*
Y68236D01*
X176363Y68299D01*
X176926Y68674D01*
X177301Y69237D01*
X177364Y69550D01*
D02*
G37*
G36*
X164882Y70450D02*
X163953D01*
X163680Y70396D01*
X163448Y70241D01*
X163293Y70009D01*
X163239Y69736D01*
Y68019D01*
X164882D01*
Y70450D01*
D02*
G37*
G36*
X166512D02*
X165582D01*
Y68019D01*
X167226D01*
Y69736D01*
X167171Y70009D01*
X167016Y70241D01*
X166785Y70396D01*
X166512Y70450D01*
D02*
G37*
G36*
X175350Y69550D02*
X174036D01*
X174099Y69237D01*
X174474Y68674D01*
X175037Y68299D01*
X175350Y68236D01*
Y69550D01*
D02*
G37*
G36*
X86978Y45981D02*
X85681D01*
Y44683D01*
X85988Y44744D01*
X86545Y45116D01*
X86917Y45674D01*
X86978Y45981D01*
D02*
G37*
G36*
X109951Y47013D02*
X108136D01*
X107863Y46959D01*
X107632Y46804D01*
X107477Y46572D01*
X107463Y46503D01*
X107279Y46256D01*
X106922Y46149D01*
X106850Y46164D01*
Y44500D01*
Y42836D01*
X106922Y42851D01*
X107422Y42516D01*
Y41969D01*
X107477Y41695D01*
X107632Y41464D01*
X107863Y41309D01*
X108136Y41255D01*
X109951D01*
Y44134D01*
Y47013D01*
D02*
G37*
G36*
X76319Y47978D02*
X76012Y47917D01*
X75455Y47545D01*
X75083Y46988D01*
X75022Y46681D01*
X76319D01*
Y47978D01*
D02*
G37*
G36*
X84981Y45981D02*
X83683D01*
X83744Y45674D01*
X84116Y45116D01*
X84674Y44744D01*
X84981Y44683D01*
Y45981D01*
D02*
G37*
G36*
X78317D02*
X77019D01*
Y44683D01*
X77326Y44744D01*
X77884Y45116D01*
X78256Y45674D01*
X78317Y45981D01*
D02*
G37*
G36*
X80650D02*
X79352D01*
X79413Y45674D01*
X79786Y45116D01*
X80343Y44744D01*
X80650Y44683D01*
Y45981D01*
D02*
G37*
G36*
X82648D02*
X81350D01*
Y44683D01*
X81657Y44744D01*
X82214Y45116D01*
X82586Y45674D01*
X82648Y45981D01*
D02*
G37*
G36*
X77019Y47978D02*
Y46681D01*
X78317D01*
X78256Y46988D01*
X77884Y47545D01*
X77326Y47917D01*
X77019Y47978D01*
D02*
G37*
G36*
X198449Y50713D02*
X187259D01*
Y50185D01*
X186837Y50101D01*
X186274Y49726D01*
X185899Y49163D01*
X185836Y48850D01*
X187500D01*
Y48150D01*
X185836D01*
X185899Y47837D01*
X186019Y47656D01*
X186260Y47250D01*
X186019Y46844D01*
X186003Y46820D01*
X185556Y46990D01*
X185528Y47008D01*
X185413Y47585D01*
X185081Y48081D01*
X184585Y48413D01*
X184000Y48529D01*
X183415Y48413D01*
X182919Y48081D01*
X182587Y47585D01*
X182471Y47000D01*
X182587Y46415D01*
X182919Y45919D01*
X183415Y45587D01*
X184000Y45471D01*
X184585Y45587D01*
X185081Y45919D01*
X185308Y46258D01*
X185779Y46063D01*
X185767Y46000D01*
X185899Y45337D01*
X186274Y44774D01*
X186837Y44399D01*
X187150Y44336D01*
Y46000D01*
X187500D01*
Y46350D01*
X189164D01*
X189101Y46663D01*
X188981Y46844D01*
X188740Y47250D01*
X188981Y47656D01*
X189101Y47837D01*
X189210Y48381D01*
X198449D01*
Y50713D01*
D02*
G37*
G36*
X167226Y50981D02*
X165232D01*
X163239D01*
Y49264D01*
X163293Y48991D01*
X163357Y48895D01*
X163184Y48450D01*
X163136Y48395D01*
X162504D01*
X162231Y48340D01*
X161999Y48186D01*
X161845Y47954D01*
X161790Y47681D01*
Y46850D01*
X165245D01*
Y47681D01*
X165191Y47954D01*
X165127Y48050D01*
X165301Y48494D01*
X165348Y48550D01*
X166512D01*
X166785Y48604D01*
X167016Y48759D01*
X167171Y48991D01*
X167226Y49264D01*
Y50981D01*
D02*
G37*
G36*
X174500Y50529D02*
X173915Y50413D01*
X173419Y50081D01*
X173087Y49585D01*
X172971Y49000D01*
X173087Y48415D01*
X173419Y47919D01*
X173915Y47587D01*
X174500Y47471D01*
X175085Y47587D01*
X175581Y47919D01*
X175913Y48415D01*
X176029Y49000D01*
X175913Y49585D01*
X175581Y50081D01*
X175085Y50413D01*
X174500Y50529D01*
D02*
G37*
G36*
X85681Y47978D02*
Y46681D01*
X86978D01*
X86917Y46988D01*
X86545Y47545D01*
X85988Y47917D01*
X85681Y47978D01*
D02*
G37*
G36*
X80650D02*
X80343Y47917D01*
X79786Y47545D01*
X79413Y46988D01*
X79352Y46681D01*
X80650D01*
Y47978D01*
D02*
G37*
G36*
X81350D02*
Y46681D01*
X82648D01*
X82586Y46988D01*
X82214Y47545D01*
X81657Y47917D01*
X81350Y47978D01*
D02*
G37*
G36*
X84981D02*
X84674Y47917D01*
X84116Y47545D01*
X83744Y46988D01*
X83683Y46681D01*
X84981D01*
Y47978D01*
D02*
G37*
G36*
X76319Y45981D02*
X75022D01*
X75083Y45674D01*
X75455Y45116D01*
X76012Y44744D01*
X76319Y44683D01*
Y45981D01*
D02*
G37*
G36*
X77019Y43648D02*
Y42350D01*
X78317D01*
X78256Y42657D01*
X77884Y43214D01*
X77326Y43587D01*
X77019Y43648D01*
D02*
G37*
G36*
X80650D02*
X80343Y43587D01*
X79786Y43214D01*
X79413Y42657D01*
X79352Y42350D01*
X80650D01*
Y43648D01*
D02*
G37*
G36*
X81350D02*
Y42350D01*
X82648D01*
X82586Y42657D01*
X82214Y43214D01*
X81657Y43587D01*
X81350Y43648D01*
D02*
G37*
G36*
X76319D02*
X76012Y43587D01*
X75455Y43214D01*
X75083Y42657D01*
X75022Y42350D01*
X76319D01*
Y43648D01*
D02*
G37*
G36*
X67016Y44514D02*
X66430Y44397D01*
X65934Y44066D01*
X65603Y43569D01*
X65486Y42984D01*
X65603Y42399D01*
X65934Y41903D01*
X66430Y41571D01*
X67016Y41455D01*
X67601Y41571D01*
X68097Y41903D01*
X68429Y42399D01*
X68545Y42984D01*
X68429Y43569D01*
X68097Y44066D01*
X67601Y44397D01*
X67016Y44514D01*
D02*
G37*
G36*
X210340Y50713D02*
X199149D01*
Y48381D01*
X200564D01*
X200837Y48199D01*
X201150Y48136D01*
Y49800D01*
X201850D01*
Y48136D01*
X202163Y48199D01*
X202436Y48381D01*
X203488D01*
X203724Y47940D01*
X203687Y47885D01*
X203571Y47300D01*
X203687Y46715D01*
X204019Y46219D01*
X204379Y45978D01*
X204228Y45478D01*
X201752D01*
X201479Y45423D01*
X201247Y45268D01*
X201093Y45037D01*
X201038Y44764D01*
Y41964D01*
X207308D01*
Y45478D01*
X205972D01*
X205821Y45978D01*
X206181Y46219D01*
X206513Y46715D01*
X206629Y47300D01*
X206513Y47885D01*
X206476Y47940D01*
X206712Y48381D01*
X209626D01*
X209899Y48435D01*
X210131Y48590D01*
X210285Y48821D01*
X210340Y49095D01*
Y50713D01*
D02*
G37*
G36*
X213563Y45478D02*
X208008D01*
Y41964D01*
X214277D01*
Y44764D01*
X214222Y45037D01*
X214068Y45268D01*
X213836Y45423D01*
X213563Y45478D01*
D02*
G37*
G36*
X84981Y43648D02*
X84674Y43587D01*
X84116Y43214D01*
X83744Y42657D01*
X83683Y42350D01*
X84981D01*
Y43648D01*
D02*
G37*
G36*
X189164Y45650D02*
X187850D01*
Y44336D01*
X188163Y44399D01*
X188726Y44774D01*
X189101Y45337D01*
X189164Y45650D01*
D02*
G37*
G36*
X38523Y47450D02*
X35074D01*
X34726Y47013D01*
X34514D01*
X34241Y46959D01*
X34010Y46804D01*
X33855Y46572D01*
X33801Y46299D01*
Y44484D01*
X36680D01*
X39559D01*
Y46299D01*
X39504Y46572D01*
X39349Y46804D01*
X39118Y46959D01*
X38848Y47012D01*
X38845Y47013D01*
X38523Y47450D01*
D02*
G37*
G36*
X31758Y47013D02*
X29943D01*
Y44484D01*
X32472D01*
Y46299D01*
X32418Y46572D01*
X32263Y46804D01*
X32031Y46959D01*
X31758Y47013D01*
D02*
G37*
G36*
X105380D02*
X103565D01*
Y44134D01*
X102865D01*
Y47013D01*
X101050D01*
X100777Y46959D01*
X100545Y46804D01*
X100390Y46572D01*
X100372Y46479D01*
X99964Y46259D01*
X99836Y46246D01*
X99585Y46413D01*
X99000Y46529D01*
X98415Y46413D01*
X97919Y46081D01*
X97587Y45585D01*
X97471Y45000D01*
X97587Y44415D01*
X97919Y43919D01*
X98415Y43587D01*
X99000Y43471D01*
X99585Y43587D01*
X99836Y43755D01*
X100336Y43487D01*
Y42513D01*
X99836Y42246D01*
X99585Y42413D01*
X99000Y42529D01*
X98415Y42413D01*
X97919Y42081D01*
X97587Y41585D01*
X97471Y41000D01*
X97587Y40415D01*
X97919Y39919D01*
X98415Y39587D01*
X99000Y39471D01*
X99585Y39587D01*
X100081Y39919D01*
X100413Y40415D01*
X100508Y40892D01*
X100549Y40955D01*
X100802Y41160D01*
X100969Y41257D01*
X101461Y41202D01*
X101700Y40755D01*
X101587Y40585D01*
X101471Y40000D01*
X101587Y39415D01*
X101700Y39245D01*
X101433Y38745D01*
X101050D01*
X100777Y38691D01*
X100545Y38536D01*
X100390Y38305D01*
X100336Y38032D01*
Y36216D01*
X103215D01*
X106094D01*
Y38032D01*
X106040Y38305D01*
X105885Y38536D01*
X105653Y38691D01*
X105380Y38745D01*
X104567D01*
X104300Y39245D01*
X104413Y39415D01*
X104529Y40000D01*
X104413Y40585D01*
X104300Y40755D01*
X104567Y41255D01*
X105380D01*
X105653Y41309D01*
X105885Y41464D01*
X106040Y41695D01*
X106094Y41969D01*
Y42453D01*
X106150Y42499D01*
Y44500D01*
Y46253D01*
X106094Y46299D01*
X106040Y46572D01*
X105885Y46804D01*
X105653Y46959D01*
X105380Y47013D01*
D02*
G37*
G36*
X85681Y43648D02*
Y42350D01*
X86978D01*
X86917Y42657D01*
X86545Y43214D01*
X85988Y43587D01*
X85681Y43648D01*
D02*
G37*
G36*
X154500Y45529D02*
X153915Y45413D01*
X153419Y45081D01*
X153087Y44585D01*
X152971Y44000D01*
X153087Y43415D01*
X153419Y42919D01*
X153915Y42587D01*
X154500Y42471D01*
X155085Y42587D01*
X155581Y42919D01*
X155913Y43415D01*
X156029Y44000D01*
X155913Y44585D01*
X155581Y45081D01*
X155085Y45413D01*
X154500Y45529D01*
D02*
G37*
G36*
X63300Y46229D02*
X62715Y46113D01*
X62219Y45781D01*
X61887Y45285D01*
X61771Y44700D01*
X61887Y44115D01*
X62090Y43810D01*
X61851Y43499D01*
X61750Y43420D01*
X61200Y43529D01*
X60615Y43413D01*
X60119Y43081D01*
X59787Y42585D01*
X59671Y42000D01*
X59787Y41415D01*
X60119Y40919D01*
X60615Y40587D01*
X60892Y40532D01*
X60979Y40359D01*
X61057Y39989D01*
X60787Y39585D01*
X60671Y39000D01*
X60787Y38415D01*
X61119Y37919D01*
X61615Y37587D01*
X62200Y37471D01*
X62785Y37587D01*
X63281Y37919D01*
X63613Y38415D01*
X63729Y39000D01*
X63613Y39585D01*
X63281Y40081D01*
X62785Y40413D01*
X62507Y40468D01*
X62420Y40641D01*
X62343Y41011D01*
X62613Y41415D01*
X62729Y42000D01*
X62613Y42585D01*
X62410Y42889D01*
X62649Y43201D01*
X62750Y43280D01*
X63300Y43171D01*
X63885Y43287D01*
X64381Y43619D01*
X64713Y44115D01*
X64829Y44700D01*
X64713Y45285D01*
X64381Y45781D01*
X63885Y46113D01*
X63300Y46229D01*
D02*
G37*
G36*
X14331Y49974D02*
X10350D01*
Y47543D01*
X15044D01*
Y49260D01*
X14990Y49533D01*
X14835Y49765D01*
X14604Y49919D01*
X14331Y49974D01*
D02*
G37*
G36*
X97650Y54985D02*
X96336D01*
X96399Y54672D01*
X96774Y54109D01*
X97337Y53734D01*
X97650Y53671D01*
Y54985D01*
D02*
G37*
G36*
X99664D02*
X98350D01*
Y53671D01*
X98663Y53734D01*
X99226Y54109D01*
X99601Y54672D01*
X99664Y54985D01*
D02*
G37*
G36*
X75700Y57029D02*
X75115Y56913D01*
X74619Y56581D01*
X74287Y56085D01*
X74171Y55500D01*
X74287Y54915D01*
X74619Y54419D01*
X75115Y54087D01*
X75700Y53971D01*
X76285Y54087D01*
X76781Y54419D01*
X77113Y54915D01*
X77229Y55500D01*
X77113Y56085D01*
X76781Y56581D01*
X76285Y56913D01*
X75700Y57029D01*
D02*
G37*
G36*
X89700Y56729D02*
X89115Y56613D01*
X88619Y56281D01*
X88287Y55785D01*
X88171Y55200D01*
X88287Y54615D01*
X88619Y54119D01*
X89115Y53787D01*
X89700Y53671D01*
X90285Y53787D01*
X90781Y54119D01*
X91113Y54615D01*
X91229Y55200D01*
X91113Y55785D01*
X90781Y56281D01*
X90285Y56613D01*
X89700Y56729D01*
D02*
G37*
G36*
X31758Y55281D02*
X29943D01*
Y52752D01*
X32472D01*
Y54567D01*
X32418Y54840D01*
X32263Y55072D01*
X32031Y55226D01*
X31758Y55281D01*
D02*
G37*
G36*
X130429Y67943D02*
X128402D01*
X128019Y67785D01*
X127860Y67402D01*
Y65040D01*
X128019Y64657D01*
X128402Y64499D01*
X130429D01*
X130812Y64657D01*
X130970Y65040D01*
Y65456D01*
X135300D01*
X135608Y65016D01*
X135587Y64985D01*
X135471Y64400D01*
X135587Y63815D01*
X135919Y63319D01*
X136415Y62987D01*
X137000Y62871D01*
X137585Y62987D01*
X138081Y63319D01*
X138124Y63382D01*
X144300D01*
X144651Y63452D01*
X144949Y63651D01*
X145000Y63702D01*
X151082Y57620D01*
Y56573D01*
X150819D01*
X150436Y56414D01*
X150278Y56032D01*
Y54004D01*
X150436Y53621D01*
X150819Y53463D01*
X153181D01*
X153564Y53621D01*
X153722Y54004D01*
Y56032D01*
X153564Y56414D01*
X153181Y56573D01*
X152918D01*
Y58000D01*
X152848Y58351D01*
X152649Y58649D01*
X145649Y65649D01*
X145351Y65848D01*
X145000Y65918D01*
X144649Y65848D01*
X144351Y65649D01*
X143920Y65218D01*
X138258D01*
X138081Y65481D01*
X137585Y65813D01*
X137190Y65892D01*
X136320Y66762D01*
X136072Y66927D01*
X135779Y66986D01*
X130970D01*
Y67402D01*
X130812Y67785D01*
X130429Y67943D01*
D02*
G37*
G36*
X214277Y68036D02*
X207658D01*
X201038D01*
Y68008D01*
X200697Y67497D01*
X200635Y67184D01*
X202298D01*
Y66484D01*
X200635D01*
X200697Y66171D01*
X201038Y65660D01*
Y65236D01*
X201093Y64963D01*
X201247Y64732D01*
X201089Y64236D01*
X201073Y64226D01*
X200697Y63663D01*
X200635Y63350D01*
X202298D01*
Y62650D01*
X200635D01*
X200697Y62337D01*
X200958Y61947D01*
X200732Y61447D01*
X187972D01*
X187590Y61288D01*
X187431Y60905D01*
Y57757D01*
X179753Y50079D01*
X179500Y50129D01*
X178915Y50013D01*
X178419Y49681D01*
X178087Y49185D01*
X177971Y48600D01*
X178087Y48015D01*
X178419Y47519D01*
X178915Y47187D01*
X179500Y47071D01*
X180085Y47187D01*
X180581Y47519D01*
X180913Y48015D01*
X181029Y48600D01*
X180979Y48853D01*
X188553Y56427D01*
X192682D01*
X192949Y55927D01*
X192787Y55685D01*
X192671Y55100D01*
X192787Y54515D01*
X192967Y54245D01*
X192700Y53745D01*
X187972D01*
X187699Y53691D01*
X187468Y53536D01*
X187313Y53305D01*
X187259Y53031D01*
Y51413D01*
X198449D01*
Y53745D01*
X195700D01*
X195433Y54245D01*
X195613Y54515D01*
X195729Y55100D01*
X195613Y55685D01*
X195451Y55927D01*
X195719Y56427D01*
X207310D01*
X209492Y54245D01*
X209285Y53745D01*
X199149D01*
Y51413D01*
X210340D01*
Y53031D01*
X210315Y53157D01*
X210570Y53504D01*
X210695Y53592D01*
X210800Y53571D01*
X211385Y53687D01*
X211881Y54019D01*
X212213Y54515D01*
X212329Y55100D01*
X212213Y55685D01*
X211881Y56181D01*
X210167Y57896D01*
Y60905D01*
X210009Y61288D01*
X209626Y61447D01*
X208196D01*
X207970Y61947D01*
X208230Y62337D01*
X208293Y62650D01*
X206629D01*
Y63350D01*
X208293D01*
X208230Y63663D01*
X207991Y64022D01*
X208242Y64522D01*
X213563D01*
X213836Y64577D01*
X214068Y64732D01*
X214222Y64963D01*
X214277Y65236D01*
Y68036D01*
D02*
G37*
G36*
X26566Y56973D02*
X22900D01*
X19233D01*
Y55748D01*
X19288Y55475D01*
X19347Y55386D01*
X19565Y54950D01*
X19406Y54567D01*
Y54114D01*
X18612D01*
Y54969D01*
X18454Y55351D01*
X18071Y55510D01*
X13937D01*
X13554Y55351D01*
X13396Y54969D01*
Y51032D01*
X13554Y50649D01*
X13937Y50490D01*
X18071D01*
X18454Y50649D01*
X18612Y51032D01*
Y51871D01*
X19406D01*
Y51417D01*
X19565Y51035D01*
X19347Y50599D01*
X19288Y50509D01*
X19233Y50236D01*
Y49011D01*
X22900D01*
X26566D01*
Y49414D01*
X26606Y49450D01*
X27066Y49636D01*
X27154Y49577D01*
X27428Y49523D01*
X29243D01*
Y52402D01*
Y55281D01*
X27428D01*
X27154Y55226D01*
X26924Y55072D01*
X26914Y55076D01*
X26463Y55283D01*
X26442Y55365D01*
X26453Y55386D01*
X26512Y55475D01*
X26566Y55748D01*
Y56973D01*
D02*
G37*
G36*
X97650Y56999D02*
X97337Y56936D01*
X96774Y56561D01*
X96399Y55998D01*
X96336Y55685D01*
X97650D01*
Y56999D01*
D02*
G37*
G36*
X98350D02*
Y55685D01*
X99664D01*
X99601Y55998D01*
X99226Y56561D01*
X98663Y56936D01*
X98350Y56999D01*
D02*
G37*
G36*
X15044Y58457D02*
X10350D01*
Y56026D01*
X14331D01*
X14604Y56081D01*
X14835Y56235D01*
X14990Y56467D01*
X15044Y56740D01*
Y58457D01*
D02*
G37*
G36*
X141900Y61329D02*
X141315Y61213D01*
X140819Y60881D01*
X140487Y60385D01*
X140371Y59800D01*
X140487Y59215D01*
X140819Y58719D01*
X140895Y58667D01*
X140919Y58081D01*
X140587Y57585D01*
X140471Y57000D01*
X140587Y56415D01*
X140919Y55919D01*
X141415Y55587D01*
X142000Y55471D01*
X142585Y55587D01*
X143081Y55919D01*
X143413Y56415D01*
X143529Y57000D01*
X143413Y57585D01*
X143081Y58081D01*
X143005Y58133D01*
X142981Y58719D01*
X143313Y59215D01*
X143429Y59800D01*
X143313Y60385D01*
X142981Y60881D01*
X142485Y61213D01*
X141900Y61329D01*
D02*
G37*
G36*
X138000Y57529D02*
X137415Y57413D01*
X136919Y57081D01*
X136587Y56585D01*
X136471Y56000D01*
X136587Y55415D01*
X136919Y54919D01*
X137415Y54587D01*
X138000Y54471D01*
X138585Y54587D01*
X139081Y54919D01*
X139413Y55415D01*
X139529Y56000D01*
X139413Y56585D01*
X139081Y57081D01*
X138585Y57413D01*
X138000Y57529D01*
D02*
G37*
G36*
X129500Y58029D02*
X128915Y57913D01*
X128419Y57581D01*
X128087Y57085D01*
X127971Y56500D01*
X128087Y55915D01*
X128419Y55419D01*
X128915Y55087D01*
X129500Y54971D01*
X130085Y55087D01*
X130581Y55419D01*
X130913Y55915D01*
X131029Y56500D01*
X130913Y57085D01*
X130581Y57581D01*
X130085Y57913D01*
X129500Y58029D01*
D02*
G37*
G36*
X133000Y58529D02*
X132415Y58413D01*
X131919Y58081D01*
X131587Y57585D01*
X131471Y57000D01*
X131587Y56415D01*
X131919Y55919D01*
X132415Y55587D01*
X133000Y55471D01*
X133585Y55587D01*
X134081Y55919D01*
X134413Y56415D01*
X134529Y57000D01*
X134413Y57585D01*
X134081Y58081D01*
X133585Y58413D01*
X133000Y58529D01*
D02*
G37*
G36*
X38845Y55281D02*
X37029D01*
Y52752D01*
X39559D01*
Y54567D01*
X39504Y54840D01*
X39349Y55072D01*
X39118Y55226D01*
X38845Y55281D01*
D02*
G37*
G36*
X106094Y52052D02*
X103565D01*
Y49523D01*
X105380D01*
X105653Y49577D01*
X105885Y49732D01*
X106040Y49963D01*
X106094Y50236D01*
Y52052D01*
D02*
G37*
G36*
X109951D02*
X107422D01*
Y50236D01*
X107477Y49963D01*
X107632Y49732D01*
X107863Y49577D01*
X108136Y49523D01*
X109951D01*
Y52052D01*
D02*
G37*
G36*
X170700Y52929D02*
X170115Y52813D01*
X169619Y52481D01*
X169287Y51985D01*
X169171Y51400D01*
X169287Y50815D01*
X169619Y50319D01*
X170115Y49987D01*
X170700Y49871D01*
X171285Y49987D01*
X171781Y50319D01*
X172113Y50815D01*
X172229Y51400D01*
X172113Y51985D01*
X171781Y52481D01*
X171285Y52813D01*
X170700Y52929D01*
D02*
G37*
G36*
X102865Y52052D02*
X100336D01*
Y50236D01*
X100390Y49963D01*
X100545Y49732D01*
X100777Y49577D01*
X101050Y49523D01*
X102865D01*
Y52052D01*
D02*
G37*
G36*
X36680Y52402D02*
D01*
Y52052D01*
X33801D01*
Y50236D01*
X33855Y49963D01*
X34010Y49732D01*
X34241Y49577D01*
X34514Y49523D01*
X35418D01*
X35574Y49026D01*
X35199Y48463D01*
X35136Y48150D01*
X38464D01*
X38401Y48463D01*
X38026Y49026D01*
X38182Y49523D01*
X38845D01*
X39118Y49577D01*
X39349Y49732D01*
X39504Y49963D01*
X39559Y50236D01*
Y52052D01*
X36680D01*
Y52402D01*
D02*
G37*
G36*
X54400Y52529D02*
X53815Y52413D01*
X53319Y52081D01*
X52987Y51585D01*
X52871Y51000D01*
X52987Y50415D01*
X53319Y49919D01*
X53815Y49587D01*
X54400Y49471D01*
X54985Y49587D01*
X55481Y49919D01*
X55813Y50415D01*
X55929Y51000D01*
X55813Y51585D01*
X55481Y52081D01*
X54985Y52413D01*
X54400Y52529D01*
D02*
G37*
G36*
X32472Y52052D02*
X29943D01*
Y49523D01*
X31758D01*
X32031Y49577D01*
X32263Y49732D01*
X32418Y49963D01*
X32472Y50236D01*
Y52052D01*
D02*
G37*
G36*
X129500Y53529D02*
X128915Y53413D01*
X128419Y53081D01*
X128087Y52585D01*
X127971Y52000D01*
X128087Y51415D01*
X128419Y50919D01*
X128915Y50587D01*
X129500Y50471D01*
X130085Y50587D01*
X130581Y50919D01*
X130913Y51415D01*
X131029Y52000D01*
X130913Y52585D01*
X130581Y53081D01*
X130085Y53413D01*
X129500Y53529D01*
D02*
G37*
G36*
X36329Y55281D02*
X34514D01*
X34241Y55226D01*
X34010Y55072D01*
X33855Y54840D01*
X33801Y54567D01*
Y52752D01*
X36329D01*
Y55281D01*
D02*
G37*
G36*
X109951D02*
X108136D01*
X107863Y55226D01*
X107632Y55072D01*
X107477Y54840D01*
X107422Y54567D01*
Y52752D01*
X109951D01*
Y55281D01*
D02*
G37*
G36*
X105380D02*
X103565D01*
Y52752D01*
X106094D01*
Y54567D01*
X106040Y54840D01*
X105885Y55072D01*
X105653Y55226D01*
X105380Y55281D01*
D02*
G37*
G36*
X102865D02*
X101050D01*
X100777Y55226D01*
X100545Y55072D01*
X100390Y54840D01*
X100336Y54567D01*
Y52752D01*
X102865D01*
Y55281D01*
D02*
G37*
G36*
X70000Y54129D02*
X69415Y54013D01*
X68919Y53681D01*
X68587Y53185D01*
X68471Y52600D01*
X68587Y52015D01*
X68919Y51519D01*
X69415Y51187D01*
X70000Y51071D01*
X70585Y51187D01*
X71081Y51519D01*
X71413Y52015D01*
X71529Y52600D01*
X71413Y53185D01*
X71081Y53681D01*
X70585Y54013D01*
X70000Y54129D01*
D02*
G37*
G36*
X162350Y58464D02*
Y56800D01*
Y55136D01*
X162506Y55167D01*
X162684Y55180D01*
X163040Y54849D01*
X163087Y54615D01*
X163250Y54371D01*
X163448Y53902D01*
X163293Y53671D01*
X163239Y53398D01*
Y51681D01*
X165232D01*
X167226D01*
Y53398D01*
X167171Y53671D01*
X167016Y53902D01*
X166785Y54057D01*
X166512Y54111D01*
X166178D01*
X165911Y54611D01*
X165913Y54615D01*
X166029Y55200D01*
X165913Y55785D01*
X165581Y56281D01*
X165085Y56613D01*
X164500Y56729D01*
X164218Y56673D01*
X164137Y56694D01*
X163701Y57010D01*
X163686Y57038D01*
X163601Y57463D01*
X163226Y58026D01*
X162663Y58401D01*
X162350Y58464D01*
D02*
G37*
G36*
X177000Y55629D02*
X176415Y55513D01*
X175919Y55181D01*
X175587Y54685D01*
X175471Y54100D01*
X175587Y53515D01*
X175919Y53019D01*
X176415Y52687D01*
X177000Y52571D01*
X177585Y52687D01*
X178081Y53019D01*
X178413Y53515D01*
X178529Y54100D01*
X178413Y54685D01*
X178081Y55181D01*
X177585Y55513D01*
X177000Y55629D01*
D02*
G37*
%LPD*%
D10*
X201768Y16882D02*
D03*
Y24559D02*
D03*
Y27118D02*
D03*
Y19441D02*
D03*
Y22000D02*
D03*
D11*
X202654Y9402D02*
D03*
Y34598D02*
D03*
D12*
X212300Y17276D02*
D03*
Y26724D02*
D03*
D13*
Y9008D02*
D03*
Y34992D02*
D03*
D14*
X16004Y53000D02*
D03*
X3996D02*
D03*
D15*
X10000Y47193D02*
D03*
Y58807D02*
D03*
D16*
X124000Y45000D02*
D03*
D17*
X156768Y67669D02*
D03*
X165232D02*
D03*
Y51331D02*
D03*
X156768D02*
D03*
Y28669D02*
D03*
X165232D02*
D03*
Y12331D02*
D03*
X156768D02*
D03*
D18*
X176390Y32655D02*
D03*
X176350Y43615D02*
D03*
D19*
X26640Y12638D02*
D03*
X39632D02*
D03*
X43963D02*
D03*
X30971D02*
D03*
X35302D02*
D03*
X48294D02*
D03*
X56955D02*
D03*
X52624D02*
D03*
X26640Y67362D02*
D03*
X30971D02*
D03*
X43963D02*
D03*
X35302D02*
D03*
X39632D02*
D03*
X48294D02*
D03*
X56955D02*
D03*
X52624D02*
D03*
X61286D02*
D03*
X69947Y12638D02*
D03*
X61286D02*
D03*
X65617D02*
D03*
X74278D02*
D03*
X78609D02*
D03*
X82939D02*
D03*
X91601D02*
D03*
X87270D02*
D03*
X95932D02*
D03*
X100262D02*
D03*
X104593D02*
D03*
X108924D02*
D03*
X113254D02*
D03*
X65617Y67362D02*
D03*
X74278D02*
D03*
X69947D02*
D03*
X78609D02*
D03*
X82939D02*
D03*
X91601D02*
D03*
X87270D02*
D03*
X100262D02*
D03*
X95932D02*
D03*
X104593D02*
D03*
X108924D02*
D03*
X113254D02*
D03*
D20*
X22900Y18347D02*
D03*
Y31339D02*
D03*
Y22677D02*
D03*
Y27008D02*
D03*
Y40000D02*
D03*
Y35669D02*
D03*
Y44331D02*
D03*
Y48662D02*
D03*
Y57323D02*
D03*
Y52992D02*
D03*
Y61654D02*
D03*
X116995Y18347D02*
D03*
Y22677D02*
D03*
Y27008D02*
D03*
Y31339D02*
D03*
Y35669D02*
D03*
Y40000D02*
D03*
Y44331D02*
D03*
Y48662D02*
D03*
Y52992D02*
D03*
Y57323D02*
D03*
Y61654D02*
D03*
D21*
X29593Y19331D02*
D03*
Y27599D02*
D03*
Y35866D02*
D03*
X36680Y19331D02*
D03*
Y27599D02*
D03*
X57939Y19331D02*
D03*
X43766D02*
D03*
X29593Y44134D02*
D03*
Y52402D02*
D03*
Y60669D02*
D03*
X36680Y44134D02*
D03*
Y35866D02*
D03*
Y60669D02*
D03*
Y52402D02*
D03*
X57939Y60669D02*
D03*
X43766D02*
D03*
X81955Y19331D02*
D03*
X96128D02*
D03*
X103215D02*
D03*
X110302D02*
D03*
Y27599D02*
D03*
X103215D02*
D03*
X110302Y35866D02*
D03*
X103215D02*
D03*
X81955Y60669D02*
D03*
X96128D02*
D03*
X103215Y52402D02*
D03*
Y60669D02*
D03*
Y44134D02*
D03*
X110302D02*
D03*
Y52402D02*
D03*
Y60669D02*
D03*
D22*
X184838Y30000D02*
D03*
X189562D02*
D03*
X9162Y38400D02*
D03*
X4438D02*
D03*
X9524Y26800D02*
D03*
X4800D02*
D03*
X9062Y34400D02*
D03*
X4338D02*
D03*
X184838Y33500D02*
D03*
X189562D02*
D03*
D23*
X146673Y41673D02*
D03*
Y38327D02*
D03*
X143327D02*
D03*
Y41673D02*
D03*
D24*
X6130Y13500D02*
D03*
X162870Y40000D02*
D03*
D25*
X9870Y13500D02*
D03*
X159130Y40000D02*
D03*
D26*
X198799Y51063D02*
D03*
Y58937D02*
D03*
D27*
X207658Y68386D02*
D03*
Y41614D02*
D03*
D28*
X175700Y15962D02*
D03*
Y11238D02*
D03*
D29*
X129415Y66221D02*
D03*
X125380D02*
D03*
X4882Y73200D02*
D03*
X8918D02*
D03*
X159482Y46500D02*
D03*
X163518D02*
D03*
X8818Y69000D02*
D03*
X4782D02*
D03*
X8818Y77400D02*
D03*
X4782D02*
D03*
X8518Y30500D02*
D03*
X4482D02*
D03*
X8818Y23000D02*
D03*
X4782D02*
D03*
X8018Y42500D02*
D03*
X3982D02*
D03*
X8718Y64800D02*
D03*
X4682D02*
D03*
X158982Y35500D02*
D03*
X163018D02*
D03*
X5082Y19300D02*
D03*
X9118D02*
D03*
X189018Y26000D02*
D03*
X184982D02*
D03*
X189018Y19000D02*
D03*
X184982D02*
D03*
X189018Y22500D02*
D03*
X184982D02*
D03*
X134982Y36000D02*
D03*
X139018D02*
D03*
X134982Y39500D02*
D03*
X139018D02*
D03*
X134982Y43000D02*
D03*
X139018D02*
D03*
D30*
X128800Y16718D02*
D03*
Y12682D02*
D03*
X179400Y16218D02*
D03*
Y12182D02*
D03*
X133600Y12782D02*
D03*
Y16818D02*
D03*
X171400Y28218D02*
D03*
Y24182D02*
D03*
X151500Y41018D02*
D03*
Y36982D02*
D03*
X152000Y50982D02*
D03*
Y55018D02*
D03*
D31*
X171500Y11050D02*
D03*
Y17150D02*
D03*
X177300Y21150D02*
D03*
Y27250D02*
D03*
X138600Y11450D02*
D03*
Y17550D02*
D03*
D32*
X145450Y12200D02*
D03*
X151550D02*
D03*
X183950Y14100D02*
D03*
X190050D02*
D03*
X151550Y19700D02*
D03*
X145450D02*
D03*
D33*
X123000Y51000D02*
D03*
D34*
X2500Y41018D02*
X3982Y42500D01*
X2500Y40500D02*
Y41018D01*
Y40500D02*
X4438Y38562D01*
Y38400D02*
Y38562D01*
X161800Y22300D02*
X163928Y24428D01*
X165232D01*
X161800Y22300D02*
Y29000D01*
X158982Y31818D02*
X161800Y29000D01*
X158982Y31818D02*
Y35500D01*
X152250Y16120D02*
Y19700D01*
X145850Y12200D02*
Y13750D01*
X152000Y12350D02*
X152150Y12200D01*
X165232Y48732D02*
Y51331D01*
X177500Y5500D02*
X178000Y5000D01*
X162000Y56800D02*
Y64437D01*
X165232Y67669D01*
Y24428D02*
Y28669D01*
X189311Y19441D02*
X200768D01*
X189370Y22000D02*
X200768D01*
X192941Y24559D02*
X200768D01*
X191500Y26000D02*
X192941Y24559D01*
X197328Y27118D02*
X200768D01*
X164831Y28669D02*
X165232D01*
X166669Y12331D02*
X168050Y10950D01*
X165232Y12331D02*
X166669D01*
X152000Y15870D02*
X152250Y16120D01*
X152000Y12350D02*
Y15870D01*
X141500Y18100D02*
X145850Y13750D01*
X39632Y10368D02*
X43000Y7000D01*
X120661Y48662D02*
X123000Y51000D01*
X116995Y48662D02*
X120661D01*
X123331Y44331D02*
X124000Y45000D01*
X116995Y44331D02*
X123331D01*
X116116Y15500D02*
X116616Y15000D01*
X162000Y54000D02*
X164669Y51331D01*
X165232D01*
X163272Y46772D02*
X165232Y48732D01*
X198500Y40500D02*
X198745Y40255D01*
X197328Y27118D02*
Y30278D01*
X172000Y17150D02*
X172500Y16650D01*
X4000Y17000D02*
X4500Y17500D01*
X189562Y33500D02*
X196063D01*
X189562Y30000D02*
X195563D01*
X196063Y30500D01*
X141500Y18100D02*
Y19800D01*
X138600Y17550D02*
X139250D01*
X141500Y19800D01*
X133600Y16818D02*
X137868D01*
X138600Y17550D01*
X126482Y15000D02*
X128800Y12682D01*
X138600Y11450D02*
X140550Y9500D01*
X142400D01*
X162000Y54000D02*
Y56800D01*
X188870Y19000D02*
X189311Y19441D01*
X188870Y26000D02*
X189018D01*
X191500D01*
X188870Y22500D02*
X189370Y22000D01*
X4438Y34500D02*
Y38400D01*
X4338Y34400D02*
X4438Y34500D01*
X4338Y30645D02*
Y34400D01*
Y30645D02*
X4482Y30500D01*
Y27118D02*
Y30500D01*
Y27118D02*
X4800Y26800D01*
Y23018D02*
Y26800D01*
X4782Y23000D02*
X4800Y23018D01*
X4782Y19600D02*
Y23000D01*
Y19600D02*
X5082Y19300D01*
X182250Y14100D02*
X183950D01*
X172500Y16650D02*
X177500D01*
X172000Y17150D02*
Y20500D01*
X179700Y16650D02*
X182250Y14100D01*
X177500Y16650D02*
X179700D01*
X179400Y6400D02*
Y12182D01*
X178000Y5000D02*
X179400Y6400D01*
X4500Y17500D02*
Y19482D01*
X116616Y15000D02*
X126482D01*
X168050Y10950D02*
X174450D01*
X175682Y12182D01*
X165232Y24428D02*
X171400D01*
X175682Y12182D02*
X179400D01*
X201654Y10533D02*
X207800D01*
X196440Y34000D02*
X198745Y31695D01*
X197328Y30278D02*
X198745Y31695D01*
Y40255D01*
X163272Y46500D02*
Y46772D01*
D35*
X17100Y21700D02*
X18077Y22677D01*
X22900D01*
X61286Y12638D02*
X65617D01*
X22900Y40000D02*
Y44331D01*
Y35669D02*
Y40000D01*
X29593Y19331D02*
X36680D01*
X43766D01*
X22900Y35669D02*
X29396D01*
X29593Y27599D02*
X36680D01*
X29593Y35866D02*
X36680D01*
X53831Y19331D02*
X57939D01*
X103215Y60669D02*
X110302D01*
X108924Y17953D02*
X110302Y19331D01*
X81955Y13622D02*
Y19331D01*
X103215Y44134D02*
Y52402D01*
X110302Y27599D02*
Y35866D01*
X57939Y19331D02*
X60169D01*
X177500Y16650D02*
Y20350D01*
X96258Y61669D02*
X96272Y61667D01*
X82939Y71939D02*
X83000Y72000D01*
X82939Y67362D02*
Y71939D01*
X116116Y15500D02*
X116995Y16378D01*
X113254Y12638D02*
X116116Y15500D01*
X16012Y52992D02*
X22900D01*
X16004Y53000D02*
X16012Y52992D01*
X22900Y44331D02*
Y48662D01*
Y31339D02*
Y35669D01*
Y18347D02*
Y22677D01*
X29396Y35669D02*
X29593Y35866D01*
Y19331D02*
Y27599D01*
X22900Y18347D02*
X28609D01*
X29593Y19331D01*
X35302Y12638D02*
Y17953D01*
X36680Y19331D01*
X26640Y12638D02*
Y14606D01*
X22900Y18347D02*
X26640Y14606D01*
X43963Y12638D02*
Y19134D01*
X43766Y19331D02*
X43963Y19134D01*
X60169Y19331D02*
X61286Y18214D01*
Y12638D02*
Y18214D01*
X81955Y13622D02*
X82939Y12638D01*
X108924D02*
X113254D01*
X116995Y16378D02*
Y18347D01*
X108924Y12638D02*
Y17953D01*
X96128Y19331D02*
X97669D01*
X113254Y67362D02*
X113638D01*
X116995Y64006D01*
Y61654D02*
Y64006D01*
X116010Y60669D02*
X116995Y61654D01*
X110302Y52402D02*
X110892Y52992D01*
X116995D01*
X103215Y52402D02*
Y60669D01*
X106866Y44134D02*
X110302D01*
X106500Y44500D02*
X106866Y44134D01*
X103581Y44500D02*
X106500D01*
X103215Y44134D02*
X103581Y44500D01*
X110302Y44134D02*
Y52402D01*
Y35866D02*
Y44134D01*
X103215Y27599D02*
Y35866D01*
X53500Y19000D02*
X53831Y19331D01*
X171400Y27972D02*
Y28218D01*
Y31700D01*
X176390Y32655D02*
X177500Y31544D01*
X167700Y35400D02*
X171400Y31700D01*
X167700Y35400D02*
X168700D01*
X176350Y43050D01*
Y43615D01*
X177500Y26650D02*
Y31544D01*
X99731Y19331D02*
X103215D01*
X99500Y19100D02*
X99731Y19331D01*
X97439Y19100D02*
X97669Y19331D01*
X97439Y19100D02*
X99500D01*
X36680Y27599D02*
Y35866D01*
X81955Y19331D02*
Y23300D01*
X96272Y61667D02*
X103215Y60669D01*
Y19331D02*
X110302D01*
X103215Y27599D02*
X110302D01*
Y60669D02*
X116010D01*
D36*
X152000Y51331D02*
X156768D01*
X148130Y51130D02*
X152000D01*
X159728Y46500D02*
Y49772D01*
X151130Y37130D02*
X151600Y36660D01*
X3996Y53000D02*
Y57504D01*
Y49796D02*
Y53000D01*
X69900Y21100D02*
X74100Y16900D01*
X32262Y58000D02*
X33000D01*
X39632Y63622D02*
Y67362D01*
X98000Y55335D02*
Y58798D01*
X29593Y44134D02*
Y52402D01*
X36680D02*
Y54321D01*
X135779Y66221D02*
X137000Y65000D01*
X62500Y21100D02*
X69900D01*
X74100Y16900D02*
X74278Y16722D01*
X184982Y26000D02*
X185130D01*
X96664Y61000D02*
X96666Y60997D01*
X96666Y60997D01*
X96666Y60997D01*
X96667Y60996D01*
X96667Y60996D01*
X96667Y60996D01*
X96667Y60996D01*
X129500Y36000D02*
X134982D01*
X129415Y66221D02*
X135779D01*
X123000Y66900D02*
Y71500D01*
Y66900D02*
X123679Y66221D01*
X125380D01*
X138870Y36000D02*
X139018D01*
X143327Y36427D02*
Y38327D01*
X142900Y36000D02*
X143327Y36427D01*
X139018Y36000D02*
X142900D01*
X151600Y35600D02*
Y36660D01*
X148000Y32000D02*
X151600Y35600D01*
X146673Y33327D02*
X148000Y32000D01*
X146673Y33327D02*
Y38327D01*
X145500Y45000D02*
X146673Y43827D01*
Y41673D02*
Y43827D01*
X140400Y39500D02*
X142573Y41673D01*
X138870Y39500D02*
X139018D01*
X142573Y41673D02*
X143327D01*
X139018Y39500D02*
X140400D01*
X143300Y41647D02*
X143327Y41673D01*
X3696Y49496D02*
X3996Y49796D01*
X3696Y48796D02*
Y49496D01*
Y48796D02*
X5299Y47193D01*
X10000D01*
X4307Y58807D02*
X4682Y59182D01*
X4000Y58500D02*
X4307Y58807D01*
X3500Y58000D02*
X4000Y58500D01*
X4682Y59182D02*
Y64800D01*
X4782Y64900D01*
Y69000D01*
X4307Y58807D02*
X10000D01*
X100262Y10238D02*
X102500Y8000D01*
X147000Y50000D02*
X148130Y51130D01*
X133025Y50000D02*
X147000D01*
X162870Y35500D02*
X162870Y35500D01*
X162870Y35500D02*
Y40000D01*
X159130D02*
Y41630D01*
X131750Y48725D02*
X133025Y50000D01*
X141000Y45000D02*
X145500D01*
X138870Y43000D02*
X139000D01*
X156768Y12331D02*
Y28669D01*
Y33232D01*
X154000Y36000D02*
X156768Y33232D01*
X154000Y36000D02*
Y40000D01*
X129000D02*
X134630D01*
X128000Y44000D02*
X131750Y47750D01*
Y48725D01*
X135130Y45630D02*
X137500Y48000D01*
X30971Y9029D02*
X33000Y7000D01*
X91601Y63399D02*
X92000Y63000D01*
X91601Y63399D02*
Y67362D01*
X39632Y10368D02*
Y12638D01*
X87000Y63000D02*
X87270Y63270D01*
Y67362D01*
X156768Y51331D02*
Y67669D01*
Y51331D02*
X158169D01*
X159728Y49772D01*
X12500Y13500D02*
X14000Y12000D01*
X9870Y13500D02*
X12500D01*
X6130Y13500D02*
X6130Y13500D01*
X30971Y9029D02*
Y12638D01*
X78609D02*
Y16391D01*
X78000Y17000D02*
X78609Y16391D01*
X74278Y12638D02*
Y16722D01*
X100262Y10238D02*
Y12638D01*
X55000Y57730D02*
X57939Y60669D01*
X55000Y55000D02*
Y57730D01*
X29593Y60669D02*
X36680D01*
X29593D02*
X32262Y58000D01*
X29593Y52402D02*
Y54593D01*
X33000Y58000D01*
X36680Y54321D01*
X29593Y44134D02*
X36680D01*
X23097D02*
X29593D01*
X22900Y57323D02*
Y61654D01*
X28609D01*
X29593Y60669D01*
X36680D02*
X39632Y63622D01*
X8697Y48496D02*
X10000Y47193D01*
X8518Y43000D02*
X10600D01*
X8018Y42500D02*
X8518Y43000D01*
X6130Y13500D02*
Y15612D01*
X180400Y33500D02*
X184838D01*
X179850Y32950D02*
X180400Y33500D01*
X179850Y21150D02*
X182000Y19000D01*
X161500Y44000D02*
X167500D01*
X159130Y41630D02*
X161500Y44000D01*
X181800Y30000D02*
X184838D01*
X180850Y29050D02*
X181800Y30000D01*
X182600Y26000D02*
X184982D01*
X179850Y21150D02*
Y32950D01*
X180850Y23600D02*
Y29050D01*
Y23600D02*
X181950Y22500D01*
X182500D01*
X137000Y64400D02*
Y65000D01*
Y64300D02*
Y64400D01*
X152500Y40870D02*
X153685Y39685D01*
X135130Y43000D02*
Y45630D01*
X143300Y41647D02*
X143347Y41600D01*
X139000Y43000D02*
X141000Y45000D01*
X134630Y40000D02*
X135130Y39500D01*
X10600Y43000D02*
X11400Y42200D01*
X6130Y15612D02*
X9100Y18582D01*
Y19400D01*
X8518Y33856D02*
X9062Y34400D01*
X11400Y40638D02*
Y42200D01*
X9162Y38400D02*
X11400Y40638D01*
X8818Y23000D02*
X10200D01*
X12700Y25500D01*
X9524Y26800D02*
X11400D01*
X12700Y25500D01*
X9062Y34400D02*
X11800Y31662D01*
Y31200D02*
Y31662D01*
X11100Y30500D02*
X11800Y31200D01*
X8518Y30500D02*
X11100D01*
X88800Y18400D02*
Y19300D01*
X87270Y16870D02*
X88800Y18400D01*
X87270Y12638D02*
Y16870D01*
X39632Y67362D02*
Y71100D01*
X69947Y67362D02*
Y71100D01*
X3500Y58000D02*
X3996Y57504D01*
X36680Y44134D02*
Y52402D01*
X4782Y69000D02*
Y77400D01*
X36680Y60669D02*
X43766D01*
X96667Y60996D02*
X98000Y58798D01*
X82085Y61669D02*
X82754Y61000D01*
X96664D01*
D37*
X198799Y58937D02*
X206963D01*
X210800Y55100D01*
X202654Y9402D02*
X210906D01*
X201654D02*
X202654D01*
X210906D02*
X211300Y9795D01*
Y17276D01*
D38*
X137000Y64300D02*
X144300D01*
X129009Y16509D02*
X132500Y20000D01*
X150000Y23750D02*
Y30000D01*
X145950Y19700D02*
X150000Y23750D01*
X144300Y64300D02*
X145000Y65000D01*
X152000Y55018D02*
Y58000D01*
Y54870D02*
Y55018D01*
X150721Y37539D02*
X151130Y37130D01*
X148000Y32000D02*
X150000Y30000D01*
X145000Y65000D02*
X152000Y58000D01*
X183000Y19000D02*
X184982D01*
X185130D01*
X182500Y22500D02*
X184982D01*
X185130D01*
D39*
X179500Y48600D02*
X189837Y58937D01*
X197328Y27118D02*
X197328Y27118D01*
X78000Y63000D02*
Y66754D01*
X57939Y60669D02*
X59270Y62000D01*
X68000D02*
X69947Y63947D01*
Y67362D01*
X78000Y66754D02*
X78609Y67362D01*
X189837Y58937D02*
X198799D01*
X133600Y9700D02*
Y12782D01*
X59270Y62000D02*
X68000D01*
D40*
X8718Y68900D02*
X8818Y69000D01*
X8718Y64800D02*
Y68900D01*
Y64800D02*
X13600D01*
X16162Y67362D01*
X18900D01*
X30971D02*
X35302D01*
X8818Y69000D02*
Y77400D01*
X18900Y67362D02*
X26640D01*
X30971D01*
D41*
X192832Y16882D02*
X200768D01*
X190050Y14100D02*
X192832Y16882D01*
X190050Y14100D02*
X193100Y11050D01*
Y10800D02*
Y11050D01*
D42*
X35800Y71200D02*
X39632D01*
X66115D02*
X69947D01*
D43*
X177900Y77550D02*
D03*
X187900D02*
D03*
X137900D02*
D03*
X147900D02*
D03*
X157900D02*
D03*
X167900D02*
D03*
X107900D02*
D03*
X117900D02*
D03*
X127900D02*
D03*
X57900D02*
D03*
X67900D02*
D03*
X77900D02*
D03*
X17900D02*
D03*
X27900D02*
D03*
X37900D02*
D03*
X47900D02*
D03*
X28100Y2450D02*
D03*
X18100D02*
D03*
X68100D02*
D03*
X58100D02*
D03*
X108100D02*
D03*
X98100D02*
D03*
X88100D02*
D03*
X78100D02*
D03*
X148100D02*
D03*
X138100D02*
D03*
X128100D02*
D03*
X118100D02*
D03*
X158100D02*
D03*
X168100D02*
D03*
X178100D02*
D03*
X97900Y77550D02*
D03*
X87900D02*
D03*
X38100Y2450D02*
D03*
X48100D02*
D03*
D44*
X188000D02*
D03*
D45*
X178050Y64057D02*
D03*
D46*
X199250Y36500D02*
D03*
D47*
X207500Y37500D02*
D03*
D48*
X212300Y9008D02*
D03*
Y34992D02*
D03*
D49*
X202298Y66834D02*
D03*
X206629D02*
D03*
Y63000D02*
D03*
X202298D02*
D03*
X75700Y55500D02*
D03*
X81984Y55300D02*
D03*
X133500Y60700D02*
D03*
X133000Y57000D02*
D03*
X196600Y71600D02*
D03*
X95800Y27700D02*
D03*
X98000Y24500D02*
D03*
X95000Y23000D02*
D03*
X92300Y31700D02*
D03*
X98900Y28400D02*
D03*
X74100Y16900D02*
D03*
X68700Y28400D02*
D03*
X62900Y61000D02*
D03*
X201500Y49800D02*
D03*
X200000Y33500D02*
D03*
X196063D02*
D03*
X198031D02*
D03*
X196063Y30500D02*
D03*
X198031D02*
D03*
X2500Y40500D02*
D03*
X54600Y40800D02*
D03*
X54400Y51000D02*
D03*
X62500Y21100D02*
D03*
X14500Y71500D02*
D03*
X51500Y61000D02*
D03*
X102500Y8000D02*
D03*
X93000Y7500D02*
D03*
X193100Y10800D02*
D03*
X196500Y3500D02*
D03*
X141500Y48000D02*
D03*
X141000Y52000D02*
D03*
X162000Y56800D02*
D03*
X164500Y55200D02*
D03*
X67016Y42984D02*
D03*
Y39047D02*
D03*
X99900Y32300D02*
D03*
X95000Y37000D02*
D03*
X184000Y47000D02*
D03*
X99000Y45000D02*
D03*
Y41000D02*
D03*
X138000Y60000D02*
D03*
X142000Y57000D02*
D03*
X129000Y40000D02*
D03*
X128000Y44000D02*
D03*
X125000Y41000D02*
D03*
X129500Y48000D02*
D03*
X133500D02*
D03*
X129500Y52000D02*
D03*
X124000Y36000D02*
D03*
X141900Y59800D02*
D03*
X137500Y48000D02*
D03*
X146000Y52000D02*
D03*
X127000Y28000D02*
D03*
X129500Y36000D02*
D03*
X128500Y32000D02*
D03*
X132500Y28000D02*
D03*
Y24000D02*
D03*
Y20000D02*
D03*
X128500Y24000D02*
D03*
X103000Y40000D02*
D03*
X133500Y52000D02*
D03*
X33000Y7000D02*
D03*
X78000Y59000D02*
D03*
Y63000D02*
D03*
X58100Y28800D02*
D03*
X129500Y56500D02*
D03*
X175700Y69900D02*
D03*
X202200Y76900D02*
D03*
X11800Y31200D02*
D03*
X92000Y63000D02*
D03*
X95000Y44300D02*
D03*
X176000Y64000D02*
D03*
X168700Y64100D02*
D03*
X70000Y52600D02*
D03*
X87000Y63000D02*
D03*
X83000Y72000D02*
D03*
X123500Y63200D02*
D03*
X67100Y59300D02*
D03*
X194200Y55100D02*
D03*
X179500Y48600D02*
D03*
X169500Y69800D02*
D03*
X210300Y39500D02*
D03*
X205100Y47300D02*
D03*
X211800Y75500D02*
D03*
X210800Y55100D02*
D03*
X154000Y40000D02*
D03*
X154500Y44000D02*
D03*
X148000Y32000D02*
D03*
X158660Y57500D02*
D03*
X106900Y19100D02*
D03*
X14000Y12000D02*
D03*
X3400Y16500D02*
D03*
X17100Y21700D02*
D03*
X12700Y25500D02*
D03*
X11400Y42200D02*
D03*
X3000Y49500D02*
D03*
X4000Y58500D02*
D03*
X133600Y9700D02*
D03*
X187500Y46000D02*
D03*
Y48500D02*
D03*
X200000Y30500D02*
D03*
X201969D02*
D03*
Y33500D02*
D03*
X183000Y70500D02*
D03*
X171500Y21000D02*
D03*
X175500Y57700D02*
D03*
X163500Y72500D02*
D03*
X148000Y28000D02*
D03*
X152000Y30000D02*
D03*
X141500Y19800D02*
D03*
X152000Y15870D02*
D03*
X106500Y28000D02*
D03*
Y44500D02*
D03*
X174500Y49000D02*
D03*
X165000Y64000D02*
D03*
X170700Y51400D02*
D03*
X150000Y44000D02*
D03*
X123000Y71500D02*
D03*
X145500Y48000D02*
D03*
X152500Y71000D02*
D03*
X153500Y34000D02*
D03*
X167500Y39500D02*
D03*
X122500Y11500D02*
D03*
X99500Y19100D02*
D03*
X88800Y19300D02*
D03*
X167500Y44000D02*
D03*
X161800Y22300D02*
D03*
X113500Y60500D02*
D03*
X124000Y32000D02*
D03*
X177000Y54100D02*
D03*
X78000Y17000D02*
D03*
X65400Y19200D02*
D03*
X53500Y19000D02*
D03*
X48400Y17200D02*
D03*
X56900Y32100D02*
D03*
X72000Y59000D02*
D03*
X89000D02*
D03*
X40300Y60700D02*
D03*
X182500Y22500D02*
D03*
X182000Y19000D02*
D03*
X142400Y9500D02*
D03*
X167700Y35400D02*
D03*
X43000Y7000D02*
D03*
X205200Y76900D02*
D03*
X208900D02*
D03*
X89700Y55200D02*
D03*
X98000Y55335D02*
D03*
X36600Y31700D02*
D03*
X36800Y47800D02*
D03*
X121600Y16400D02*
D03*
X138000Y56000D02*
D03*
X62200Y39000D02*
D03*
X182600Y26000D02*
D03*
X196400Y7000D02*
D03*
X214500Y3500D02*
D03*
X212000D02*
D03*
X137000Y64400D02*
D03*
X95000Y40800D02*
D03*
X138000Y69000D02*
D03*
X63300Y44700D02*
D03*
X61200Y42000D02*
D03*
X84700Y56600D02*
D03*
X85000Y23600D02*
D03*
X81700Y23300D02*
D03*
D50*
X18000Y5000D02*
D03*
X28000D02*
D03*
X38000D02*
D03*
X48000D02*
D03*
X58000D02*
D03*
X68000D02*
D03*
X78000D02*
D03*
X88000D02*
D03*
X98000D02*
D03*
X108000D02*
D03*
X118000D02*
D03*
X128000D02*
D03*
X178000D02*
D03*
X168000D02*
D03*
X158000D02*
D03*
X148000D02*
D03*
X138000D02*
D03*
X18000Y75000D02*
D03*
X28000D02*
D03*
X38000D02*
D03*
X48000D02*
D03*
X58000D02*
D03*
X68000D02*
D03*
X78000D02*
D03*
X88000D02*
D03*
X98000D02*
D03*
X108000D02*
D03*
X118000D02*
D03*
X128000D02*
D03*
X178000D02*
D03*
X168000D02*
D03*
X158000D02*
D03*
X148000D02*
D03*
X138000D02*
D03*
D51*
X188000Y5000D02*
D03*
Y75000D02*
D03*
D52*
X76669Y37669D02*
D03*
X81000D02*
D03*
X85331D02*
D03*
X76669Y42000D02*
D03*
X81000D02*
D03*
X85331D02*
D03*
X76669Y46331D02*
D03*
X81000D02*
D03*
X85331D02*
D03*
D53*
X18900Y67362D02*
D03*
D54*
X6000Y6000D02*
D03*
M02*
