M48
;Layer_Color=9474304
;FILE_FORMAT=2:5
INCH,LZ
T9F00S00C0.20000
%
G90
G05
T09
G00X0219988Y-00098
M15
G01X0221896Y-000921
G01X0223648Y-0008252
G01X0225176Y-0006965
G01X0226417Y-00054
G01X0227322Y-0003619
G01X0227855Y-0001694
G01X0228Y0
G01X0228Y0075
G01X02278Y0076988
G01X022721Y0078896
G01X0226252Y0080648
G01X0225071Y0082071
G01X0220071Y0087071
G01X0218525Y0088335
G01X0216758Y0089267
G01X0214841Y0089829
G01X0213Y009
G01X0Y009
G01X-0001988Y00898
G01X-0003896Y008921
G01X-0005648Y0088252
G01X-0007176Y0086965
G01X-0008417Y00854
G01X-0009322Y0083619
G01X-0009855Y0081694
G01X-001Y008
G01X-001Y0
G01X-00098Y-0001988
G01X-000921Y-0003896
G01X-0008252Y-0005648
G01X-0006965Y-0007176
G01X-00054Y-0008417
G01X-0003619Y-0009322
G01X-0001694Y-0009855
G01X0Y-001
G01X0218Y-001
G01X0219988Y-00098
M16
M17
M30
